/* XPM */
static char *_bcb78e7393d4285f76427ff0a5288e0FWZT9lUvHFImBGol[] = {
/* columns rows colors chars-per-pixel */
"64 64 214 2 ",
"   c #643E36",
".  c #5D433C",
"X  c #62453D",
"o  c #664A3F",
"O  c #6E4B3E",
"+  c #724C3D",
"@  c #7B4D3D",
"#  c #78513E",
"$  c #3F464F",
"%  c #40414D",
"&  c #5C4B45",
"*  c #5B4C49",
"=  c #5D524D",
"-  c #454D55",
";  c #484F58",
":  c #554C52",
">  c #5A4D52",
",  c #4A535C",
"<  c #565452",
"1  c #5D5552",
"2  c #5E5957",
"3  c #52555D",
"4  c #5D565A",
"5  c #53595B",
"6  c #5C5C5B",
"7  c #614741",
"8  c #654A44",
"9  c #6C4C44",
"0  c #634D4C",
"q  c #6B4E4A",
"w  c #734D43",
"e  c #794E43",
"r  c #734E4A",
"t  c #7B4F49",
"y  c #675147",
"u  c #6D5146",
"i  c #64524D",
"p  c #6C534C",
"a  c #6C584F",
"s  c #735245",
"d  c #7C5245",
"f  c #7E5946",
"g  c #73534B",
"h  c #7B544B",
"j  c #75594D",
"k  c #7C5A4C",
"l  c #6A4F50",
"z  c #645452",
"x  c #6C5453",
"c  c #645955",
"v  c #6C5A55",
"b  c #65575A",
"n  c #6D5659",
"m  c #645C5B",
"M  c #6B5C5B",
"N  c #735553",
"B  c #7A5651",
"V  c #745B54",
"C  c #7B5C53",
"Z  c #715759",
"A  c #735C5A",
"S  c #7A5E5A",
"D  c #5F615F",
"F  c #7F624E",
"G  c #65615E",
"H  c #6C615D",
"J  c #6D625D",
"K  c #766254",
"L  c #7D6155",
"P  c #74625C",
"I  c #7C625C",
"U  c #7D6A5E",
"Y  c #4F5561",
"T  c #555A62",
"R  c #5C5B63",
"E  c #685D62",
"W  c #735E60",
"Q  c #795F60",
"!  c #5C6363",
"~  c #57606A",
"^  c #5C6469",
"/  c #586471",
"(  c #646362",
")  c #6B6463",
"_  c #656966",
"`  c #6C6966",
"'  c #646669",
"]  c #656A6B",
"[  c #6C6C6B",
"{  c #736463",
"}  c #7C6563",
"|  c #746965",
" . c #7C6A65",
".. c #796669",
"X. c #746C6B",
"o. c #7C6C6A",
"O. c #6D716F",
"+. c #75716E",
"@. c #7C716D",
"#. c #646B72",
"$. c #6B6E71",
"%. c #756E71",
"&. c #7B6E72",
"*. c #6E7273",
"=. c #747273",
"-. c #7C7473",
";. c #747977",
":. c #7C7876",
">. c #73767A",
",. c #7C7679",
"<. c #74797A",
"1. c #7C7B7C",
"2. c #83533E",
"3. c #825444",
"4. c #845A45",
"5. c #8A5B45",
"6. c #81564B",
"7. c #835B4C",
"8. c #8A5E4A",
"9. c #905D49",
"0. c #835D52",
"q. c #895E52",
"w. c #815F58",
"e. c #8C6146",
"r. c #83614C",
"t. c #8D624C",
"y. c #926143",
"u. c #92644D",
"i. c #92684F",
"p. c #9A6848",
"a. c #836354",
"s. c #8B6353",
"d. c #8E6955",
"f. c #83645B",
"g. c #8A655A",
"h. c #846A5D",
"j. c #8B6B5B",
"k. c #916652",
"l. c #936C55",
"z. c #996D51",
"x. c #946E59",
"c. c #87725F",
"v. c #8E725E",
"b. c #967156",
"n. c #94735C",
"m. c #9D755A",
"M. c #99745C",
"N. c #A07454",
"B. c #826662",
"V. c #836C64",
"C. c #8B6D62",
"Z. c #826D6A",
"A. c #896F68",
"S. c #857266",
"D. c #8C7263",
"F. c #84726D",
"G. c #8B736C",
"H. c #85786F",
"J. c #8D796D",
"K. c #937563",
"L. c #997764",
"P. c #957966",
"I. c #9A7966",
"U. c #91766B",
"Y. c #937A6B",
"T. c #987D6A",
"R. c #806F72",
"E. c #837573",
"W. c #897572",
"Q. c #847A75",
"!. c #8C7B74",
"~. c #827778",
"^. c #837C7B",
"/. c #8A7D7A",
"(. c #937C72",
"). c #907E7B",
"_. c #8F8075",
"`. c #84817E",
"'. c #8C827D",
"]. c #938276",
"[. c #93847B",
"{. c #97887C",
"}. c #9A8A7F",
"|. c #687982",
" X c #757C82",
".X c #7B7E81",
"XX c #837E81",
"oX c #7D8184",
"OX c #76838A",
"+X c #7D868C",
"@X c #7E8A8F",
"#X c #798A96",
"$X c #848283",
"%X c #8A8482",
"&X c #8B8887",
"*X c #838689",
"=X c #8A8689",
"-X c #84898C",
";X c #8C8B8B",
":X c #928583",
">X c #938A84",
",X c #9A8C83",
"<X c #938D89",
"1X c #988E89",
"2X c #9A938C",
"3X c #9F988F",
"4X c #848B91",
"5X c #898D90",
"6X c #918F92",
"7X c #839197",
"8X c #8E9193",
"9X c #929292",
"0X c #91979C",
"qX c #8A9AA4",
/* pixels */
"i = = c m = = = ( *.[ M M J M c c G ) c c 2 m c m ) ) v v z c 1 = c G J M M i 6 ] i y z z = c z i z x v J i i i p i z & = J P J ",
"+ # s s c 7 o 8 8 0 8 8 i M u 9 9 9 9 u s p p s s g g s g s M ( 0 p p p p i i m G v p a v a a v V P L L L j V M j V G x v v A J ",
"+ O + O = . X X X X X X 8 v O O O O O O O p u + + + + + p p i <               i G 9 9 w w w s s s V f f f f g s g C P j g w s g ",
"= = = = G 1 < 6 4 2 < z c ) c = i z z a j M 1 < 1 1 1 2 ! ! 6 5 * = M v i i & = ( i c c i i M M M | P P P P J J P { X.{ J v p p ",
"8 i j f f j 4 ' ' $.] J P M m 1 z z m P F r.P J J K K G ) [ [ ] ] ] ;.` N N v v 9 g a ( ) M { J C k r.a.J V v M [ ) v { M c V P ",
"8 z j f d s ) =.$.$.] { A x m * 0 i m P L F K G ) P a.J m =.*.#.^ T ] M 9 9 p M O + w 6 z q q x f 5.e.r.v g g N | P w w 9 i g g ",
"c J J J M M ( ^ ! ^ ^ ! m M ) ) ) ` [ J J G ) D ( ! c 2 m _ ] ^ 6 ! O.J i = 1 ) i y = ! D c c c M K U o.| v i c X.) M P M _ J M ",
"9 u s s g a v 6 [ =.[ ( v g j N N ) ` w s s g j j j V X.X.| X.| P } I C V C j j j N m v g g g g j j j I L C s g g j f j J v p p ",
"w w + O O O o 4 m M ) ( x p p p p 1 c O O O s s s s g X.X.` ` X.V V C h f e e @ e + i 9 + + + + @ d d K d 3.@ @ @ @ @ s P g s w ",
"c m c 1 1 < = m c = < ( m ( 6 m 2 2 m m M c c G J ) _ ] $.] ] [ G G | P P P M z z i m i & & & i v M J | V v p N a p x 1 m { { J ",
"0 z z 0 1 4 0 0 0 0 0 z z ( ( M M M N s s g A  .U ` _ | +.P V V V V V V V G M M M M J m 3 5 m v N v v v J ( _ V C C V N N P P J ",
"z z 0 0 1 6 2 i z z z i z ( ] m M v x a g j | =.M ( _ K | V V C C V g g g J z z z x z c ; , M x N N x n v 2 ( C k h j k V j j P ",
"( G M G G 6 6 6 ] [ ( ( ) ( ! ( ] ;.) ` ) ` =.X.u x =.| X.@.@.@.@.| { { { | | [ ( ( m [ ( ] ;.-.-.1.;.-.-.) ` | | { | J { | { X.",
"i 9 9 9 9 9 8 0 4 i 8 8 q 8 8 8 m [ x q z i z | q q =.V f 7.7.f  .C h g h h g g g { v q p n v z n X.} I C C L L L C @.K j C C j ",
"i 9 8 8 8 8 8 * c z z z 0 i z * m [ x i z i x X.a p { k 7.7.4.f F.j s V j s s w g @.| N N g q q i M I C C C C C k 7.I s @ @ @ @ ",
") G m 2 2 4 m ( ] ] ] ] ] ( ( G ) ` ) ) [ [ X.<.+.-.;.:.`.$X-.@.:.X.) [ [ O.[ ` +.<.1.1.`.:.:.<.1.:.`.%X`.@.@.E.=.@.^.) J { P V ",
"s s s i u p u g g p g j { s w w s s s s N | s g s g g N A o.:.I I C j g A V P | V C j N j j I -. .k a.a.a.0.7.k | | I C C P P A ",
"u 9 9 x N j g k k j g s J a s w g g j V V { g s s g g g g P | k C f d h g d C } g g w w w w + C f 2.3.3.6.3.@ 2.C C d d 3.e 3.3.",
"$.$.( ` =.=.+.@.@.@.^.1.1.1.<.G X.=.<.=.X.+.X.+.X.@.@.[ ( ) ` +.@.F.H.-.| P X.:.@.M M G |  . .^.@.I I V J P I V.Q.:.I I I I I I ",
"; - c u s v A C k h P ) ) ) [ M q z ) { N N P X.A A P @.U j.d.S.h.a.L  .{ z M A | j V I @.V g C I Z.f.I U | C C C @.I C C I o.I ",
"$ - m 8 9 9 M C g g P M z i ) x 0 0 M { p a A o.V N N o.j.l.i.j.a.7.f L { x q z I d h h } g w w j a.4.7.L I d d d F.7.d d C C d ",
"m ) X.) G ) { { P P X.=.) c <.=.o.| X.-.@.@.o.^.Q.o.| Q.Q.H.S.H.H.Q.Q.^.;X$X-.-.^.H.| } '.^.Q.@.-.Q.E.~.Q.$X~.E.@.$X@. .F.@.^.o.",
"C k k C C X.V 9 u j g g g g ) I a.f.a.a.a.a.0.F.!.v.v.j.a.j.C.j.h.=.h.Z.F.H.C.j.h.Z.@.U C.j.j.v.D.j.G.^.C.D.D.n.D.D.D.C.@.A { { ",
"j j C L C | M q 9 s g s q q |  .L a.a.a.a.a.a.^.Q.D.D.h.a.a.a.s.D.@.7.5.8.t.e.y.4.V.Q.a.a.d.d.d.j.s.D.Q.7.t.t.u.u.i.u.t.} g r r ",
"J { X.P P J J M M ) X.) ( m X.,.:.:.:.`.Q.H.S.Q.Q.Q.%X`.`.@.X.-.%X^.h.f.j.j.h.h.h.Q.$X@.@.S.F.Q.F.Z.H.`.S.S.G.J.!.!.!.!.1.X.@.o.",
"q x M 8 9 9 9 i q u M T R b x n A N A F.s.t.t.t.a.7.7.h.-.k ) C 7.7.a.s.t.s.h.X.A A N N N N N o.| V A I } { { X.-. . .} } } Z.Z.",
"z z ) M x A A v i u M T 3 b x n N N A E.j.a.s.r.a.a.7. .=.C | C 7.7.4.t.t.t.d.I x A A A N N N } } g s s g g l x o.h 6.f h k C 0.",
"[ ) | o.{ | X.;.[ ) X.) m ) X.X.X.o.-.^.F.C.h.C.V.@.=.1.*X^.^.o.Z.Z.H.W.!.J.!.'.^.;.<..X^.^.:.:.~.E.~.-.X.) { X.$XF.Z.F.F. . .Z.",
"h.h.a.7.f h g X.n p x z z n x x { S 0.0.7.t.l.l.j.X.) A S I I f.f.V.;XJ.D.K.j.j.j.h.f.^.W S S A C S -.%.) { | X.o.o.o.,.o.I S S ",
"I a.a.a.I { M [ P A A v z M A P -.} f.C.j.j.K.K.J.=.M N V C j C C f.'.j.j.x.l.l.k.s.s.^.A S C S C N o.) n A A A N N N | V g h h ",
"*.[ X.X.X.X.X.[ =. X>.%.X.%.:.^.$X1.1.;X9X8X9X8X5X*XoX1.oX^.-.:.^.$X;X%X<X<X:X>X<X<X<X0X5X;X;X;X;X=X=XXXX.%.%.) ) P X.$X:.E.^./.",
"( > 0 q q q q q M ~ > l r g h k k | } C 0.C I S S { -. .}  .}  .} } } H.L.m.M.K.C.Z.o..X/.f.f.h.V.h.f.g.B.>.' ) { {  .o.| -.!.!.",
".X[ ) ) M x x A X.] > z g g j h k o.f.6.6.h j j V A ^.} I I C C C C C F.b.N.z.i.7.j N X.F.7.7.7.7.7.7.7.f.*.4 n N N S C C F.S.j.",
"X.X.=.=.:.=.X.:.-.,.-.=.=.=.=.X.@.:.-.@.o.o.X.-.-.^.8X;X^.=.+.~.'.Q.^.;X'.}.{.,X{./.:.$X9X:X>X/.!.[.W.W.'.*X;.=.~.Q.E.Z.Z.^.'.!.",
"r w q 9 A C d d h j j k C { m A A N N V C A A C C C I } } X.@.J.Y.Y.Y.J.P.T.].Y.D.K.D.D.G.(.(.>XA.G.A.C.C.j.h.j.'.!.G.F.E.F.F.F.",
"| o.o.o.^.I k f h h X 9 k | m A V V N N B S C 7.0.6.7.0.f. .D.b.b.b.b.b.l.b.P.d.5.y.u.t.5.5.5.D.s.u.9.9.8.8.9.u.U.6.6.7.0.0.0.0.",
"-.:.:.-.-.o.| | ) ) E ) | -.=.=.^.`.:.~.^.'.'.!.E.^.E.F.E.^.'.{.].2X3X,X].].,X{.P.j.j.K.K.D.Y.].].].(.Y.(.Y.U.(.>XA.j.f.C V I } ",
"g g g s g g g N ) m M z M { M A o.H.S.D.v.n.b.x.0.} g.C.C.D.K.P.Y.1X2XY.P.K.K.M.M.M.I.(.C.C.D.C.V.F.} o.:X].{.{.!.!.!._.Q.o.} ..",
"P A A P P A v v ) m m z M { { A o.S.c.v.v.l.z.i.V I 0.s.s.l.x.l.n.Y.[.v.n.K.M.M.m.m.M.G.8.8.8.7.7.0.g N D.v.D.D.D.v.D.K.J.f.t h ",
":.-.:.^.^.;.$.*.$.' ' ` ` ;.>.+.^.'.%X:X_.!.{.'.%X&XW.W.].].{.{.:X>X9X:X:X>X{.{.{.}.2X>X!.!.!./.'.^.X.,.>X]._.!.!.!.J.!.!.E.B.} ",
"+ g I j s j { q q q M g g j { v.l.x.D.D.s.t.j.Q.a.g.j.W.J.D.U.J.~.B.B.B./.h.f.f.F.E.Z.Z.E./.!.!.!.6XXXE.^.%X!.Y.].}.<X{.{.1X<X^.",
"w A  .C s s | q q q A d d s I D.l.i.j.h.7.4.7.F.h 3.7.Z.a.5.5.s.F.h h e E.7.3.3.h.f.h h C a.2.3.4.G.h w w I i.y.p.z.K.5.5.y.a.f ",
"S I  .$X@.P { A v { X.o.^.E.F.E.V.h.f. .| @.I F.V 9 g } I I h.Z.%X .I I Q.F.F.B.| E. .} } W.V.A.h.Q.Z.I C Z.P.M.M.K.Y.j.d.d.F.a.",
"@ @ @  .C e e e w w w e V.6.3.d d 6.7.C L Q.7.7.7.7.7.0.0.C I 0.w.0.7.7.7.0.F. .V V A A S S }  .S C C S f.S B.:X>XJ.U.G.D.F.H.V.",
"L C a.Z.Z.I I C g j g g F.C f k h C L a.f.'.h.a.f.f.f.a.7.0.f.7.7.7.6.7.7.6.f.I N B N N S B V } C h d d e e h C a.5.5.5.3.d 7.7.",
"Z.V.V.Z.F.Z.Z.Z.:.F.S S V.I I I S Q.-.o. .o. .} } | $X~.o.@.^./.Q.E.:XW.W.W.~.-.@.| ~.%X/.E.E.'.[.E.E.A.E./.A.F.J.f.g.j.A.V.f.a.",
"C 6.f 6.6.d d d Z.C d d d d d d w F.C r r h h h e B } C 0.q.q.q.f.a.W.f.6.7.7.0.7.0.f./.g.s.s.t.t.s.8.s./.Z.f.S f.f.f.B.W.:XF.B.",
"} I I V A }  .B.Q.B.C C L f.I I I %X} S I I } } }  .S B 6.h h 7.0.0.A.f.d 7.7.7.7.7.7.F.s.s.t.t.t.8.5.t./.C h h h h d d C g.4.4.",
"a.a.a.a.g.h.-. .I I I I V.Z.o.o.B.V.I } } }  .-.}  .} I A N x  .~.I  .F.} o.F.E.^.W.W.E.W.!.!.J.J.!.G.B.%X:X!.J.G.W.W.W.E.Z.C C ",
"4.2.2.5.8.8.I e e d d e e e I C d e e w e e w A r r r r r r r } Z.r r g h g g h | f.g.g.g.g.s.s.s.!.q.q.q.s.s.s.s.g.E.} } W W W ",
" . . .Z.Z.Z.-.A }  .Z.B.I I F.o.I } I S I I } o.} } S S S S S  .E.B g N C C C S Z.h.g.C.C.C.j.g.j.).0.7.0.7.8.8.8.0.Z.Z Z n n n ",
"#.Y E M M A S C o.} Z.} } } ....o.$XI 0.0.0.f.f.f.V.~.W W { Q S A N } o.Z.Z.Z.Z.o. .Z./.J.G.F.F.E./.E./.:X>X{.(.(.(.[.W.^.~.o.o.",
"T % : 0 q w h f S B B B j j B B V ~.h d d f f 6.6.0.~.r g x g g N g } I h h h h h h h I 6.h j h B B A ) F.s.s.u.u.u.u.t.C.V.a.a.",
"$.E ' %.X.} Z.Z.-.V p S I A N n v %.n N A | o. . . .=X/.~.~.E.E.E.E.$XE.f.f.I S S f.S F.f.w.w.C C C A ) G.k.k.s.s.u.u.u.j.h.7.0.",
"N N N } s.s.s.s.s.7.6.f.o.n n n N x q x } -.} } } Z.Z.E.R./.G.G.U.U.G.E.%. X-.B.Z.F.E.W.Z.F./.W.V.A.F.W.).:X[.&X%X>X>X)./.%X'.=X",
"x p N I 8.5.8.8.8.8.5.7.o.z x x x N N N { } B B B B j j B B.g.s.s.s.q.C z 3 A h 6.0.0.0.0.C W.g.s.g.s.s.7.g.g.Z.Z S S C S A A -.",
"1.XX1.XX/./.E.E./.Q. .F.=XXXXX,.,.XX^.XX*X*XXXo.A } P P } E.!.W.Z.B.I A m ' -.o.E././.E.F.F.&X:XW.A.G.G.A.A.G.%XS S } S S } { X.",
"x Z A A A X.Z N A A N A n &.Z.S S f.I S S W .X} w.f.0.f.B.A.A.XX%.....{ { X.X.1.*XG.W.G.G.F.W.F.E.-X(.(.(.Y.(.].J.W.1.1.oX*X$X^.",
"9 9 r r g { N g N N N N x { } h h h C C C A ,.B.0.q.0.0.q.g.j.$XX.W A A A A Z &.*X0.0.0.0.0.0.6.f.^.8.8.u.u.i.k.u.d.D.j.j.j.s.s.",
"-.,.^.^.^.5X8X*X1.$X,.1.$X;X;X~.~.o.-.=X=X=X0X;X%X/./././.Q.F.*X+X*X+XoX.X X=.oX@X-.E.Z.V.V.V.f.} ^.Z.V.H.H.D.U.U./.^.A.D.C.j.j.",
"N A } ~.J.J.!.W.{ A Z ..!.P.K.Y.~.A } &.$XE.F.Z./.F.V.B.F.Z.f.f.E.qX#XqXqXqX:.E.X.$X/.G.A.E.$XS S E.-XW.W.W.$X}.,X,X*X+X$X$X/.;X",
"9 q g P | V.D.E.{ A W { S.d.l.x.E.A A A -.} f.f.Z.B.C 0.I o.} I V.OX~ $.>.4XZ.V.} XXF.f.0.V.^.h h B ,.j.s.s.E.P.M.M.].Q.s.a.0.$X",
"M ) ) ] |. X XOX+X4X-X$X<.-.E.E.$X-.,.:.;X^.^.E./.;X%X'.%X^.1.$X$X@X<.=.oX7X.X1.$X5X$XQ.~.^.*X-.o.X.1.~.Z.P <.~.!.J.^.-.a.a.f.*X",
"0 #., 3 4 R T / |.>.} W W ....} I } F.G.A.G.G.G.U.G./.Y.L.I.I.(.%XY.Y.J.Y.(.(.Y.Y.I.I.].8XG.C.V.A. .~.E.=.|. XX.~.^.^..X*X&X*X-X"
};
