/* XPM */
static char *ba15372b48fb44c2e74fb43566c8b861Osad88RflCGLpXSa[] = {
/* columns rows colors chars-per-pixel */
"64 64 256 2 ",
"   c black",
".  c #010101",
"X  c #020202",
"o  c gray1",
"O  c #040404",
"+  c gray2",
"@  c #060606",
"#  c #070707",
"$  c gray3",
"%  c #090909",
"&  c gray4",
"*  c #0B0B0B",
"=  c #0C0C0C",
"-  c gray5",
";  c #0E0E0E",
":  c gray6",
">  c #101010",
",  c #111111",
"<  c gray7",
"1  c #131313",
"2  c gray8",
"3  c #151515",
"4  c #161616",
"5  c gray9",
"6  c #181818",
"7  c #191919",
"8  c gray10",
"9  c #1B1B1B",
"0  c gray11",
"q  c #1D1D1D",
"w  c #1E1E1E",
"e  c gray12",
"r  c #202020",
"t  c gray13",
"y  c #222222",
"u  c #232323",
"i  c gray14",
"p  c #252525",
"a  c gray15",
"s  c #272727",
"d  c #282828",
"f  c gray16",
"g  c #2A2A2A",
"h  c gray17",
"j  c #2C2C2C",
"k  c #2D2D2D",
"l  c gray18",
"z  c #2F2F2F",
"x  c gray19",
"c  c #313131",
"v  c #323232",
"b  c gray20",
"n  c #343434",
"m  c #353535",
"M  c gray21",
"N  c #373737",
"B  c gray22",
"V  c #393939",
"C  c #3A3A3A",
"Z  c gray23",
"A  c #3C3C3C",
"S  c gray24",
"D  c #3E3E3E",
"F  c #3F3F3F",
"G  c gray25",
"H  c #414141",
"J  c gray26",
"K  c #434343",
"L  c #444444",
"P  c gray27",
"I  c #464646",
"U  c gray28",
"Y  c #484848",
"T  c #494949",
"R  c gray29",
"E  c #4B4B4B",
"W  c #4C4C4C",
"Q  c gray30",
"!  c #4E4E4E",
"~  c gray31",
"^  c #505050",
"/  c #515151",
"(  c gray32",
")  c #535353",
"_  c gray33",
"`  c #555555",
"'  c #565656",
"]  c gray34",
"[  c #585858",
"{  c gray35",
"}  c #5A5A5A",
"|  c #5B5B5B",
" . c gray36",
".. c #5D5D5D",
"X. c gray37",
"o. c #5F5F5F",
"O. c #606060",
"+. c gray38",
"@. c #626262",
"#. c gray39",
"$. c #646464",
"%. c #656565",
"&. c gray40",
"*. c #676767",
"=. c #686868",
"-. c DimGray",
";. c #6A6A6A",
":. c gray42",
">. c #6C6C6C",
",. c #6D6D6D",
"<. c gray43",
"1. c #6F6F6F",
"2. c gray44",
"3. c #717171",
"4. c #727272",
"5. c gray45",
"6. c #747474",
"7. c gray46",
"8. c #767676",
"9. c #777777",
"0. c gray47",
"q. c #797979",
"w. c gray48",
"e. c #7B7B7B",
"r. c #7C7C7C",
"t. c gray49",
"y. c #7E7E7E",
"u. c gray50",
"i. c #808080",
"p. c #818181",
"a. c gray51",
"s. c #838383",
"d. c #848484",
"f. c gray52",
"g. c #868686",
"h. c gray53",
"j. c #888888",
"k. c #898989",
"l. c gray54",
"z. c #8B8B8B",
"x. c gray55",
"c. c #8D8D8D",
"v. c #8E8E8E",
"b. c gray56",
"n. c #909090",
"m. c gray57",
"M. c #929292",
"N. c #939393",
"B. c gray58",
"V. c #959595",
"C. c gray59",
"Z. c #979797",
"A. c #989898",
"S. c gray60",
"D. c #9A9A9A",
"F. c #9B9B9B",
"G. c gray61",
"H. c #9D9D9D",
"J. c gray62",
"K. c #9F9F9F",
"L. c #A0A0A0",
"P. c gray63",
"I. c #A2A2A2",
"U. c gray64",
"Y. c #A4A4A4",
"T. c #A5A5A5",
"R. c gray65",
"E. c #A7A7A7",
"W. c gray66",
"Q. c #A9A9A9",
"!. c #AAAAAA",
"~. c gray67",
"^. c #ACACAC",
"/. c gray68",
"(. c #AEAEAE",
"). c #AFAFAF",
"_. c gray69",
"`. c #B1B1B1",
"'. c #B2B2B2",
"]. c gray70",
"[. c #B4B4B4",
"{. c gray71",
"}. c #B6B6B6",
"|. c #B7B7B7",
" X c gray72",
".X c #B9B9B9",
"XX c gray73",
"oX c #BBBBBB",
"OX c #BCBCBC",
"+X c gray74",
"@X c gray",
"#X c gray75",
"$X c #C0C0C0",
"%X c #C1C1C1",
"&X c gray76",
"*X c #C3C3C3",
"=X c gray77",
"-X c #C5C5C5",
";X c #C6C6C6",
":X c gray78",
">X c #C8C8C8",
",X c gray79",
"<X c #CACACA",
"1X c #CBCBCB",
"2X c gray80",
"3X c #CDCDCD",
"4X c #CECECE",
"5X c gray81",
"6X c #D0D0D0",
"7X c gray82",
"8X c #D2D2D2",
"9X c LightGray",
"0X c gray83",
"qX c #D5D5D5",
"wX c gray84",
"eX c #D7D7D7",
"rX c #D8D8D8",
"tX c gray85",
"yX c #DADADA",
"uX c gray86",
"iX c gainsboro",
"pX c #DDDDDD",
"aX c gray87",
"sX c #DFDFDF",
"dX c gray88",
"fX c #E1E1E1",
"gX c #E2E2E2",
"hX c gray89",
"jX c #E4E4E4",
"kX c gray90",
"lX c #E6E6E6",
"zX c #E7E7E7",
"xX c gray91",
"cX c #E9E9E9",
"vX c #EAEAEA",
"bX c gray92",
"nX c #ECECEC",
"mX c gray93",
"MX c #EEEEEE",
"NX c #EFEFEF",
"BX c gray94",
"VX c #F1F1F1",
"CX c gray95",
"ZX c #F3F3F3",
"AX c #F4F4F4",
"SX c gray96",
"DX c #F6F6F6",
"FX c gray97",
"GX c #F8F8F8",
"HX c #F9F9F9",
"JX c gray98",
"KX c #FBFBFB",
"LX c gray99",
"PX c #FDFDFD",
"IX c #FEFEFE",
"UX c white",
/* pixels */
"b.C.Z.C.B.M.Z.B.M.N.n.M.A.V.v.c.n.b.N.n.v.V.b.z.x.c.V.m.A.B.b.x.v.C.n.c.C.M.v.V.A.V.D.m.m.V.B.x.h.c.M.N.C.n.c.x.x.v.x.j.h.x.n.b.",
"b.V.S.C.Z.Z.N.B.C.A.C.V.V.Z.B.b.b.b.m.B.B.V.b.m.v.c.N.m.D.D.m.j.B.V.V.V.A.M.B.V.N.V.Z.m.N.C.N.z.z.b.M.v.m.v.n.k.n.V.b.x.z.c.n.m.",
"m.M.m.n.S.A.m.m.F.G.D.C.V.F.A.M.M.M.N.V.V.S.N.m.n.M.C.N.A.M.b.z.m.V.B.N.A.N.B.N.m.n.m.v.b.n.N.v.c.v.b.z.k.c.Z.D.F.Z.m.x.c.z.v.b.",
"m.M.M.m.D.B.b.b.C.A.V.B.N.Z.F.V.C.B.m.Z.V.V.m.m.M.N.n.x.n.x.c.V.n.B.B.n.B.n.m.c.k.z.z.x.c.b.m.b.m.c.k.l.j.l.N.C.V.M.Z.k.c.c.m.b.",
"B.V.V.C.C.V.B.N.V.V.m.N.C.Z.Z.A.C.V.M.Z.Z.M.b.M.m.n.c.v.m.x.k.M.b.n.b.m.M.v.c.x.k.l.k.M.v.l.x.c.b.n.k.h.h.l.v.n.n.m.C.x.x.b.v.b.",
"J.S.B.M.V.Z.N.B.N.V.V.C.Z.D.Z.S.B.m.B.D.F.B.A.B.M.N.V.x.l.l.a.l.v.b.n.N.B.B.b.v.z.z.c.M.k.x.x.m.M.N.h.g.x.c.v.b.M.m.C.m.B.B.M.V.",
"U.G.A.N.n.N.B.M.v.V.F.I.F.Z.S.S.Z.Z.A.G.H.A.D.A.G.D.B.c.j.v.n.v.m.M.M.b.x.M.v.M.v.v.m.C.k.l.c.N.B.m.c.B.n.N.N.b.N.M.B.N.n.C.B.B.",
"I.I.F.A.B.N.V.N.V.F.F.K.K.Z.D.V.A.G.C.C.S.C.S.A.A.Z.N.m.v.n.S.M.m.B.N.v.M.V.M.v.l.m.n.N.v.b.c.n.b.C.V.M.b.m.m.N.Z.m.x.v.B.Z.N.n.",
"L.K.D.N.N.B.D.F.D.P.H.S.G.A.H.S.Z.F.D.A.D.V.A.V.M.n.N.V.C.b.V.M.B.S.G.C.A.N.n.c.j.z.x.n.N.v.z.c.n.C.A.M.N.m.b.V.M.x.N.n.M.V.B.m.",
"K.A.F.S.C.V.Z.D.S.G.D.H.S.S.F.D.S.Y.A.Z.G.K.D.C.N.c.n.b.z.x.B.M.m.m.S.V.V.v.k.z.x.l.g.v.n.z.j.b.m.m.N.m.n.N.N.N.n.c.M.v.B.N.N.b.",
"G.G.H.S.b.b.V.N.S.H.S.S.S.D.K.K.A.K.Z.Z.G.F.B.V.Z.S.D.M.b.m.B.B.N.M.B.B.N.N.V.m.b.z.x.x.z.M.x.n.M.n.B.N.N.M.m.C.m.l.b.b.b.n.m.M.",
"G.F.F.M.c.b.C.Z.A.I.H.B.m.S.G.K.H.D.D.G.J.D.M.M.N.D.S.B.M.M.M.N.N.Z.C.Z.V.V.M.M.m.n.b.x.v.z.j.x.m.v.c.b.b.B.N.B.z.c.c.c.n.N.v.V.",
"Z.D.D.M.l.n.V.F.J.K.L.C.N.V.V.A.D.F.F.G.H.A.M.m.N.D.A.D.n.N.m.V.A.m.n.Z.Z.n.b.B.n.b.n.b.m.b.g.c.m.x.l.n.m.m.n.M.v.B.F.B.B.B.n.N.",
"n.V.Z.b.k.v.x.N.F.H.D.Z.A.Z.Z.H.G.A.D.J.A.C.N.C.C.A.H.K.Z.B.B.A.S.C.C.D.C.b.V.Z.n.x.v.C.Z.V.c.b.M.c.b.A.M.z.z.x.l.v.Z.V.M.c.z.b.",
"M.Z.A.Z.B.M.N.B.S.K.G.G.K.V.Z.J.K.F.C.Z.V.N.N.A.A.Z.D.A.G.C.Z.F.H.Z.Z.D.C.N.m.N.b.l.c.M.M.n.v.b.x.s.z.m.c.m.l.k.v.B.b.m.B.x.h.N.",
"S.C.B.F.A.F.D.S.Z.L.P.H.D.Z.H.H.D.D.Z.B.S.M.n.S.G.Z.C.A.D.F.D.H.F.H.D.F.Z.C.C.B.M.B.N.N.m.v.l.n.x.s.g.h.v.N.N.z.l.N.b.n.S.Z.B.C.",
"S.m.m.S.U.P.H.J.F.F.H.G.F.D.I.L.S.C.B.V.Z.C.V.C.G.Z.B.C.A.H.F.S.F.H.A.B.B.N.V.m.N.B.N.A.V.n.v.z.z.z.x.h.k.b.j.h.h.M.M.n.V.N.S.V.",
"S.C.N.Z.F.G.S.A.V.Z.Z.H.H.F.L.K.G.D.C.D.D.Z.Z.V.D.Z.Z.C.C.N.C.Z.A.F.Z.C.M.B.M.b.b.v.A.A.M.b.b.v.b.k.l.h.k.z.l.x.l.b.C.m.C.C.B.N.",
"M.C.S.Z.G.D.C.S.A.F.F.P.P.K.H.H.G.V.S.S.Z.C.C.F.H.H.F.H.B.N.V.Z.Z.V.A.C.N.m.b.v.x.B.V.N.v.N.v.c.v.c.n.x.z.h.k.k.b.c.N.B.n.V.V.Z.",
"v.C.H.D.L.H.D.A.N.G.L.K.P.L.K.L.Z.v.M.Z.B.C.V.S.S.D.A.D.N.A.V.M.V.B.B.N.B.n.n.n.x.S.S.V.v.c.b.b.v.b.c.c.x.f.g.v.M.B.C.Z.A.B.V.G.",
"B.B.B.V.F.G.J.G.F.G.G.H.J.L.K.G.D.Z.V.Z.M.Z.M.C.V.A.S.A.S.D.S.n.B.B.M.l.z.m.M.B.A.G.S.V.M.n.m.b.m.B.M.n.z.z.z.j.v.n.Z.D.S.A.F.H.",
"J.H.F.B.S.Z.Z.F.K.H.H.J.H.G.G.K.K.G.H.A.Z.S.m.M.D.F.A.A.A.A.C.B.A.V.M.n.n.M.B.A.Z.Z.A.V.M.b.n.m.m.M.M.M.l.v.c.v.k.x.m.m.A.S.A.F.",
"U.R.T.P.L.H.D.S.K.H.I.J.J.F.K.P.J.H.F.G.G.D.C.M.A.Z.A.S.V.Z.C.B.A.D.A.Z.Z.C.V.D.F.D.S.M.m.n.v.M.C.N.n.b.m.n.k.l.j.b.A.V.A.F.S.S.",
"K.T.Y.Y.T.U.K.H.G.F.I.K.G.H.L.L.K.J.J.J.P.K.V.M.S.F.F.S.D.S.Z.D.F.F.G.H.S.V.V.D.G.G.F.C.N.M.n.m.V.Z.N.v.b.M.z.z.c.v.M.C.A.S.C.B.",
"L.L.P.P.I.R.L.D.J.L.Y.K.K.P.U.J.K.J.F.S.J.G.B.n.Z.H.F.H.S.S.A.F.G.F.L.J.G.S.A.V.C.Z.A.S.Z.N.M.n.N.B.Z.m.z.k.c.c.x.c.N.N.C.A.B.V.",
"L.T.U.I.J.R.U.L.I.U.Y.K.L.P.U.U.P.P.J.H.G.D.Z.S.F.G.H.H.G.S.G.F.H.J.G.D.F.A.A.B.A.Z.S.J.F.B.B.V.M.m.m.v.b.M.B.v.b.c.v.N.C.D.m.V.",
"L.G.G.E.Y.Q.E.U.Y.P.D.H.Y.K.H.F.J.I.U.L.J.J.J.G.G.S.F.P.L.H.H.H.J.H.F.A.F.F.S.C.A.F.F.G.G.D.Z.A.M.m.m.l.v.N.C.B.b.b.Z.m.m.B.b.m.",
"L.D.J.W.^.!.~.T.U.G.B.F.E.U.K.J.T.Q.Y.H.F.K.F.F.J.G.H.L.P.G.J.K.K.H.H.G.D.S.S.F.H.H.G.G.Z.A.S.S.N.x.n.b.B.b.b.b.n.C.B.B.M.x.b.m.",
"Y.S.I.Y.W.I.K.I.I.E.T.L.Y.I.I.Y.R.R.P.J.F.H.P.G.F.L.L.L.U.F.L.L.K.J.H.H.F.A.D.D.H.L.P.F.D.H.G.A.V.v.M.M.n.n.g.g.z.n.v.b.k.j.j.x.",
"R.!.U.G.I.K.J.L.U.U.R.Y.R.L.Y.W.T.T.H.L.K.P.L.G.H.G.J.P.I.J.L.P.J.K.K.J.F.D.S.D.K.H.K.H.G.P.K.D.C.M.b.b.g.x.j.h.h.v.v.v.z.v.n.h.",
"E.~.(.~.W.R.T.P.U.U.P.I.Y.I.E.E.E.Q.I.I.L.I.P.U.L.U.T.L.P.L.U.P.J.K.I.K.J.F.F.H.H.G.K.F.J.P.G.S.B.b.n.b.h.l.v.l.l.m.M.v.M.M.z.k.",
"P.R.!.E.R.T.R.Y.E.E.I.I.S.J.R.R.Q.~.Y.T.T.P.I.U.U.T.R.P.G.L.P.J.L.J.L.T.P.L.J.H.H.K.J.G.J.U.P.J.S.b.M.v.z.c.h.f.j.x.x.k.m.v.B.M.",
"!.E.W.Y./.Q.Y.L.R.T.I.P.P.I.K.T.T.E.E.E.I.U.U.T.W.!.E.I.P.L.P.P.H.L.L.L.L.L.L.L.K.K.P.L.P.F.P.H.A.Z.N.l.k.x.h.x.M.m.M.m.N.N.C.C.",
"Q.`.^.~.].^.W.Q.!.R.P.U.T.T.T.T.W.Q.W.Q.W.E.U.R.E.!.W.I.E.R.U.U.H.H.H.L.H.H.J.H.K.K.L.U.I.D.D.K.D.G.A.x.v.b.x.n.n.M.v.b.M.N.N.v.",
"~.(.W./.^.E.^.(.^.~.T.I.U.E.^.W.!.R.Y.T.R.W.R.W.R.~.Q.E.E.R.E.R.L.H.J.L.L.L.I.L.P.L.L.J.L.H.G.J.F.m.G.M.n.c.v.M.A.n.c.m.n.C.N.m.",
"W.T.E.E.E./.'.`.(.(.^.^.^.~.).~.!.I.I.E.Q.^.I.T.R.Q.W.~.^.Y.R.T.I.P.K.P.T.L.J.J.P.P.Y.L.H.A.S.F.D.M.c.n.b.x.z.c.M.A.N.M.V.V.c.b.",
"Q.W.Q.~._.(._.R.W.(.^./.W.~._.~.T.L.J.Q.^.Q.L.I.E./.~.).'.W.E.T.I.P.H.J.U.R.P.L.I.T.Y.K.H.H.K.F.Z.N.b.N.b.n.M.b.m.b.v.m.V.m.l.x.",
"E.Q.Q.~.(._.{.W.^./.T.~.!.E.~.^.!.Q.!./.(.'././.~./.(.~.^.!.W.E.U.K.D.J.Y.W.R.U.U.E.Y.J.H.J.H.I.S.N.v.m.v.v.m.b.m.n.b.N.B.m.z.j.",
"P.W.~.W.!.(.[.(.^.W.R.(.`.!.^._.^.~.~.~.(.`.(.]._.).`.).(.^./.Q.R.U.L.U.Y.R.Q.R.U.I.P.P.Y.P.G.F.V.l.b.b.v.c.M.x.B.z.n.b.x.c.b.g.",
"U.Y.W.W.!.!.Q.!.W.U.T._.}.`.(.).'.'.).).'._.'.{.].(.^.(._.).^.Q.Q.T.R.R.R.R.Y.T.I.L.L.I.T.Y.G.V.b.v.m.z.c.x.k.d.c.z.z.c.v.c.b.z.",
"L.U.!./.^.!.!.!.W.R.U.W./.`.(._.[.].[.'.[._.(.`.).^.~.!.~.~.^.!.^.T.E.R.W.Y.I.U.I.P.I.J.H.K.J.b.k.x.j.z.z.m.d.r.a.h.k.c.b.v.z.v.",
"Y.R.~.Q.(.^.(.)./.).W.Q.~.~._.[.`._._.].'.`.`.`.(._./.Q.!.!.).W.R.~.!.T.E.Y.U.I.K.L.P.J.G.L.P.B.j.x.j.c.b.k.g.d.l.V.n.v.n.n.c.b.",
"Q.!.^.^.`.).).(./._.~.E.(.(.).].).).[.}.{.[.}.].'.`._./.!.~./.R.W.^.!.Q.Y.U.U.Y.Y.J.K.J.D.L.Y.B.c.M.x.l.m.j.r.h.x.n.b.z.n.l.c.l.",
"R.^.).).'.`.`.`.'.'.`.).).(./.`.).`.[.`.[.XX{.[.{.`.]._./.^.~.W.Q.R.Y.R.U.U.E.Q.T.J.J.S.Z.F.D.V.z.n.m.z.m.B.p.p.f.l.v.x.d.f.j.g.",
"R./.`.).].[.`._.`.[.[._.)./.(._.`.[.{._.].[.'.[.}.[.}.'.`.^.^.~.E.W.T.K.K.U.U.U.U.P.D.A.D.A.F.B.b.b.k.g.k.v.N.V.l.v.v.z.f.f.h.k.",
"Y.!./.].|..X].(.].{.[.{.[.].[.'.].{.`.'.'.[.'.'.[.[.{.`.{.`.)./.~.Q.W.K.K.P.R.Y.T.R.H.D.J.A.F.B.v.z.d.f.x.p.m.N.x.z.x.h.d.k.j.x.",
"E.E.W.).{.|.`.'..X X.XXX[.`.[.].].[.)._.`.].{.}.].}.{.].'.(.).^.!.W.W.P.I.P.U.L.L.P.K.A.J.H.G.Z.m.c.h.d.z.l.n.k.x.z.c.j.k.k.k.l.",
"E.Y.!.^.!.)._.{.(.'.XX.X[.`.}.}.'.{.]./.`.'.}.[._.'.{.[.'.^.W.!.E.T.Q.L.P.P.U.L.H.J.J.Z.Z.G.D.N.B.b.b.b.g.z.p.p.M.z.b.b.h.h.l.v.",
"P.R.!.).Q.Q.'.}.(.'.'.(..X`..X{.].[.'.).[.(.'.`.).].[.).)./.U.~.!.R.Q.Y.E.T.I.P.E.P.K.J.K.S.M.C.S.M.k.n.u.s.p.k.n.M.n.n.h.d.j.z.",
"Y.W.W.Q.Q.T.(.[./.`.).].{.].[.].'.`.]._.~.).].`._.].].(.).).!.!.~.Y.T.Y.U.U.T.E.~.K.K.F.U.U.B.C.F.m.v.Z.h.k.d.h.j.M.v.c.d.p.j.f.",
"U.Y.Y.U.W.Y.E.^.Q.`.`.`.'.`.].].{.|.].`.(.[.{.).'.{.].'.`.`.!.W.Q.T.Q.Y.I.L.Y.P.I.G.T.Y.U.L.N.m.G.n.f.n.b.z.p.s.l.x.z.h.f.g.h.z.",
"Y.U.I.U.T.U.T.W.W.(.'.].)./.`.`.[.oX|.'._.(.`._.].[.}.[.{. X(.Y.E.T.T.E.T.E.W.U.Y.D.J.J.J.H.B.n.N.M.b.c.n.g.l.x.k.l.x.l.g.s.i.d.",
"Y.R.E.T.R.D.J.E.!.).`.'.).~./._.'.[.].(.Q.E./.~./._.`.`.'.[.].~.W.Q.~.W.R.W.I.U.U.D.A.Z.A.H.D.D.D.v.B.v.m.b.x.k.d.d.z.l.d.i.a.g.",
"P.Y.!.E.Y.Y.K.T.!.W.^.(.^.(./.'.{.'.).(.Q.R././.(.(.^./.`.`.(.!.!.E.E.T.I.U.G.Z.G.D.A.F.n.S.S.g.N.c.m.k.l.l.h.f.i.s.j.j.h.z.j.l.",
"L.A.I.T.L.U.I.E.!.!./.(.^.)./.).].(.!.~.^.W.~.^.(._.(.~.^.)./.^.E.~.`.Y.L.I.G.V.D.K.F.c.z.B.B.z.m.z.c.g.f.f.s.a.t.a.a.p.d.l.z.g.",
"H.B.S.L.K.I.Q.^.^.!.^._./.(.~./.(.!.~.~./.Q.^./.^.).!.Q.!.!.W.Q.Q.'.(.I.F.J.G.H.D.K.D.m.v.C.m.c.k.l.h.p.a.y.p.f.d.r.t.y.s.d.i.y.",
"F.b.N.H.Z.S.W.^.(.W.!.Q.E.~.!.).).!.).`.).!.(.(.!.!.E.R.Y.T.E.U.!.(.^.P.B.C.G.H.A.C.S.n.v.v.v.z.c.b.M.g.d.r.e.p.r.i.p.a.y.w.q.q.",
"H.A.S.C.G.I.I.E.).R.E.W.E.!.!./.^.E.!.`.].^./.~.!.!.R.I.I.U.Y.U.W.U.T.L.B.Z.D.M.n.M.C.V.V.V.C.n.v.S.A.k.x.i.d.j.g.g.a.a.e.6.e.y.",
"J.H.J.D.P.Y.K.R.R.I.E.Q.E.T.R./.(.~.^.]._.^.~.W.W.I.T.L.S.P.Y.E.T.J.K.K.A.G.C.n.m.m.M.N.n.C.m.B.n.C.v.l.k.f.z.j.u.k.h.g.w.0.w.u.",
"H.D.L.L.P.T.H.U.R.R.R.U.I.L.I.E.^.~.~.).).Q.!.W.~.R.Q.L.D.J.P.R.Y.D.Z.S.C.S.S.B.Z.B.B.z.l.v.m.c.m.m.c.l.h.z.b.l.f.g.p.g.y.9.8.w.",
"S.A.H.K.J.Y.H.H.L.I.P.U.L.G.H.I.^.W.W.!.^.^.!.E.!.~.Y.L.U.H.L.J.L.C.b.M.V.n.M.N.n.v.x.n.x.v.l.v.F.N.g.j.l.k.h.x.h.g.f.k.e.t.q.w.",
"D.A.G.L.H.J.K.L.K.U.I.R.P.F.G.P.Y.W.^.W.Q.^.Q.T.(.^.T.P.I.K.K.A.L.I.V.N.m.M.m.l.l.z.v.v.z.g.x.h.c.b.u.d.l.g.d.k.r.d.d.d.e.i.a.a.",
"F.H.H.I.P.L.I.P.T.P.I.R.R.U.P.P.I.Q.^.(.)./.T.Y.Q.R.R.I.H.G.G.F.L.P.S.N.C.C.Z.b.j.C.B.j.d.u.b.h.g.x.f.k.g.u.u.s.t.f.i.y.w.p.s.s.",
"F.D.J.G.D.K.I.K.Y.Y.W.W.U.K.J.P.P.R.T.^.(.^.R.Q.T.I.K.K.H.H.S.G.F.H.Z.G.H.B.Z.m.c.Z.b.k.f.p.k.f.a.x.h.m.d.a.y.d.g.s.s.s.w.p.d.u."
};
