/* XPM */
static char *a2a257e7a9df4d16d7101897326bb49d4sASIunfF36AWmJf[] = {
/* columns rows colors chars-per-pixel */
"64 64 232 2 ",
"   c #37333C",
".  c #3B343D",
"X  c #3C393D",
"o  c #42363E",
"O  c #44393E",
"+  c #5C3837",
"@  c #763D3D",
"#  c #673D3F",
"$  c #2C3848",
"%  c #333543",
"&  c #3C3543",
"*  c #353A45",
"=  c #3C3A44",
"-  c #3B3649",
";  c #343B4B",
":  c #3C3C4B",
">  c #36364A",
",  c #2E3F52",
"<  c #273B54",
"1  c #363D50",
"2  c #3C3D51",
"3  c #373C59",
"4  c #423543",
"5  c #423B45",
"6  c #423649",
"7  c #423D4A",
"8  c #493D4B",
"9  c #4C3D45",
"0  c #543C46",
"q  c #563B48",
"w  c #473F52",
"e  c #553D51",
"r  c #673D48",
"t  c #753B47",
"y  c #1F435C",
"u  c #3D424D",
"i  c #33414D",
"p  c #2B4458",
"a  c #334354",
"s  c #3D4353",
"d  c #3C455A",
"f  c #3E4B5A",
"g  c #37485A",
"h  c #384B67",
"j  c #34546A",
"k  c #3E5C77",
"l  c #2C4460",
"z  c #3C627C",
"x  c #444146",
"c  c #44424C",
"v  c #4A434C",
"b  c #4C494D",
"n  c #494548",
"m  c #52444D",
"M  c #514C4F",
"N  c #584348",
"B  c #434452",
"V  c #4B4553",
"C  c #444954",
"Z  c #4C4B54",
"A  c #434A5A",
"S  c #4D4B5A",
"D  c #44465A",
"F  c #524B55",
"G  c #544D59",
"H  c #574756",
"J  c #49515D",
"K  c #555056",
"L  c #54525A",
"P  c #5A535B",
"I  c #5A575C",
"U  c #66464A",
"Y  c #764748",
"T  c #694555",
"R  c #754856",
"E  c #65535B",
"W  c #7C5858",
"Q  c #7C504F",
"!  c #464B65",
"~  c #584E63",
"^  c #4D5363",
"/  c #475569",
"(  c #545562",
")  c #5A5562",
"_  c #5B5A64",
"`  c #545767",
"'  c #425B73",
"]  c #455B78",
"[  c #555C74",
"{  c #635B63",
"}  c #665867",
"|  c #705264",
" . c #4B647C",
".. c #45637B",
"X. c #5A677A",
"o. c #6B656B",
"O. c #6E696D",
"+. c #66646A",
"@. c #716B6E",
"#. c #70666E",
"$. c #6C6A72",
"%. c #6A6976",
"&. c #726C74",
"*. c #736876",
"=. c #67717D",
"-. c #7A7579",
";. c #834B4C",
":. c #844A54",
">. c #875558",
",. c #91535E",
"<. c #8F605A",
"1. c #845965",
"2. c #8C6467",
"3. c #996368",
"4. c #84697A",
"5. c #A36B70",
"6. c #3E6582",
"7. c #496B84",
"8. c #476885",
"9. c #556986",
"0. c #567896",
"q. c #57728E",
"w. c #7C7A82",
"e. c #787A87",
"r. c #666F89",
"t. c #687FA2",
"y. c #837D83",
"u. c #837E89",
"i. c #987E81",
"p. c #5A839B",
"a. c #68829A",
"s. c #778595",
"d. c #5B85A2",
"f. c #6689A5",
"g. c #698BA6",
"h. c #6C8EAA",
"j. c #6487A4",
"k. c #718EAA",
"l. c #758CA5",
"z. c #6D92AC",
"x. c #7392AE",
"c. c #7C95AD",
"v. c #7699AA",
"b. c #6E95B3",
"n. c #7695B1",
"m. c #7A96B2",
"M. c #749BB4",
"N. c #7D9AB4",
"B. c #7C9CBA",
"V. c #7C94BA",
"C. c #718FB3",
"Z. c #78A1B9",
"A. c #85818B",
"S. c #8F888E",
"D. c #8A848A",
"F. c #918C8E",
"G. c #868A97",
"H. c #958D95",
"J. c #949194",
"K. c #93939F",
"L. c #A58497",
"P. c #8697AA",
"I. c #9295AC",
"U. c #9598A9",
"Y. c #829DB6",
"T. c #8A9DB3",
"R. c #849EB9",
"E. c #899DBB",
"W. c #8493B3",
"Q. c #989DB2",
"!. c #858BA2",
"~. c #85A0B6",
"^. c #8CA2B5",
"/. c #86A1BA",
"(. c #8BA5BC",
"). c #8DA6BD",
"_. c #8BA4BC",
"`. c #8FA8BE",
"'. c #8EA9BE",
"]. c #8BA8B6",
"[. c #93A4B5",
"{. c #9AA4B5",
"}. c #92A6BC",
"|. c #90A9BF",
" X c #92AABE",
".X c #9BABBC",
"XX c #99A8B7",
"oX c #9DB2BE",
"OX c #95B0BE",
"+X c #95A1AF",
"@X c #A3ACBC",
"#X c #A6A9B8",
"$X c #A3B2BE",
"%X c #ABB1BD",
"&X c #B1B1BE",
"*X c #8A9EC3",
"=X c #8CA5C2",
"-X c #8EAAC1",
";X c #81A4C2",
":X c #92ABC1",
">X c #91AAC0",
",X c #95ADC2",
"<X c #96AFC5",
"1X c #94ACC2",
"2X c #98AEC3",
"3X c #9AAEC3",
"4X c #95ABC5",
"5X c #96B1C5",
"6X c #9CB2C5",
"7X c #9DB3C9",
"8X c #9CB8C9",
"9X c #A4AEC1",
"0X c #A3B3C4",
"qX c #AAB4C3",
"wX c #AAB8C7",
"eX c #A2B6CA",
"rX c #A4B9CC",
"tX c #AABBCC",
"yX c #A7B8C6",
"uX c #B2BCCC",
"iX c #B6B8C6",
"pX c #AABED0",
"aX c #A6BBD0",
"sX c #B5BCD1",
"dX c #C1BFCD",
"fX c #ABC2CC",
"gX c #B4C2CF",
"hX c #ACC2D3",
"jX c #A9C1D7",
"kX c #B2C1D2",
"lX c #B3C8D8",
"zX c #C0C1D6",
/* pixels */
"x.n.m.N.m.m.N.Y.Y.Y.Y./.R././././._._._.(.(.).).).).).).).).).).).`.)./.).~.)._._._.=XE.E.E.T.E.W.*XB.M.M.v.c.c.c.c.x.z.z.z.k.l.",
"n.n.m.N.m.N.Y.Y.Y.Y./././././._._._.(.(.).).).).`.`.`.`.`.`.`.`.).1X`.:X).<X/.(._.=XR.=XE./.R./.=Xm.B.B.M.N.c.c.c.c.x.z.z.z.h.h.",
"m.m.m.N.N.B.Y.R.Y././././././._.).).).).).`.`.`. X X:X:X:X:X X X:X:X`./.).).`.(./.B.;Xb.h.M.z.z.B.=X=Xm.m.B.n.V.V.m.n.x.z.z.h.h.",
"m.m.N.N.B.B.R.R././././._.(.(.).).).`.`. X:X:X:X:X:X:X:X:X:X:X:X:X:X:X2X X_.:Xl...8.8.f.d.d.d.b.z.z.g.B.B.B.V.V.V.V.n.x.x.z.z.h.",
"m.m.N.Y.R.R./././././._._.).).).`. X X:X:X:X1X1X,X,X,X,X,X,X,X,X:X:X}.}..X.Xa / ] k 7.k z 8.7.p.z p.j.n.z.Z.M.N.m.W.m.n.n.n.x.z.",
"N.N.Y.R.R.R./././._.(.).).).).:X:X:X:X1X,X,X<X<X<X<X2X2X2X2X2X<X<X<X6X3X0X; a f g g g  .] ' ' 7...j 8.a.0.z.Z.M.W.W.W.m.n.n.x.x.",
"N.Y.Y.Y./././._._.(.).).).:X:X:X1X1X,X<X2X2X2X2X6X6X6X6X6X6X6X6X:X7X.X.X@XB C c : : A s s d s d  . .9.] 8.d.M.Z.Y.W.c.v.v.v.x.x.",
"Y.Y.Y./././._.(.(.).).:X:X:X1X,X,X<X<X<X2X6X6X6X6X6X6X6X6X6X6X6X7X,X0Xd B :   5 & = = = - : : : ! / ! 3 ] j ] ] I.U.U.P.v.v.c.n.",
"R.N.Y././._./.(.).). X:X:X:X<X<X2X2X2X6X6X6X6X6X6XrX6X6X6X6X6X6XeX0X=.u 5 5 o o 5 & c V B 2 2 D [ ` r.3 ! [ ` } 2.3.5.i.J.P.c.n.",
"Y.(./.R././.).`.).).:X:X:X,X<X2X2X6X6X6X6X7X7X7XeX6X6XeXrXeXeXeX0XqXu = =   5 5 = B s d / [ 9.^ %.V &X~ > - 4 R 5.5.3.2.-.G.!.P.",
"c./.Y./.:X/._.).`.:X:X,X,X2X2X6X6X6X6X6X7X7XeXeXrX6XeXrX0X0XeX0X=.B = . o 5 5 = u ` ' ' 7.8.k < S &.S : = & | 1.,.;.W E I *.4.L.",
"/./././.).).). X X:X,X<X2X2X6X6X6X7X6X7XeXeXeXeXeXeXrXrXeXrXrXyX%.: 5 . o o & C f g p y y 6.q.0.1 > ; * c v 0 U T T H.U.K.u.e T ",
"R.R.)./.~. X X X:X:X,X2X2X6X6X6X7X7XeXeXeXrXrXrXrXtXrXrXpXtXeX0X=.B & 5 5 . V s g < j 7.8.8.z k q.9.d s u u % #XI.Q.I.P.T.P.I.!.",
"_.R./.).`. X). X:X,X2X2X6X6X6X7XeXeXeXeXrXrXrXrXtXpXrXtXtXeXtXkX=.B 7 = & & Z : $ i p p p j 7.l < 3 d ; $ i XXP.)._.E.Y.m.R.m.m.",
"Y.:X/.).:X_.:X2X,X2X2X6X6X7X7XeXeXeXrXrXrXtXtXtXtXhXtXhXtXtXlX0Xf A % = & 6 & : ; $ a a h $ d ; C % u ; [. X_.:XE.T.Y./.B.N.c.N.",
"h T.[.^. X}.6X}.,X2X6X6X7X7XeXeXrXrXrXrXtXtXtXtXtXhXtXhXtXhXpXa./ a A > 7 4 & - * % * $ B : : B X = ; XX X}./.).)./.R.Y.R.B.B.n.",
": s {.XX[. X X X,X6X7X7X7X3XrXeXrXrXaXrXyXtXfXfXfXtXkXpXjXjXl.a.0.p / d C & 6 & = * * = = 6 6 - * ; f XX X:X/.)./._.R.R.Y.B.N.m.",
"* % B U..X.X[.6X X6X6X6XaXrX0XtXrXtXrXyXkXuXtXfXfXlXpXlXa.k.n.x.z.a.j / d D s s B * = = 5 & & - ^ s .X.X[._.:X)._._./.R.Y.Y.B.m.",
"; u ; A d {.0X.X6X8X7X8X7XeXeXtXyXyXkXuXwXpXkXkXjXl.k 0.q.8.t.C.0.f.7.t.] ] 7.q.a.X.` B V F K Z ^ qXXX.X X X(.:X(._./.R.R.Y.B.N.",
"+X$ ; 2 % D @X.X.X6X5XrXrXrXpXyXrXfXyXtXkXsXzXsXe.! 9.7...h 9.h ..] l 9.[ h q. .[ D B G ) G Z c s @X0X}.,X X).(.(._._./.R.Y.B.B.",
"XX[.1 > w > B D 0XoXrX7X6XrXyXpXjXrXlXtXgXzX*.| | e B i ! A 3 ^ ^ s V V w 6 8 H H H H 8 n c n = A .XXX3X,X1X).`.).(././.~.Y.B.N.",
"^.XX.XI.- w : % s J $XtXeXrXyXtXjXjXfXgXiXF q r 1.T N N m } E m 9 0 U N r R 1.R r q 0 m c = & : U.0X3X X X<X1X).).(._././.Y.B.N.",
"). X}.XX@X% = c u C {..XtXyXtXyXhXtXkXqXZ 4 5 N U + :.>.Y >.W + Q Y 2.U Y :.>.Q r N 9 n = : - > qX0X6X6X1X`.:X-X=X(._././.Y.N.N.",
").). X3X@X#X= = = = C C qXwXwXuXtXlXs c 4 5 X X n N ,.t @ @ Y ,.;.;.>.+ 2.# Y r U N v V & - & 2 0X2X6X,X7X`.1X-X=X(._././.Y.N.N.",
"-X:X}.2X.X@X( ) 5 . = V B ; uXuXuXu B : & 8 v x x X O 0 U U :.:.t r U E N 0 0 v F Z V = & 7 & u 0X6X6X6X<X1X1X-X).)./././.~.Y.N.",
"(.`.:X5XXXX.( &.v P 5 4 & c C uXiX= : % V V P n = = = . o q R t r q 0 N 8 5 V c _ ( = V 5   = C 0X6X6X5X5X,X1X-X).)./././.~.Y.N.",
":X-X<X]. XoXC = V F E F V 7 : C B = c : C L v v . 5 = = & 6 e e e o 4 o F v L c n F G x 5 b b c 0X6X6X5X5X1X1X:X).).)./././.Y.B.",
"-X=X-X6X X.X@X` A.m H P P G ) % & = V Z I Z 5 . 5 5   : & 6 7 7 6 8 G G P F +.&.o.m 5 K c c 5 &X0X6X6X6X,X,X1X:X=X).)./././.Y.Y.",
"/.:X-X X7XoXX.u o.*.G F F G L = = c v G V : = Z & 5 & 5 4 4 =   7 ~ ~ ) V I &.S.@.@.c c ^ ^ ` sX0X6X6X6X,X,X1X:X}.}.)._././.R.B.",
"<X).:X,X XoX$X` _ c & G G G F V c Z P F V c Z % = = & 5 o . O 5 ) ~ } 8 #.O.F.D.n D.o.Z B ` ! 9X0X0X6X6X,X,X1X:X}.}.)._././.R.B.",
").}.6X X0X@X@X( B e.Z 7 v F v v 7 ) c V 8 V & 7 c =   = = X V G L ( c n n Z c x O.H.*.*.7 ; yXrXeX0X6X6X,X,X1X:X}.).)._._./.R.B.",
">X:X}.3X.X@X+XC e.= & F n & v v ) G V 5 5 4 v c X = = = c V G v c B c Z K b v b n $.#.*.= : yX8X7X6X6X6X2X,X1X:X}.).)././.R.R.B.",
":X).2X2X3X.X$X#X( n F = 5 F 5 c G c 7 & 5 v x X = X : c ) ) v 8 o.y.w.n o.K b n n x v V u @XyXeX7X7X6X2X,X,X:X X).)./././.R.Y.Y.",
").}.,X}.2X0X{.B B u.-.5 { & V F c = 5 v v   5 7 = c G ) Z v 5 b b x x -.J.@.@.M n F c c s {.0XtX7X7X6X2X,X,X:X X).)._././.R.Y.Y.",
").:X X:X7X}.{.^ e.Z w.w.v v F c V V v v 7 7 5 = G Z _ 7 Z F G v = c O.J.-.A.O.M K P c : A XXtX6X7X7X6X2X,X,X:X X).)._./././.Y.Y.",
").`.:X:X:X2X3X! B C A.c Z v Z c 7 c 5 5 5   n Z S S B S &.$.y.n F x I -.-.O.P S.S.&.c : X..XeXrX7X6X6X2X2X:X:X X).)._./././.Y.Y.",
"(.-X).<X<X:X3X3X9X` J B V B ) B v = 5 5 & b c ) B B c %.$.F.&.F M x 5 v M M J.J.*.o.7 C 9XtXeX6X7X6X6X2X<X:X:X X).(./././.Y.Y.Y.",
"`.(.-X<X-X<X2X3X9XqXB ` c V V c =   & = 7 F V 7 G B B w.J.n X y.F I n v v O.&.+.$.B s s wX0XeXeX6X6X2X,X,X:X:X`.)._./././.Y.Y.Y.",
"_.:X`.-X<X7X:X,X0XqXqX%X_ c c = = = v v { 5 &.F G c c c v $.J.F.-.o.H.v v c x v c C s wXwXtXeX7X6X6X2X,X1X:X X`.)._./././.Y.Y.N.",
")._.`.-X<X-X7X2X3X@XqX%X7 B & : c c I v v *.o.G F F F Z c x F.O.P O.H.K Z Z Z = c s uXqXeXeX7X7X6X2X2X,X1X:X X).(._./././.Y.Y.N.",
"~._.`.-X-X1X<X2X3X@XqXB c = 7 c F L x 5 { #.y.F b K +.{ b b O P { A.$._ V c * : B G.wXqXeXeX7X7X6X2X<X:X:X X).).(./././.Y.Y.Y.N.",
"^._.`.`.-X1X,X2X0X@XA : % : c : c c n _ y.y.H.F K D.A.x o.@.O.b b c = c : %XiX%X{.wXwX0X0X7X7X7X2X2X,X:X:X`.).)._./././.Y.Y.N.N.",
"^._.).`.:X:X,X2X.XXXA ; u ( qXC * : V +.&.y.S.G o.A.D.b v +.o.5 c : C #X^ qXuXqXwXwX0XeXrX7X5X5X2X,X1X:X X`.).(./././.Y.Y.Y.N.N.",
"/./._.`.-X:X:X X3Xa $ f s.qXqXqXwXqX% u c &.v o.y.&.x X 5 = . c : uXuXyXuXtXeX0X0XeXeXeX7X7X7X5X,X,X:X:X`.).).(./././.Y.Y.N.N.m.",
"/./._.).`.`.:X X Xf , 0X.X0X9X0XeXqXwXs.= c c w.$.b = = = V c c G.wXuXyXyXrXrXrXtXeXeX6X2X6X6X,X<X1X X X`.).(._./.~.Y.Y.N.N.m.m.",
"/./._.(.).`. X Xg a eXXX.X6X7XrX6XeX0XwX%X= u O.o.= c iX& 7 V & uXtXyXrXpXrX6XrX7X6X6X7X6X2X,X,X,X:X X`.).)._./.~.R.Y.Y.Y.N.m.m.",
"R././.(.(.).`. X.X.X}.6X6X2X7X5X7X<XtX0X$Xu = B * u &XiXiXS : : 9XtXrXrX7X7XrX6X7X7X7X7X6X,X:X2X:X X X).).)././.R.R.Y.Y.N.N.m.m.",
"R././.(.(.).).}.^.6X X X2X<X5X7X7X7X7X0X0X@X= = * * iXqX: : S > wXrXeX6XrX8X7X7X7X7X2X,X2X6X,X X:X X).).)./././.R.Y.Y.N.N.N.m.m.",
"Y.R././._._.).).}. X X:X,X<X<X5X5X8X2XeX0XqX- = * {.qXqX; = c * qXeX7X7X7X6X6X7X6X6X5X,X<X,X:X:X:X).)._././././.R.Y.Y.N.N.m.m.c.",
"Y.R./././._.).).).`.:X:X:X,X<X<X5X X7XrX6X9X- & * XX0XqX2 = % = 0X7X7X7X7X6X6X6X5X5X,X,X,X1X:X X`.).(./././././.R.Y.N.N.m.m.c.c.",
"Y.Y.R././._._.(.).). X:X:X:X,X,X6X X7X2X3X0X: - ; .X0X0XqX: = * 0X7X6X6X6X6X6X,X,X,X,X1X:X:X X`.).(._././././.Y.B.B.N.m.m.m.n.x.",
"Y.Y.Y.R./././._.).).).`. X:X:X1X1X5X7X:X6X.X> & @X$X6X6X@X: : #X0X2X2X2X,X2X6X,X,X,X:X:X:X X).).(._././././.Y.Y.B.B.m.m.m.c.x.x.",
"N.N.Y.Y.R././././.(.).).`. X:X:X:X:X4X2X6X}.: : $XOX X6X9X; > @X.X,X2X6X,X X1X<X1X1X:X`. X).).)._.(./././.Y.Y.Y.N.N.m.m.n.n.x.x.",
"N.N.Y.Y.Y.R././././.).).).).`. X1X).>X:X:X3Xs $ [.OXOX X3X9X; ; 6X6X2X:X,X:X X:X:X`.`.`.).).)._._././.Y.Y.Y.Y.N.N.m.m.m.n.x.x.x.",
"m.N.N.Y.Y.R././././._._.(.).).).).).4X:X1X2X$ A 0XOX X,X3X9X; ; }.3X:X}.,X,X`.`.-X`.).).).)././././.Y.Y.Y.Y.N.N.m.m.n.n.n.x.x.k.",
"m.N.N.Y.Y.R.Y././././._._.(.).).).).>X).<X X; .XXX].1X1X3X}.XXi s.}.3X X:X X).:X`.).).)._._././././.Y.Y.Y.N.N.m.m.m.n.n.x.x.k.h.",
"m.m.m.N.N.B.Y.R.Y./././._._.(.(./.}.:X(.`. X$ XX[.].1X:X_.3X}.i s.}. X}.).).:X(.(.(.(.(././././.R.R.B.B.N.N.m.m.n.n.x.x.x.x.h.h.",
"n.m.m.m.N.N.Y.Y.Y.Y.R./././._.(././.R.<X(.).s {.[.'.~.<X:X_.}., $ }.}. X_.).)./.(.(._./././.R.R.R.R.B.N.N.m.m.m.n.n.x.x.x.k.h.h.",
"x.n.n.m.N.N.N.N.N.Y.R.R././././.(./._.(._.).$ Q.[. X_.(.).>X_.[.a [.^.~._._.~.-X/././././.Y.Y.Y.Y.B.N.m.m.m.n.n.x.x.x.x.z.h.h.h.",
"x.x.n.n.m.N.m.m.N.N.Y.R.Y.Y././././.(.Y.~.}.; Q.[.^._.).E.).).^., $ [.^.}.~./.Y./././.R.Y.Y.Y.Y.N.N.m.m.m.m.n.n.x.x.x.k.h.h.h.g.",
"x.x.x.n.n.n.m.m.m.N.N.Y.Y.Y.R.Y.Y.~.R.-X/.T.; [ T.^.)./.4XY.~.^.s., .XP.T./._./././.R.B.Y.Y.Y.N.N.m.m.m.n.n.x.x.x.x.z.h.h.h.g.f.",
"x.x.x.x.n.n.m.m.m.m.N.N.Y.Y.Y.Y./.Y.Y.R.(.T.; : T.^.).R._.)./._.}.a $ ^.E.~.R.Y.R.B.R.B.Y.N.N.N.m.m.m.c.n.n.x.x.x.k.h.h.h.g.f.f.",
"k.k.x.x.x.n.n.n.m.m.m.N.N.N.N.Y.N.N.(.Y.(.P.; ; a l._.E.E._.Y.~.P.^., P.E.T.Y./.B.B.B.N.N.N.m.m.m.m.n.n.x.x.x.x.h.h.h.h.g.g.f.j.",
"h.k.x.x.x.x.n.n.n.m.m.m.N.N.N.N.B.N.N.N.N.^.I.U.; , E.R.E.R.N.~.T.P.a p W.R.Y.N.N.N.N.N.m.m.m.m.m.c.n.x.x.x.x.k.h.h.h.g.g.f.j.j."
};
