/* XPM */
static char *cropped__1_1695398315[] = {
/* columns rows colors chars-per-pixel */
"64 64 94 2 ",
"   c #070005",
".  c #080005",
"X  c #0D020B",
"o  c #0D080E",
"O  c #11030C",
"+  c #0E0C11",
"@  c #130610",
"#  c #140A12",
"$  c #1A0C16",
"%  c #1E0F19",
"&  c #161517",
"*  c #181317",
"=  c #171719",
"-  c #1C141B",
";  c #1D1A1D",
":  c #22151E",
">  c #221B1E",
",  c #1E1C21",
"<  c #251721",
"1  c #241C23",
"2  c #291D26",
"3  c #2C1F28",
"4  c #1F2022",
"5  c #242225",
"6  c #292327",
"7  c #262628",
"8  c #2C252B",
"9  c #26292A",
"0  c #2C2A2D",
"q  c #31262E",
"w  c #312B2E",
"e  c #2E302F",
"r  c #2E2D30",
"t  c #332630",
"y  c #332B32",
"u  c #392D36",
"i  c #2E3133",
"p  c #333235",
"a  c #383437",
"s  c #363837",
"d  c #363538",
"f  c #3A353A",
"g  c #363A3B",
"h  c #3C3C3D",
"j  c #41373E",
"k  c #403D3F",
"l  c #3D403F",
"z  c #3E3E41",
"x  c #423E42",
"c  c #493F46",
"v  c #3D4142",
"b  c #3F4847",
"n  c #3F4749",
"m  c #424244",
"M  c #494446",
"N  c #464847",
"B  c #454649",
"V  c #49454A",
"C  c #454A4B",
"Z  c #4A4B4D",
"A  c #504C4F",
"S  c #47504F",
"D  c #4A514F",
"F  c #4D4E51",
"G  c #524E53",
"H  c #4D5252",
"J  c #4F5857",
"K  c #525354",
"L  c #585357",
"P  c #545658",
"I  c #5A565B",
"U  c #55595A",
"Y  c #5A5B5D",
"T  c #605A5E",
"R  c #5C5E61",
"E  c #635E64",
"W  c #546060",
"Q  c #5E6263",
"!  c #5D6969",
"~  c #626365",
"^  c #646867",
"/  c #656669",
"(  c #69656A",
")  c #66696A",
"_  c #6A6B6D",
"`  c #706B6F",
"'  c #6E706F",
"]  c #6D6D71",
"[  c #6F7372",
"{  c #707173",
"}  c #87888A",
"|  c #8D8E8D",
" . c #8E9291",
".. c #949695",
/* pixels */
"y k m m l l M k m h m m G 7 0 w 8 8 u 8 8 y t r z z < 1 r t 8 8 t t 8 t z t z , 0 Z Z H H D H D W ! H ! J z v v m z N c x M h k ",
"w M k h k N k m f m m k V 5 6 ; , 2 t r t y y 8 t z 8 2 8 t z 2 1 z 8 t 8 t 3 , q m m h h D S v H b C J ) d z v z z m h h x h k ",
"6 e k N l k h h k m h l M ; 0 0 , < < , , 2 t t 8 t , < 3 t z t 3 8 z 8 8 8 t 1 q 6 k m m C x v z H v S I g 9 m z v z z k M h m ",
"5 > w h 5 7 e s k l h m m = 5 2 8 u 8 t < , < , y t 1 < 1 1 2 1 1 , 1 7 7 7 t , 9 8 M k h h h x B z m n B r 7 9 z z r 0 9 g h s ",
"l k N K A l N m v m m m V m A P K P F H z h z z z z z z z P J z z z z z z z z z 7 8 f k x y d c z x z x z z z P H Z m J l v N b ",
"Z A N A A A Q m m m Z Z Z H Z Z C H P R z B v b S F J H H H H n ! z z z z F z P - 7 q q y q r 8 t t x c z V F F H C J ^ m v v C ",
"k k N N N K ^ s m z m v m m m m C S S J 9 z v v z z S n n z z J C 9 z z z z z c r 1 , 1 2 1 2 < < 2 % 2 2 F B n v C Z C 9 z l m ",
"l m l l l N A s 0 z h m m Z K h z v S H 4 v v v z z n z z n z z z r z z z z z F q 0 8 q 8 c x 3 r q u 8 r z z z z v m V p v 0 z ",
"l m k h l l K s i 9 h z h N Z Z l l M K 0 h x m m h k h M h M m F r z 9 e h k k m w p y 8 8 c 2 y 8 r 8 7 z c z m z B G r z y u ",
"e l k k m k H 9 p 5 g d d g z m k M f K 6 h x a a 8 8 h M x h k V 7 8 d 6 a e p a h z h x z F p z z r z r z z z z z c F 8 u t z ",
"6 e p e 9 l K ; 4 4 i 7 7 0 y 0 6 e k D > 0 9 ; 5 5 6 r 0 0 w a M > , 2 0 0 7 9 5 p r r p z K 5 r r , 4 5 7 i p q y z c 1 < < t ",
"K A N D K Z P Z K / ] ) P H K K L K A J F P ` K / _ / K Z K D D K A F F ( ~ Y _ K K Z F C F / m z C z ( ! z , X + X O @ o X O O ",
"l l k A Z M K H H H V I Y h m s l l K m N D D A Z Q ' l l l N D m K G Z K P V ~ h m h C H m K Y H C F H E u % 1 < , < < 3 < < # ",
"0 N m s m h h l h N V Z Y 9 m m l N l l N m l l Z D Y p l l l l k k z v m m F Q r v h l m h m s z z F F R r 3 1 3 u y t 3 1 1 1 ",
"0 k l m h l B m h m m x Z 9 h x l l l l l m l N l m K e k l l m N h m v m v N C 9 g m m h m k s z z C c c 8 3 3 t t 3 2 2 3 3 8 ",
"6 k l l x m m h v m x m N 0 y m m s 6 l l l k h l m Z 9 h m l k h m v v z m v Z 9 d v m x w 0 V n F z z V 8 q t t t t 8 y < , , ",
"> w a x 8 8 8 f z c c m M - ; w M 7 z c 8 r z z x x V 0 0 m m 0 q 0 z B h m z F r 0 y x q c : u c z V c c 8 q a t 8 u q u t t 7 ",
"> > 9 0 u 7 y 8 9 r 6 t V = 4 ; 9 0 9 r r p 0 0 7 v G 7 y 5 0 ; ; 2 0 y 0 y d F 7 r 0 t x 1 u q 8 8 y 7 V r 2 : : : < 2 : < < < ",
"D H U U Q H ^ Z n S S n D U W ) _ / ~ _ B B Z Z H F B g Y ~ ) K _ 9 = ; 1 & , & 1 , 1 1 < < $ < # @ 2 2 , q z y G L ( E 3 X @ X ",
"N C S S J J Q g z v n n v C N C B F J I i n z z B U g v Z Z v Z Z h d v h d z d p p t 8 3 8 < $ 2 1 8 y 3 u z z k k A I 2 . @ O ",
"v v l l g C J g z z n z z B S z n v C H 9 v v n H H i v g z n n V s 7 ~ R Q Z z z c d 8 t 3 3 O % < < 8 y y z r z c x c y # @ O ",
"v h N k g l F s 0 , z z z P F F z b v B r z n ! v v H v v z z n V s 0 5 ] G B z c z z t 8 u : O % t < t , 2 B 9 r z z x u < $ O ",
"h k j c M x Z 0 z r 7 c z z x c m z z F 0 m P v z 0 F z z v z c V 0 0 p R c z c x x z q t 3 2 O % u - , 9 y z z z z z x 3 2 % X ",
"w m a k f x K q 8 u z y 8 y z z f z h G 7 0 m p 0 r r F F z z z m 5 7 i G F z x x x t q 3 < < O % - u 2 8 y r z z z z c t t : 2 ",
"h h k l z V Z h B C V m F , 9 r r 7 z m y h z a d y 9 h z C z z Z 9 1 0 m h x x z u 3 % $ < < q t z c c z 3 8 < 2 3 3 y 3 2 7 , ",
"m k l m C C P S C J P B U 5 r m h G F Z K K F H F ~ 0 m z z H C m V 9 = 0 0 6 y X   # o , 3 t u z C P E V z 8 3 q t t 8 y r t 8 ",
"e m l m m v S n b C H C _ 9 v H C ) ) ) ^ Q _ / Q U F i z n z n m m m M 2 6 x T o o @ , < q t 3 8 z z ( G z 8 z t 3 z c t z c n ",
"7 m g h v v b z C H H H ) 0 K D K C C H b J ^ H ) _ C p z z z z Y V m k h x A G X o 3 2 < < < t z z z E G t t 3 t t t t 8 0 8 3 ",
"e h x m B z h m z B Z K Y 9 M k b v S H N C H D H W Q i v z n S C m v v V m h G o , , , 2 < 8 8 z z n H F z 2 , , 3 r 3 u t y y ",
"0 d m f p 5 0 h z h m m L q 8 k m z v l v v v v N J J r i n z p d s m v s x M V + 7 3 t 8 z y z z z S z z , 8 7 2 8 2 8 - , 8 2 ",
"y 8 t , 5 , r 9 p 0 0 r M 6 w c h m m m v m m m h B P 0 9 r d 8 9 7 i r i 0 s K 4 7 , , 7 - 2 , , , r 9 z = , 7 8 8 2 < 2 < < < ",
"K A I ~ / F Q K F H H K G 5 p 6 x N q y z x x z m m B G ! / ] G ) / ^ p m m m m z z z c z z V F P G B F J H n _ R R ( ( 2 < O @ ",
"D D G Z F F ~ z c z V c V , , 8 t 3 t t t 8 t z z z , H H C F H P m ^ ' Q Q ^ Q ! Q ~ ~ / _ } k m k m D C H S C H Z G E 1 2 < < ",
"l l m m Z P Q g z C V z x 0 1 1 1 < < < 1 2 - 2 , 7 H n z n z F H V s N Z Z ^ Q Q _ [  ...| ^ p h k k k N C D b z v N L < 1 2 3 ",
"k N m g v v C d r r z z Z z t 0 t t z z , 8 z 3 2 r z z z n z m m p h k s N l N c z z z h P | w k l l m b z v g v B B Z > 6 q q ",
"l h h m l m G 9 z 0 z c x x z z c z z G 8 z c z c t 2 y c z m z V s w a M M w 6 z z z z m V ) e s M l l r 7 s m h v x Z 5 q q q ",
"e m N l z z Z 4 9 0 z r 0 8 x m z z z G 8 z z y t z 2 z x m x x m 0 9 y 0 a M w 8 z z z z c E 8 k N 0 0 9 h m M m l M A ; 0 0 w ",
"6 6 6 e 7 z F , , r 7 0 y r q q z 2 z G , 8 t < 4 - r 8 q 0 7 y Z 1 > > 6 w 6 6 t t 3 8 z z ] , > e = , ; 5 9 9 6 6 s N ; > ; > ",
"N D N A F Z G V P E ] R I 1 1 1 , < , , % 1 , < < < , c G V G Z Z r 9 q > : > q < 8 1 2 < 8 z z T Y K E ~ K Z G A A Z L m A K ~ ",
"s m l N Z z C Z V C V R I r y 0 t 3 z u t u z u u z , z z c B B c B h a w j q q t < z 3 z z H F Z D B K Y m x z m N M l Z D N N ",
"e m l m h m m m m h m m G 8 t t t t y t y y t t x c < p c z z z z B z z C V G L 8 x z z z z z z m m z z K a x m k m h m l m s m ",
"0 M k l N m m h z v m h m 1 7 : , 3 3 3 t t t y t x < y B B z B m z z z z B V V t z c z z z n z z m z z x a h x m k M h m l l l ",
"6 e m m l z m h z z z m V 1 0 9 , , , 3 < 3 3 t 3 t 3 t y z z z z z B z z c z F 7 z c z z z z z z z B v m d 5 m m k v z l l l l ",
"4 ; e m 9 0 i p z h h v m ; 5 7 t t t 3 , < 3 1 u 3 < 3 r z x y r r z z z z z S 7 , z z r 7 z i d z s h z 0 p 9 l s e e 9 s l l ",
"s d h B g p g g z g z v m d z z z x x z < , $ $ $ < % % , < - , , z z z f z v F 9 z n n z z F r z h p z K s 0 z h h B m l h h s ",
"B F m F K Z ~ m m z B B F F F G G I L R 2 3 < 3 < < < < < , @ @ X z z c Z C z H S H H H H J ) B z z P m v Y v Z F K Y R l m N Z ",
"m m v B C F ) g n v m m z z z z z F F G - 1 < 3 t t t 3 < 3 < - X 3 z z z m v v z z z n S C H y h M k m l m 0 n v F F Q r m d m ",
"v z v z z Z Z p r z z m m F P z z z C F 3 < 8 8 t t t < t u 3 2 % 8 x q z z m C H S z n z F F i m h l M v g 5 d v z m P r f d x ",
"k m k h M h K p q 9 x h z G F F z z c G 2 8 y t 8 2 1 < 2 3 q < : 6 j w q h h z Z Z m b m s P i h m k l k p Z w s N m Z r h y h ",
"s x k h h z K 0 s 6 f s h f x B c z z F , r t t t 8 t t 3 3 < < * 2 q h 8 h z d f x m z h h K 0 e l m h 8 h k M M M V Z 5 u y u ",
"5 e s 0 0 h H , 7 5 0 9 9 9 r r 9 i z F , , 1 , , 7 , , , 2 , , * - ; 0 9 7 9 7 9 9 9 e g v Z 0 e e e s 0 q 0 0 y 4 s Z 6 1 2 t ",
"K D N K J Z U C Z ) _ ! H F J F J F H J F P ! R ) ) ( F F P Z G K A G Z _ _ P ^ J J H H C N K C T ' ` D ( 0 6 ; 5 5 4 4 5 y y 9 ",
"l l z C H B H K D D D K U l v s g m H B F N K K H E / z z z C F M K H D D H v _ v v v v C Z H H D M V K L u ; ; 5 N m N M m k f ",
"e N z z v z v h m l Z Z Y 0 l N v C v z B m v v C H ! p z z z c h m s M m V H Q 7 g v l v v V H m l B Z G 9 M Z m Z m N Z l m m ",
"9 z x x m x x x k m m k Z 6 s h h m g m z h h m z V P r z z c z x x m x x h V G 7 m v z m m m v k m m z x f Y G Z D D N N N N M ",
"9 f x x z z c z k x k c M 0 p M B a 0 m m v m z c z V r z z z B M x h M z B h Z 7 m z v m w q p m h x m V q y ~ ~ D N A ~ T l k ",
"1 r p z w q 9 a k M k M M ; ; w z 0 h h t p z m h v H 5 r v h r 9 q x M h m h G 0 r x p 0 8 y m c m z m M q 4 7 0 {  .~ v l l M ",
", , 8 0 a 9 y 0 9 2 0 0 M ; ; ; i 0 9 0 9 0 0 0 9 h K 0 5 9 9 ; > 5 9 0 q 9 h Z p 0 9 5 0 0 0 7 9 6 0 r m 9 5 0 e h U h N k M e ",
"F F U Y Q F ~ Z Z K H C A D Q ^ Q ) Q ^ H H H C H Z H H W ) ^ P / F Z Z Z K B K S W ! _ _ ! / Z C K A V A y * 1 9 s K m s m a 0 ",
"B F H H K K Q g h h Z C l D N A S J P W p g b g C N Z H C C C H H h h m z C v b N H N C Z S Y h z B x m A Z 9 1 0 w m s k s e k ",
"v l g l l Z P g d h b v l N D m m v N H 9 v v v v v N n h v v m C 0 m p h v N C C C m B N C D 9 g h m v M k x a 4 0 r 6 6 m k k ",
"v h m v h h H g 9 7 h z m J D Z v v v C 9 m h m v h v z h m v B A 7 M 0 0 h d v Z Z C b l m V p B z h m k k M k x v z G > k k M ",
"k m l k M k Z 7 z 0 5 m x z m M h c x Z 0 v x m m y 0 f M k k c M y w k 0 f z m m m x h l b Z s g N s M w a M N m x N V 1 8 x u ",
"6 m h k f k G 0 0 y c 8 0 0 x k x h k G 6 s k t 9 0 q h c a M k M 2 : q q y u 9 8 h z x h h V e s k 9 7 6 8 x f z z h Z 1 > u j "
};
