/* XPM */
static char *cropped__2_1695398314[] = {
/* columns rows colors chars-per-pixel */
"64 64 106 2 ",
"   c #050005",
".  c #0A0007",
"X  c #0C020A",
"o  c #11030D",
"O  c #12080E",
"+  c #0F0510",
"@  c #0F0A10",
"#  c #140511",
"$  c #190713",
"%  c #130B13",
"&  c #190C16",
"*  c #1B0B18",
"=  c #141216",
"-  c #191317",
";  c #171619",
":  c #1C141B",
">  c #1D1A1D",
",  c #22151E",
"<  c #221A1E",
"1  c #1F1D20",
"2  c #241621",
"3  c #231C22",
"4  c #2A1C25",
"5  c #2D1C28",
"6  c #1F2022",
"7  c #242225",
"8  c #292226",
"9  c #262827",
"0  c #272529",
"q  c #2B252B",
"w  c #26292A",
"e  c #2C2A2D",
"r  c #31252E",
"t  c #302A2E",
"y  c #2C302F",
"u  c #2D2430",
"i  c #2E2D31",
"p  c #332630",
"a  c #322C32",
"s  c #382E36",
"d  c #3A2E38",
"f  c #2E3132",
"g  c #333235",
"h  c #3A3236",
"j  c #363837",
"k  c #363638",
"l  c #3A353A",
"z  c #363A3A",
"x  c #3C3B3D",
"c  c #40353D",
"v  c #403C3F",
"b  c #3D403F",
"n  c #3E3E41",
"m  c #423E42",
"M  c #483E45",
"N  c #374140",
"B  c #3E4142",
"V  c #3F4847",
"C  c #434244",
"Z  c #484347",
"A  c #434847",
"S  c #484A47",
"D  c #464649",
"F  c #49454A",
"G  c #454A4B",
"H  c #4B4B4D",
"J  c #514D4F",
"K  c #47504E",
"L  c #4C504F",
"P  c #4E4E51",
"I  c #514E52",
"U  c #584E57",
"Y  c #4D5252",
"T  c #4F5855",
"R  c #525354",
"E  c #585657",
"W  c #545857",
"Q  c #565658",
"!  c #59565A",
"~  c #555A5B",
"^  c #5A5B5D",
"/  c #605B5F",
"(  c #5B615F",
")  c #5D5E61",
"_  c #615E63",
"`  c #5E6263",
"'  c #5D6864",
"]  c #636365",
"[  c #666867",
"{  c #656669",
"}  c #6A666A",
"|  c #65696A",
" . c #6A6A6C",
".. c #6F6D70",
"X. c #726C72",
"o. c #737576",
"O. c #7F8082",
"+. c #888387",
"@. c #8C8B8E",
"#. c #8E908E",
"$. c #8E8E91",
"%. c #928D91",
"&. c #8F9190",
"*. c #929395",
"=. c #959698",
"-. c #9EA09F",
/* pixels */
"x C b b b C c Z b Z F r < < r p p p 5 5 5 5 4 : o a v Z x n Z B C m C A I +.a r q a u p p a p u p M m 4 q s n z n n Y G B C A Y ",
"A x b C A A Z v C Z H 8 8 p p r 4 2 , , 5 5 5 2 O k v m n C x m v C x x Z %.6 r : 3 0 p p u p u q p M u i q C P D H Y H Y L L  .",
"b C b q 9 j v m v v F 8 r t h r a q p 3 4 2 , q O t h Z n l i n A x Z m v ..- q q 3 3 3 1 : 0 a p a 0 4 1 w g z Y ) D Y L W  .A ",
"b 9 t y e x x x v v C e 9 7 9 9 q 0 e 7 q q 4 0 . 3 a a q l h w t Z k x C } 7 < q u e i q 3 1 2 3 u u : 3 e 8 e x C ..) -.[ j b ",
"C E E b J S x A x D G B b L L S G K C x C b b c x 8 0 4 0 0 9 3 4 3 e i h x b v m I I m H m x v l m m l F 3 8 0 n x n x o.A C t ",
"J C S J [ x Z S V P Y Y K L K K Y ' B B x b J R Z C a 0 u q u u e a q i q J H J A H Q H  .b A S Z Z F x I Z H e e x n D b x y e ",
"b J T L [ j b b n B C P G B C G K Y 9 b C n b c E I Z M C i q i i q m M l n x C D C H Y { g b b R q Z t Z Z x I H e a C C a e Z ",
"b b j S L e b b n n n n A B C x b A 9 C m C v F v C m I P P P d m m Z n m C C C n C n S H e A b m I q q q b A m F H e q i 9 C n ",
"b b b b R f x C n B C j C C m Z S S e b C v b b m n C D C Z Q k n n m n m C n B n C n x R y b A C e e 1 e x k D F S e Z x m C k ",
"b b B b L 9 k C k a 8 a m m v x x R e g x c l 8 q n n n n n B k w n n n z a g C B B z B K 9 w b e 7 1 3 e g k D x I e g x x a i ",
"y 6 9 b L 6 9 i e e t s q h s t h R i 9 t r q a q p i u w k C i 1 u i i e 7 w f e e e b ~ 6 9 g e e w 9 a g e q x F k e e e i i ",
"A ( L H R L ) { } R } t < < 8 : 7 > q h g t q : 3 I Q P P R L L R } ) )  . .Y R R R K G [ A S S H ` } ^ P H F P I I H P Q ] ] R ",
"b b A K R S S R ! H ^ q 7 > 7 H n B D l x l q < < m m x A J A A P H P P ~ { B x z C H Z H ^ Z H P ~ ] P C D C D A L R H H S H R ",
"b b A b S W D x x R S 0 Z R C Z B K P D C C C e 3 a C b x C A b D n D V Q ~ e G B C B C n x x x H G ) C w u i D m x C x B A L H ",
"b x b b C x x C n C H f ` H H S Y Y A S L S x t t j l v A b z C n n B B B H e x C B n M C i x k H n B n 9 g z x k m b A b b C C ",
"b C v y i g C B C n C w e } { H H K ' ] b b x a e 8 l S x w k C n B B n B H w k C x A e q H H H n n n n e x C q q B w y B C x b ",
"Z s u i i m D n C n m u 1 7 u ..*.| n B n B D e 1 e e m i q m u 9 H n m n P i w w n 9 D 3 a m m M n n n 8 e a q a a i w i V n n ",
"u p u u u i u i a w H 5 q u u M P n C n C i f e > q i e 7 a s u i e q f k G e g e q D 1 e a u u f i n i - < q 1 : i i u u 0 u n ",
"o # X X + F P D P I J e @ 4 i n I B n m x k e i D H ) Q I ] ) Q H H D R D P P ) { `  .^  .P H K H F P P P ] [ ] ) | P Q ) ) ) | ",
"o . # X + d D n S Z v P f 3 0 s m a k k k k C x C C H Y Z P _ n l Z C P C n K D D P G Q P n n B n V K P P S C H P ~ B V V G V ~ ",
"o $ . o + d a m A x A C m l 0 3 t t q v v x Z k C C n C z n Y i n l m x n P D D B B n G Y w B B V n x C B B C v D P V n n n n K ",
"o o o . 3 h h w B C v x C n n F C J < C M m i a n C n n B n D k D 9 e F n n P R P z D B K w n N n n C B m x C b H P n n n V n n ",
"o o X 4 4 e i i 9 C n D n C n n v J < e m g e e a n C x D C C j 8 Z e a C C n n n B n n K f V n n C e 0 x v v b m P n V n n n n ",
". , 3 3 e 3 w i B w e w n n n n M I : 7 t k a > 9 a x z x x Z j a e t l u u u n n n z n Y i f n 7 e e g x x v x n F w u n n n n ",
"c l x v x k b G K j C b n n n n S I h x P n P m D 3 1 0 3 < a q 8 3 r 8 , < - : 1 a n F H n B K n V K B n N n n B P x K Y K K T ",
"v Z H S R H Y Y W A ~ A D n m H H A P S Q Q P _ } n a 0 h t q q q h < < < < X X X d I F D P H K V T ) T N n n P D G G T G K ( ' ",
"B n C C Y V V A K Y ' g n n M n n V D n n n P P { s Z F x v m m Z 8 8 t 4 3 2 o X n F m m n n P B Y T n n V D n B B B V N A K K ",
"C C n n B V C T K K { j n D D n B B B n n n n H P 0 ! $./ U J x M Z s 8 a 5 2 X # n 5 I m m n n n B V n n n n n D Y P n V B b G ",
"n M D n l n B B S H ^ j k B D n n n n n n n n n I 0 i ..Q H x n m n u s p 3 u . X : U F i f n n n n D n n n n M H H C x C b x B ",
"M d h 0 g k B C V A W k w n n f k n n n n n n n R 7 9 Q I C B C C e i q q 2 4 X X + u u n n n n n n n n i n n n x g g n b C C x ",
"p 2 4 4 0 a i i i e B f i 0 f u i u u u w n 0 n Y 7 i Y n n V z C f i 1 I } _ & + + % @ 0 u u u u n n n u w i k 3 e i z w w f z ",
"X # . + . P R I P P R G Y R | } Q | K P Y D Y H P > w B w V B i 7 R P P P U X.: + X % +   P P Y V P Y P Y |  .) ` | G Y Y Y H Y ",
", # o # + m n C Z C A f D R P P H } n B m x I F I F : i i i i C R b x A J S Z ..: X O X % x M n n R P K Y H H H P ` C n n V H B ",
"4 2 3 # X s M M I g m i H x x R S ` w n C m v m H m m q = h R H b A b b b b H ] 3 O o . . a m D n n n P G x C C P R e x n C B n ",
"5 q 2 3   s m M Z k e > i x x B G P 9 x Z x Z C M m m m C n G a b v b v v C v F F 4 , . X a m n n n n D C B C B C F g m e x m n ",
"5 2 2 3 # q l m 0 a 3 1 i q D C B G e C B m x a q l m C n n D f 9 b v b C C F q q a : : & e m m n n i u k n B C C Y e 9 h a m m ",
"r 4 5 4 + 3 s M a 3 1 q q F a Z B P e 9 A g a e a C n C n C D w q e m Z l t t t q H  .4 - t g A e i t j G A z B C S = g q h a t ",
"5 4 2 4 X 5 1 u q p 3 a u u u i x D > 7 e i > 3 1 q e q i i n 1 > e e a q 8 g 8 a C H _ [ ; 9 q 3 = : 3 8 e e e z H > > e 8 q a ",
"4 2 4 2 2 4 4 2 1 3 3 M H U H I F Y R ` ] { } } {   > 6 7 w f i a 7 q q q e q g g S W L J [ z 9 < o O - 7 e e e x C n n A C C t ",
"r p r c d p d d n u s g n m M F n H D K S P ^ ^ { = i f g z n D D P I x q 8 e e x P S G K W  .^ h : X : x Z C ~ ^ Q ^ ! W ^ ^ _ ",
"5 p r p u p p p t v h t b F m n H F K C n n C P Y i i D m n n P P n D P l 1 1 n n B V K K S o.x J 4 & , J S L E G T K P ' ) ` ' ",
"1 2 u q p q a q 9 r c r m m m F P K B n n C n l P w k H P P n m D F U _ a 3 = C K V N N K L W b v < , , Z b v b K T N K Y K P ' ",
"u 1 4 1 3 : q a t t < t t C A x n B n n D x C n Q 1 i B n Z ~ F M H *.l h 1 e Z G K V N W A G C , 4 , , r C v b z B B V N K Y V ",
"q u u e 0 7 3 4 < 9 t t 8 q m k u g 6 n l z n n D 1 w 7 F D n ) $.=.m H 0 7 g x B K V V K ~ L 8 4 , , 8 s v M v C C n n B B N G ",
"g D D g n x a e t t y t j j y j z g j z z j k C D : 1 5 l l M l n | n s u 9 v A B N V K V ) k 7 < 8 4 c t c c S x h v J n C B n ",
"A H I D { U ) ] [  .[ [ [ [ ] [ ] #.b A C G G R P u 0 % 3 q u a i Q m u 5 q r C n n V n K k 4 8 8 X.E t 8 t h 8 q h t t u l n C ",
"F A H Q { x x x v ( ..[ [ [ &.=.#.[ 9 C x b x C m I n 0 i 4 4 q f H u 4 0 s q m n D n w n q a q E 9 J h < < 4 , < < , < < * 3 4 ",
"n x n H S g A v b b v v b v b j ( #.9 b b C B C n m m m i u q , u M 4 1 p r r p C n g B u u 4 I Z E 9 v r r r p c v < p 5 s r q ",
"n x C n P g x Z x C b v C v x x x *.9 D x n C x m C v m v m t q 2 2 2 # s r t t u n f m u 0 p _ Z L 8 M i e t e t M < a r t s 8 ",
"x n x n W i g x l l a v h Z Z C B  .e k F x x 0 q h Z m v m M p 5 5 # * $ 3 p t u i n u s 0 d F Z t t j n x Z x x I q x m m h r ",
"i g i x H < 3 7 8 a q q t t e q x } 1 e w > 7 7 y e t s e t q 7 2 2 2 & X + . O u u g 0 g i q w e y 9 9 g i w g x D 7 w e 9 : 9 ",
"R D P ! R i g 3 3 < < 3 < < g e 7 k H R } ^ { ] { < < q q q t > , 4 4 4 0 : } [ n n D m n D n F C C A S Y P T H Y Y P Y G { } S ",
"x H S m I x q t q h r a t q q g w D R R P R P  .[ < 0 7 A Z Z m m C v < < > x [  .{ } _ { { ] { [ { ` { B x z Y V G Y T H H G T ",
"m x D m M J Z Z C t t t q g C v C C n B x C H H ] 0 k C n Z n n H H v A b < v x n n ^ ] ] {  .O.*.$.@.C x B V B B B B z B D H H ",
"A n C n x Z Z Z J Z H k v x C C C x D x B A x G H e e C C Z x P K b S A E x j b v l m F n B n B Z x E R x m n n n C m n G x x P ",
"m C x C C n n C C v Z x e v b C B B n C m x C x H 0 7 e A C W R L S R / J t t a c m m i i n n n x m h Z q C n m m n C n m m C x ",
"j z i w e f x C C x D f i i B z e e w i x V C x H 6 7 f w B x ^ ` *.$.B m q e q 0 q l M u i n n m m x l 4 i m n i e e n C n m n ",
"6 w y i e f 6 e e w G 7 > e w w f e g i w w e x Y ; 7 7 0 C C C A =.x D e 7 3 < 5 u d a 0 i u 0 q a x n 9 a w 9 e e i w e e e k ",
"~ ' { ~ { G Y H R S Y Q `  .| | { ] F P H H Y I R Q i 7 g e x x b ] m D l a q i 0 1 2 3 4 5 1 u e e w B C { ' { ^ | G K H H Y H ",
"K Y Y G ' j C x S G n D K G G P R ] k A m x H D H I S C e z n k m m C l s F P a a l a q a q i f g z k P P K G G Y ~ g V V B Y x ",
"B n n K ! x e C C n Z G D G l G H S q n C C x C G D C C m D n k k s q s n D m n C F D S F a v x n C n V C x B B G H e b w x n n ",
"n n n n H g i i x x C I Y H n C x H e C C x n B C x x n A n I k n 7 s m m C n D C C n P R e v C C n C k m A B n G Y y C i k C B ",
"n H n n H t x e q n x C C C G n C R 0 x A m C e i e S C n m D g u D 0 i n D k V b b b b S e g v C v n k k m m Z C S t q m t F l ",
"n l n m F e t t m a q i k m x n m F q g x g e e e C x n x x A e > u i l i w u n b x b b J q 0 m v a q k m m m l m I 8 q r h 8 s "
};
