/* XPM */
static char *_b119fd4b1c8464c9120d3cc30edbda1eSiK1g1syLcCeAAA[] = {
/* columns rows colors chars-per-pixel */
"64 64 256 2 ",
"   c #171808",
".  c #091617",
"X  c #161B17",
"o  c #0C0B0B",
"O  c #290100",
"+  c #241A02",
"@  c #2F1407",
"#  c #1A240D",
"$  c #19251A",
"%  c #0C2115",
"&  c #262717",
"*  c #2F310D",
"=  c #071924",
"-  c #151B26",
";  c #0B1D33",
":  c #0C2729",
">  c #182727",
",  c #192836",
"<  c #193738",
"1  c #103030",
"2  c #242625",
"3  c #283528",
"4  c #393B27",
"5  c #252935",
"6  c #273638",
"7  c #343936",
"8  c #221B21",
"9  c #4F360F",
"0  c #6B3806",
"q  c #493C22",
"w  c #470F00",
"e  c #1D413C",
"r  c #28463A",
"t  c #364538",
"y  c #34452A",
"u  c #2F481B",
"i  c #534913",
"p  c #72520D",
"a  c #474427",
"s  c #505334",
"d  c #675A34",
"f  c #6D5829",
"g  c #796428",
"h  c #776738",
"j  c #727136",
"k  c #5B6236",
"l  c #193845",
"z  c #173147",
"x  c #283848",
"c  c #363C47",
"v  c #283B54",
"b  c #2D374E",
"n  c #1B4648",
"m  c #1E4657",
"M  c #264748",
"N  c #354847",
"B  c #28534D",
"V  c #274755",
"C  c #354857",
"Z  c #285557",
"A  c #375759",
"S  c #33574B",
"D  c #3A645A",
"F  c #354964",
"G  c #2B5766",
"H  c #3A5964",
"J  c #365977",
"K  c #2C4B6C",
"L  c #386467",
"P  c #396773",
"I  c #31666B",
"U  c #475756",
"Y  c #4E5748",
"T  c #4D6654",
"R  c #6C6C4D",
"E  c #445867",
"W  c #455876",
"Q  c #414762",
"!  c #456969",
"~  c #476977",
"^  c #49747A",
"/  c #536B71",
"(  c #6D706D",
")  c #665B43",
"_  c #8A4902",
"`  c #895807",
"'  c #975905",
"]  c #875B15",
"[  c #95500C",
"{  c #A55907",
"}  c #996508",
"|  c #997209",
" . c #996817",
".. c #9B771A",
"X. c #8C6514",
"o. c #A76904",
"O. c #B46900",
"+. c #A87507",
"@. c #BA7705",
"#. c #A77817",
"$. c #AE7318",
"%. c #8E5A2A",
"&. c #876728",
"*. c #966527",
"=. c #977639",
"-. c #907033",
";. c #A67B29",
":. c #A86A39",
">. c #A87838",
",. c #AF722B",
"<. c #A7592B",
"1. c #C37805",
"2. c #CC7D13",
"3. c #C57E30",
"4. c #91744E",
"5. c #A87849",
"6. c #B87948",
"7. c #AB7B54",
"8. c #B97B54",
"9. c #A96946",
"0. c #8C7B6F",
"q. c #A87B64",
"w. c #C97A55",
"e. c #708276",
"r. c #B98508",
"t. c #B88717",
"y. c #B18B0D",
"u. c #9A8738",
"i. c #B88726",
"p. c #AF8D36",
"a. c #B8A632",
"s. c #C88605",
"d. c #C58918",
"f. c #D79818",
"g. c #CF900E",
"h. c #E69211",
"j. c #D7A91B",
"k. c #D1A70E",
"l. c #E9AA15",
"z. c #C58828",
"x. c #D69929",
"c. c #C78838",
"v. c #D59A38",
"b. c #CB942E",
"n. c #E69427",
"m. c #D9A628",
"M. c #DAA539",
"N. c #CDAF32",
"B. c #EBAE30",
"V. c #EFC535",
"C. c #E0C424",
"Z. c #928551",
"A. c #B68747",
"S. c #A98658",
"D. c #B98657",
"F. c #AF9049",
"G. c #B7A64B",
"H. c #928A6E",
"J. c #B78867",
"K. c #B89464",
"L. c #AF8D72",
"P. c #B5AC6F",
"I. c #9CA578",
"U. c #CE9251",
"Y. c #DAA646",
"T. c #CEAC4D",
"R. c #E5AA49",
"E. c #E6B457",
"W. c #EBB050",
"Q. c #C68866",
"!. c #CC9472",
"~. c #D1AC6D",
"^. c #EAB46C",
"/. c #E39A60",
"(. c #EDCC4F",
"). c #F1C76D",
"_. c #ECD55B",
"`. c #3C5C8A",
"'. c #3A6188",
"]. c #455C89",
"[. c #486986",
"{. c #546A89",
"}. c #4A7987",
"|. c #537293",
" X c #6D7891",
".X c #5370A8",
"XX c #657CAD",
"oX c #657EC0",
"OX c #57848B",
"+X c #578795",
"@X c #528693",
"#X c #748E94",
"$X c #6B90AC",
"%X c #78A5B1",
"&X c #5C8AA4",
"*X c #7593C9",
"=X c #8F928E",
"-X c #B3998C",
";X c #B5A894",
":X c #8EAAB5",
">X c #AFB4B4",
",X c #8796A0",
"<X c #C99B86",
"1X c #D1AC92",
"2X c #EAB492",
"3X c #DBB9A7",
"4X c #D1B5AF",
"5X c #E6B7A6",
"6X c #E3BDB7",
"7X c #FBBBAC",
"8X c #F4CD96",
"9X c #DAC8B5",
"0X c #E7C6B8",
"qX c #F0CCB2",
"wX c #FBECB2",
"eX c #DED396",
"rX c #859CCE",
"tX c #8DA9D3",
"yX c #A8BAC8",
"uX c #97B0E5",
"iX c #A3B8E6",
"pX c #A5BBF4",
"aX c #CEBEC4",
"sX c #B1CDD5",
"dX c #B8D9E7",
"fX c #B1DAEA",
"gX c #A1CADA",
"hX c #DBD8D7",
"jX c #D1CCD1",
"kX c #E8C7C7",
"lX c #F5D6C8",
"zX c #EBD8D6",
"xX c #F4D9D6",
"cX c #EED0C9",
"vX c #F7EAD2",
"bX c #C5DDE9",
"nX c #CED5EC",
"mX c #EFDCE7",
"MX c #C7E1EA",
"NX c #CBE8F4",
"BX c #D5EBF4",
"VX c #DBEDF4",
"CX c #DDEEF9",
"ZX c #D4E7F8",
"AX c #DDF2F5",
"SX c #DEF2FB",
"DX c #D5F1FC",
"FX c #D5EAED",
"GX c #E3EEFA",
"HX c #E2EEF5",
"JX c #E1F3F5",
"KX c #E3F4FB",
"LX c #E9F6FC",
"PX c #E8F8FA",
"IX c #F0F5EC",
"UX c #D6E1CD",
/* pixels */
"b b b b v v b x 3 4 y y r 6 6 > > , - , 5 , v v z z , > - = = = > > 5 , < r r S D T T R Z.S.J.J.!.-X1X1X1X1X1X!.Q.w.w.w.J.L.H.0.",
"v b b b v v b 6 3 3 u u u 3 > - > = > - , x v V v l < , > > = = . X - - : 1 < r r Y R R 4.5.K.!.5X3X0X0X0X5X2X!.w.w.Q.Q.<X-X;X-X",
"v v v v b b x 5 5 & * * * * 3 , : 1 : : , z F F K V M r 6 > > : . . . . . : > 3 3 t k h 4.5.D.!.5XkXkXcXcXqX2X/.U.U.!.<X5X5X1X-X",
"b v b b b x 6 5 & * G._._.~.4 6 6 6 6 , z x F K J J H A N r 3 > % . . . . . X & y a f g %.*.5.J.5X0XkXkX7X7X^./.^.2X2XqXcXcX6X1X",
"x x b x 6 6 5 & @ _.V.V.V.i.4.IXPXU E C x V K J [.}.|.}.~ H M < 1 : . . . X & q d g &.&.*.=.7.Q.2X2X5X7X2X2X/.^.2XqXcXxXxXcX6X1X",
"x x 6 6 5 5 2 + T.V.l.l.l.` O vXIX( ;XR Y T J [.|.&X$X$X$X|.! Z M < : > $ & q d -.5.S.S.7.J.J.J.!.8.Q.w.w.U.U.2X8XqXcXzXmXmXcX0X",
"6 5 , > 2 2 X + T.j.k.k.f.#.h vXzX1X~.T.G.j ( &X$X*XtXuXtX%XXX[.A r < 6 3 q d 4.J.1X2X1X1X1X3X3X<XQ.w.w.w./.~.2X5X0XkXkXcXxXzXcX",
"5 > > > - X X   * N.k.s.r...R UXzXf #.k.y.p.H.,XrXuXiXpXiXtX*X|.! A N N Y ) 4.L.1X5X0X0X0X0XkX6X5X!.w.Q./.2X5XqX0X9X4X1X<X5X9XqX",
"> > - X X o .   + a.d.+.y.u.s jX9X4.| r.y.a.F.I.yXuXiXpXiXiX*X&X}.L A U Y ( L.;X0X3X0X0X0X6X6X6X6X5X5X5XqXqXlXlXcX0X3XJ.7.D.Q.~.",
"- - X . . . .   + G.p...g wXhXjXqX=.X.#.d.y.a.j >XuXiXiXiXuXtX$X&X}.L U ( 0.;X4X6X6XcX0X0X0X6X6X0X5X0X0XlXvXzXzXzXlX5XQ.:.*.,.i.",
"- - X X . = - X + P.eXvXUXhXjX9Xp ..g 4.;.i.a.P., iXiXiXiXtXtXrX$X+X~ A ( =X4XkX6X6X0XkXxXkX4X5X2X2X5X0XxXzXzXhXzXxXlX2XD.,.' o.",
", , - - - , , > & H.I.eXUXvX0.f X.X.3X4X1Xf -.R #XiXiXiXuXuXtXtX*X$X}.E ( -X6X6X1X!.1X5X6X6X5X!.Q.8.!.3XvXzXzXzXzXxXlX5X!.A.,.,.",
"x z z z , , , , 2 * F.u.X.p p ` o.} 1XjXaXhXUXPXuXuXuXuXuXtXtXuXrXXX[.E ( 0.<X!.8.:.8.!.<X!.Q.6.<.,.8.<X0XxXzXzXzXxXlX0X1X~.Q.D.",
"v v v z z z , , , & G.y.| } ` ' O.$.S.9XjXnXZXKXyX:XtXrXrXuXuXtXuX$X{.E R 4.q.D.6.:.:.9.7.9.<.<.[ <.:.J.3X9XcXcXqXqX5X1X3XqXeX3X",
"F v v z z , , , , * p.y.| +.+.1.s.f.x.T.9XnXZXGXvX9XH.#XXX*X*XtXrX*X|.~ ( ( q.J.Q.6.w.9.%.9.7.<.<.:.q.q.4X4X;X<X~.D.D.Q.5XqXcXkX",
"V v x z , , > X # j N.y.y.y.g.f.B.B.V.T.+ ZXnXhXj G.P.* ,XXXXX$X*X*X$X#X=X=XL.<X1X!.Q.8.J.9.9.Q.U./.O O O 3XL.5.=. .>.D.qXlXxXzX",
"M x x , > $ $ # + T.j.r.r.y.d.x.' Y.E.-.( HXhXP.u.N.N.T.R  X|.$X*X*XrX:X>X-X-X1X1X!.!.w.7X8.9 O R.3.z.3.c.O !.%.p X.S.1XkXzXzXcX",
"x < 5 5 > $ X + (.k.k.s.g.m.t.#. .2XwXvXmXhXvXu.y.y.j.N.* ,X|.XX*X*X%X:XyX4X4X<X!.Q.w.w.!.9.D.O z.d.h.s.n.3.O -X] &.S.9XcXkXkXkX",
", 5 5 2 X X & i N.k.l.@.t.w T.F.d 4XaXjXjX9Xu.y.r.s.k.N.F.=X+X$XoXXX$X:X>X4X4X!.6.,.:.8.~.5.U.,.2.n.h.h.n.c.O ;Xg =.P.0XkXkXkXkX",
"> - 8 2 2 &   + a.m.M.i.;.9 @ P.hXjXjXjX0X-.t.s.s.s.g.N.~.;X$XXXXX.X X,X>X4X1XJ.>. .*.5.8.Q./.8XW.n.h.h.n.Y.O 4X-.A.!.3X6X6X6X6X",
"X $ 2 2 # # & * O g F.i =.+ + @ mXjXhX9X>.$.1.1.@.f.j.G.R #X XXX|.|.{. X=X-XL.:.[ _ *.>.wX>.B.B.).n.n.B.v.U.qX-X5.>.D.!.1X3X6X6X",
"% $ X $ # # # # o o o   + + & 8 . hX0XA.x.s.1.1.s.t...wXH.=X( {.|.|.{./ ( 4.-.%._ _  .>.wX:.Y.i.c.U.b.o.,.8.L.L.S.=.9.:.7.S.L.L.",
"X X X # # # # # # #   & & X 2 X 2 9X;.r.g.s.1.g.s.i.wXvXwX~.P.s :X|.[./ ( ) %.[ [ _  .*.lXq.vXvXIX4.*.$.c.U.1X9XL.5.:.[ ] *.-.4.",
"    X   X   # # # # $ $ $ 3 3 3 3 + i.s.s.g.l.s.d.p.qXvXa.(.E.* :X|.{./ ) d ]  .%.%.*.=.lXvXvXvXIXvX:.c.W.Y.O ;X3XS.*.` ] ] %.5.",
"      X X . X X $ $ > > > 3 6 r 7 q p.d.f.1.s.g.i.8XvXwXm.j.E.+ :X{.E T ) h *.*.4.!.<X9 4.vX,.$.c.[ wXR.B.B.U.eXqXS.=.=.-.7.S.J.",
"      X X . X X 2 2 > > > 6 r r t 4 &.F.z.x.d.i.~.wXlXF.m.j.T.H.U F H U Y h *.*.4.-XO q.J.2X@.h.2.O.' R.B.B.^.2X<X7.7.S.L.<X<X<X",
"X 8 X X $ : X X > > $ $ > r N N N t 4 R F.>.A.S.R vXqXT.j.k.K.>XU C F H U ) -.4.H.-XO 6.D./.f.g.s.f.b.8XU.~.2X<XQ.D.8.Q.1X3X1X-X",
"& + & $ $ > > > > < < r r r N N t 7 7 3 4.4.+ Z.7 Y wXT.M.T.  ,XN x x C U ) g -.-X1X] c.3.8Xd.g.h.g.v.wX7.q.!.Q.Q.A.6.K.1X1XL.q.",
"f i a y & $ > > 1 < e M M M N N t 7 7 6 7 q 4 4 7 s i eXK.9 >X Xc 6 , , t d g -.=XH.>.c.c.W.g.k.k.k.N.wX7.q.8.6.6.>.>.F.K.K.L.q.",
"u.g g k a * 3 3 y y t t t N t t 7 7 c b Q b c N t 7 q a ;X>X#Xz 5 > - . $ q f h 0.;X@ c.z.b.x.l.C.C.(.u.5.7.8.:.,. .*.>.>.A.S.7.",
"i.i.p.u.-.j j j j j j R R ) s t t N C E F W F c N 7 7 7 N N b x > . . X X & q d 4.H.f g p.i.` _._.(.t.p.A.5.:. .} } X. ...;.A.A.",
"b.M.T.T.G.p.F.G.G.G.p.u.Z.Z.R k s Y E W J W F Q c c 7 x C F F v , . . . . . & q d 4.S.5.;.#.} M.j.| | ;.>.;.*. .} o. . .} | ..;.",
"x.Y.^.E.T.T.E.E.).E.T.T.b.G.p.u.Z.R / ~ [.[.].W C b x x F J J K x = . o o o X * s h &.=...o.' x._ ' _ 0 X. . .} $.i.c.i.#.| | ..",
"v.R.^.^.E.R.W.W.).).E.M.M.R.N.N.G.S.=X#X|.|..X].W C b C W [.[.J V : . o o o . $ y d g ]  .' ' v.[ _ _ _  .] ] ;.;.c.U.p.i.#.| | ",
"M.Y.E.E.M.x.B.B.W.W.R.M.m.B.C.V.N.T.P.=X#X|..X.X].K v C W {.{.~ V , . o o . . : 2 a 9 p ] ` ' w _ _ _ _ ` ] X.;.p.A.U.p.;.#.| +.",
"x.M.E.^.M.x.s.s.x.x.x.x.m.B.V.V.V.N.G.L.=X X|..X`.K F C E W W H M , = . . = = : > $ * 9 p ] ` ' ' _ _ ` _ ' X.;.p.;.,.,.$.$.+.+.",
"M.Y.).).Y.z.@.@.1.s.f.f.B.W.(.(.V.m.b.F.Z.(  X{.`.K K F H H H C x < 1 : : : ; 1 < , 3 a i p ] ` _ _ _ ' ' ' }  ...] ` ` ' } +.+.",
"m.M.).).Y.$.o.{ { O.g.h.n.B.(.(.B.m.z.i.A.4.( / ].J K G H A A C x M < < l l n M V M 6 y a f p ` p ` ' ' ' } } ` ` _ ` ` ' } +.#.",
"f.x.R.M.t.o.} ' { { 1.g.l.B.B.B.R.Y.c.c.c.A.4.( {.`.J G L A A C M M M V Z Z L L H A N t a s i p p ] ` ` ` ` } ' _ _ _ '  .#.+.o.",
"1.g.x.x.d.+.} ' ' { 1.g.h.l.l.m.M.Y.U.Y.v.U.S.0. X{.[.P H Z C V V V V G G L ! ! L A V N 7 s s f f p p p p p ` ` ' ' ' } } } } o.",
"{ 1.d.g.s.s.@.o.o.@.s.f.h.h.h.f.x.v.Y./.Y.U.K.H. X|.].'.J G V M V m m G I L ! ! ! A V v C N s s ) k k s i i p p ` ' ' ' } } } } ",
"O.@.1.s.s.s.s.f.d.x.m.B.B.n.n.f.x.v.R.E.E.~.K.0. X{.].'.G V l l v m G G L D D A C V v V F H U U U T T T s s i i p p ` ` } } ` } ",
"o.@.r.@.s.g.j.m.M.M.W.W.R.M.x.x.v.b.b.Y.E.~.K.4.( / [.J G m v V V G Z Z S S S S M M V F J W W / / / ! ! T T Y s a i p p p p p p ",
"+.r.s.s.s.j.B.B.B.M.R.W.R.Y.Y.E.Y.v.b.b.U.U.U.S.R U H G G Z F H P P I B B S A A N V C F W [.|.|.^ ^ ! ! ^ ! ! S t a i i i i i i ",
"r.t.j.j.j.B.V.B.j.f.x.v.Y.E.^.).).Y.i.t.i.U.A.4.R Y V Z Z Z P ~ ^ P L Z S D ! ! A A C A E ~ |.|.^ ! B A L ! ! A N 3 & * * * 4 4 ",
"} t.m.m.B.B.B.j.g.s.@.d.M.E.).).).Y.t.+.} ;.>.-.k t 6 n V H ~ }.OX^ L D D ! ^ ^ ! H A A E ~ {.|.^ A < e B A L A M 1 $ $ $ > > > ",
"_ } r.g.m.f.g.g.@.O.o.@.f.M.E.).(.N.+.} } ..-.h s 3 , z l Z P }.@X}.~ ~ ^ |.OX|.^ E E E H H ~ ~ ! C e e M S N V x < : : : 1 > , ",
"_ } o.o.o.+.@.@.@.O.O.O.r.d.M.M.b.t.| } X.-.-.d 4 > - , z m P }.}.}.}.}.+X$X&X+X{.W E E C A H ! H V n e n M x M x 1 : 1 < 1 : , ",
"o.o.o.' ` _ { O.1.1.@.O.@.+.t.i.$.} ` X.=.Z.4.) t - - ; z v L ^ }.@X+X&X$X$X+X}.~ H C C C A A A Z Z B B B Z l < 1 1 < < 1 1 : : ",
"2.$.$.} ' ' o.O.@.1.@.+.+.o.+.} ' ` ` *.=.Z.4.) 2 . = ; z V H L }.@X&X&X$X&XOX~ H C N N N N C A Z B Z Z Z B M < 1 1 < < < < 1 1 ",
"@.d.i.,. .} o.@.@.o.o.o.+.| ' ` ` ` X...;.=.h a X = ; ; z m Z H P OX+X+X+XOX~ A V M M M M n M B B Z B B B M n 1 < < l l l < 1 : ",
"O.@.z.i.#.#.+.t.r.@.+.+.+.| ` ` ` X. .....&.i & . . = ; z l n V L ^ }.OXOXOXOXOX~ ! ! H A Z M n n B n B n M n < < < M M M l 1 : ",
"O.@.i.i.#.| y.t.t.d.d.#.....X.] ` }  ...&.g a $ . = : n Z Z M V L }.$X%X:X:X:X:X:X:X:X%X$X+X^ P Z n n n n n M M n n M M M e 1 : ",
"@.d.c.p.;.| | t.z.z.i.i...-.&.g ] ` X.g d ) Y U ! ^ +X%X%X%X#X#X:XgXsXdXdXdXdXMXMXbXbXdXfXgXtX%X@XP G n n n n B B M n n < < : : ",
"z.c.A.A.-.p ` } $.t.t.i.&.g f g p p f R ( #X#X:XyXsXbXMXbXMXbXMXMXFXBXDXDXBXBXAXCXCXSXSXDXNXdXfXgX%X+X}.I I Z Z Z n n < < < 1 : ",
"F.F.S.4.g p p p _ ' ` ] p f d d d d R e.,XgXsXMXNXBXVXLXKXLXAXKXJXPXPXPXPXPXPXKXLXLXLXKXSXSXDXNXNXfXgX%X$X}.^ I Z Z n l 1 1 1 1 ",
"=.-.h d i 9 0 0 0 0 p p i d Y T ( e.=X:XsXbXBXVXKXKXLXLXLXLXLXLXLXPXPXPXKXKXLXLXLXLXLXLXLXLXKXSXDXZXMXdXsXyX%X+X}.P P P G G P P ",
"s s s a q q 9 9 0 9 9 q a Y T ( #X:XsXdXbXFXHXLXKXKXKXLXLXLXLXLXLXLXLXPXKXLXLXLXLXLXLXLXLXKXKXGXCXCXZXZXNXMXdXgXtX%X%X%X$X$X%X%X",
"/ e.#X#X#X#X=XH.0.( R T T / OX,XgXsXMXBXVXVXHXLXLXLXKXKXKXKXKXLXLXLXLXLXLXLXLXLXLXLXLXLXKXKXKXKXKXKXSXAXVXBXNXNXMXdXdXdXdXfXdXdX",
"sXsXdXfXdXdXdXsXsX>X>X:X,X:XtXgXbXNXFXVXJXJXKXLXLXLXKXJXKXKXKXKXKXKXLXKXKXKXLXLXKXKXKXKXKXJXKXKXKXKXSXSXVXVXBXBXBXNXBXDXBXBXZXBX",
"AXAXSXDXDXDXFXFXFXFXMXdXsXdXbXNXBXAXAXAXAXAXKXKXKXKXKXJXPXPXLXLXKXKXKXKXJXJXJXJXJXJXJXJXJXJXJXJXGXGXGXKXKXCXCXVXVXBXBXVXVXVXHXVX",
"PXJXKXKXSXSXJXJXJXVXBXBXFXFXVXCXAXAXAXAXAXAXAXSXKXKXKXKXLXPXLXJXKXKXKXJXJXAXJXJXJXAXAXAXAXJXJXJXKXSXCXVXCXVXVXVXSXVXVXVXVXJXJXHX",
"PXPXLXKXGXGXHXJXLXKXSXSXAXVXVXGXKXKXSXSXKXJXHXJXJXHXKXKXKXKXJXJXKXKXKXKXHXHXHXKXAXAXAXSXKXKXKXKXAXAXVXVXVXSXSXKXVXVXVXVXCXSXCXSX",
"JXKXKXKXGXGXHXHXHXKXKXSXAXAXJXKXVXKXSXSXVXVXFXHXHXHXHXGXKXKXJXAXGXGXGXGXGXGXGXKXHXAXSXSXKXKXKXGXVXAXAXAXVXAXSXAXCXCXVXVXCXCXCXKX"
};
