/* XPM */
static char *cropped__4_1695397108[] = {
/* columns rows colors chars-per-pixel */
"64 64 238 2 ",
"   c #1E2E0E",
".  c #1E330C",
"X  c #1B3306",
"o  c #1F2E11",
"O  c #21350E",
"+  c #22380D",
"@  c #243514",
"#  c #253A13",
"$  c #293C16",
"%  c #26351A",
"&  c #28371A",
"*  c #273818",
"=  c #2B3C1B",
"-  c #2F3E21",
";  c #26530A",
":  c #2B5C0B",
">  c #285906",
",  c #315E0D",
"<  c #2C4315",
"1  c #2E421B",
"2  c #2F4919",
"3  c #2C4617",
"4  c #31451E",
"5  c #344B1D",
"6  c #304917",
"7  c #2D5C11",
"8  c #2C5510",
"9  c #325C15",
"0  c #36511E",
"q  c #39541E",
"w  c #37591C",
"e  c #204F07",
"r  c #2D620A",
"t  c #2C6A04",
"y  c #32640C",
"u  c #326B0D",
"i  c #366909",
"p  c #2F7304",
"a  c #317503",
"s  c #3B7404",
"d  c #347A04",
"f  c #3A7A02",
"g  c #36740C",
"h  c #3B740C",
"j  c #377A0B",
"k  c #3B7B0C",
"l  c #2F6612",
"z  c #346413",
"x  c #3B6516",
"c  c #356A13",
"v  c #3A6E14",
"b  c #35631A",
"n  c #3A641D",
"m  c #356A1A",
"M  c #3C6C1C",
"N  c #3B7314",
"B  c #3C7A13",
"V  c #3D731A",
"C  c #3D7A19",
"Z  c #367413",
"A  c #334522",
"S  c #354B23",
"D  c #394E25",
"F  c #3B4D29",
"G  c #374728",
"H  c #375122",
"J  c #3B5325",
"K  c #3E5925",
"L  c #3D532A",
"P  c #3F5929",
"I  c #3D6622",
"U  c #3E6A27",
"Y  c #3E7222",
"T  c #40591F",
"R  c #43760D",
"E  c #407609",
"W  c #426E15",
"Q  c #45641E",
"!  c #426C1C",
"~  c #427315",
"^  c #417B16",
"/  c #43741B",
"(  c #437A1C",
")  c #4A751E",
"_  c #415C26",
"`  c #41562C",
"'  c #425C2B",
"]  c #4C5F2B",
"[  c #465D32",
"{  c #485F32",
"}  c #435432",
"|  c #446424",
" . c #496326",
".. c #446C24",
"X. c #4B6C24",
"o. c #45622C",
"O. c #49652D",
"+. c #456A2C",
"@. c #4A6A2C",
"#. c #516D2E",
"$. c #447322",
"%. c #4A7422",
"&. c #457B22",
"*. c #4B7C25",
"=. c #45722B",
"-. c #4C722C",
";. c #467A29",
":. c #4A7C29",
">. c #527329",
",. c #466232",
"<. c #4A6532",
"1. c #466B33",
"2. c #4C6A32",
"3. c #496A38",
"4. c #516C34",
"5. c #526A37",
"6. c #497332",
"7. c #567338",
"8. c #3A8207",
"9. c #3F8410",
"0. c #41870F",
"q. c #438414",
"w. c #458B15",
"e. c #498D16",
"r. c #46851A",
"t. c #4A851E",
"y. c #4A8C1C",
"u. c #468A1B",
"i. c #459113",
"p. c #4A9315",
"a. c #4C9915",
"s. c #4D921C",
"d. c #4E991B",
"f. c #51951E",
"g. c #539A1E",
"h. c #569B1A",
"j. c #49900E",
"k. c #55A41D",
"l. c #59A31E",
"z. c #57A81C",
"x. c #4C8324",
"c. c #4D8C23",
"v. c #4D8429",
"b. c #488723",
"n. c #518D25",
"m. c #52862B",
"M. c #538B2B",
"N. c #5B8B2D",
"B. c #538725",
"V. c #4E9122",
"C. c #539423",
"Z. c #559B24",
"A. c #599C25",
"S. c #54932A",
"D. c #59932D",
"F. c #5A9C2B",
"G. c #599628",
"H. c #558B32",
"J. c #598A36",
"K. c #5A9231",
"L. c #5D9E32",
"P. c #5D9439",
"I. c #589736",
"U. c #4F8235",
"Y. c #628E35",
"T. c #638B3C",
"R. c #61953C",
"E. c #649C36",
"W. c #60992E",
"Q. c #56A222",
"!. c #5AA424",
"~. c #5CAA24",
"^. c #5CA42B",
"/. c #5DAA2A",
"(. c #56AA22",
"). c #5DB326",
"_. c #5FA333",
"`. c #62A52D",
"'. c #62AB2D",
"]. c #63AA27",
"[. c #63B32C",
"{. c #6AB62E",
"}. c #65BB2D",
"|. c #6BBB2D",
" X c #69B726",
".X c #71BB2E",
"XX c #61A433",
"oX c #65AB32",
"OX c #69AE34",
"+X c #63A33B",
"@X c #6BAC3A",
"#X c #66A93A",
"$X c #73AB3A",
"%X c #66B232",
"&X c #6CB534",
"*X c #65BC32",
"=X c #6CBB34",
"-X c #6DB53A",
";X c #6DBB3A",
":X c #66B538",
">X c #70B636",
",X c #72BB35",
"<X c #74B43C",
"1X c #73BB3C",
"2X c #7AB53D",
"3X c #65C12E",
"4X c #6BC135",
"5X c #6DC139",
"6X c #65C233",
"7X c #73C235",
"8X c #73C23A",
"9X c #689A41",
"0X c #658E42",
"qX c #6CA645",
"wX c #77AC49",
"eX c #6FB342",
"rX c #6FB548",
"tX c #74B444",
"yX c #7BB445",
"uX c #74BA43",
"iX c #75B54B",
"pX c #7BB34B",
"aX c #76BB49",
"sX c #7BBA4A",
"dX c #78BC41",
"fX c #7DAD53",
"gX c #7AA855",
"hX c #7CB353",
"jX c #78B455",
"kX c #75C342",
"lX c #6EC341",
"zX c #80B647",
"xX c #83AB57",
"cX c #83B35B",
"vX c #81B651",
"bX c #84AD4F",
"nX c #86AB67",
"mX c #89B162",
/* pixels */
"$ A = $ = = A A A S 4 A $ $ 4 S # O 1 F S @ G # 3 G O F 4 - 4 = 6 = = = 4 $ T - ` 5 O = T G & % % @ @ @ & G &   = & & = &   @ & ",
"= D = = = = 4 1 4 A 4 4 # $ - D < . G A S * A O = S = G $ - = 4 = 4 4 = - $ - = G 5 $ $ - - - @ & & o % & G = @ & & = = =   @ $ ",
"$ 4 = 4 4 1 S S 4 S S 1 # $ $ < 1 O 4 4 S * S F A 4 4 = $ A $ - = = = $ 4 4 T G = + 5 $ $ @ @ @ @ % & @ O & & = & - $ = = & @ ` ",
"A D A S S 1 4 1 4 4 = 1 A F ` ` A P 4 * # S F G - = S 4 6 - $ $ $ T ` - G - G 5 ` 4 4 $ $   & = & & G & - & - -   $   & & & @ = ",
"A 1 1 S S S L F < 4 < 5 L F 4 < G S # 1 S L S L D - - $ - $ $ - @ = @ * ` ` G 4 4 = ` $ - - o % & % & & - & & @ = O - - A - A = ",
"L S A 1 1 1 S L D 5 = = L L L ` L J L S G L = S 4 $ = A } 5 = $ A G A * @ O = 4 A T $ O - - % % & % @ & & A A G @ @ @ & $ T = A ",
"L A 4 S 1 S S J ` 4 $ 6 J ` F ` P A L G G J # L 4 * = 4 ` 4 - $ - A - = $ @ 4 4 F 5 4 # % - o - % % @ & @ A G } @ $   @ $ - @ ` ",
"L S J D S 4 1 4 } 5 1 < ` ` D J G J S S 4 L # # O # S = = $ = - G - @ @ @ $ S S S < $ - & % o - % % & @ @ & @ @ `   } T ` = T - ",
"D ` L L 5 < 6 ' ` 6 5 ` D ` J J 3 S L F S S S # # # A 4 F 1 = # * @ % * * # S J S 1 S [ D * - % & @ % # F # 1 4 ` ` @ $ + T D 4 ",
"L 5 < ` ` S ` < ` ` D 0 $ J J ` # P ` L 1 + S L S J A S F 1 # G * * @ @ S G # < S ' 1 L * @ } % F 4 @ o = $ o # - ` ` = $ D 4 S ",
"0 L ` D 0 5 ` J < ` D ` $ 0 0 5 # < . . $ 4 $ 2 G 3 G G 4 4 S * + @ - @ 1 J J S H [ 4 ,.S . = @ L - @ # S @ = G   4 ` ` 5 < 4 4 ",
"5 D ' ' 4 < L H 6 0 D _ 5 0 5 ` + . $ # + 4 . S 1 3 S 1 G G S # @ @ O $ . G G J S <.S L S . # . F A . o D . S S O ` - 5 F 4 F 4 ",
"` ' 4 J K < < ' _ ` K ` _ J ` ` ,.[ L [ L P S 4 G S 4 F 1 A 4 A T 4 = + ` # S J L 2 <.,.L J L F F 4   # S 1 # # 4 J L S D 4 S L ",
"' 5 5 < + < X ` ` ` ' _ ] ` ` _ P J J L G P P P F A A S # 1 G 1 5 { G ` @ X $ 3 S J P H ' ' L X S S S . . = 1 L = S L J L 6 S L ",
"' J ' 6 H P < ` ` _ K J L _ _ J J G [ P L [ 4 S 1 F A # 4 = $ 1 ` { { { = $ < . # H [ H L P H ,.D S S . L L J @ S S $ 2 J S L S ",
"P ' K L H 3 K P P ' L _ L ` q J J L 1 3 G S 3 A S D A S # # O S T 5 ` ` ` + 1 [ ,.,.,.5 J <.S 0 S J S [ [ X 1 [ P H J J S J 4 5 ",
"` ' _ L H 5 ` _ _ ` _ ` _ ` J H L H < 6 4 4 4 A S ` - ` O O $ S ` 5 0 ` 0 + 0 _ 2.' <.0 K o.H H 0 0 H ' P X 3 [ ` 5 J H 2 P 3 2 ",
"H H K L _ q ` _ _ ' _ L J H H H 0 L D D S [ 4 6 D ` 4 S D ' ] D 5 T ` ` ` 0 J J D H +.S 0 J P ,.` K 6 0 <.o.<.' H K H H H H 3 2 ",
"H 5 ` K _ K _ _ P ' P P L H J J ` ' ` ` ` D L F S 1 # 6 { ` F L { ` T D D ` _ ' 0 H <.' o.,.P +.P o.' K ' o.,.P K <.S S J J P ,.",
"` q ' K J J ` _ P P ' H H q L ` 4 5 0 5 J 4 D 5 4 T ` 5 { <.<.J ` ` J ` ` _ L J J _ <.,.' U 0 P ' ' o.K ' ' P P H ' H P [ P ,.[ ",
"P H P J K K P ' J J P P J H H H ` 0 J 0 5 5.5 5 5 6 5 ` <.o.o.K 5 ` 5 5 H H ,.[ ' o.' 2.' o.0 H ,.K P P P o.K o.[ ,.' ' P P P H ",
"P J P P K L ` P S J o.P ' J H H ] J 0 D 0 { 5 5 q 5 ` _ _ ' ' J ` S S ` L J ' ' <.o.' <.o.' 0 0 ' K ' ' K P K ' ' ' ,.<.,.' J 3 ",
"P J P P ' J ' J ' P P P P P P ' H H 5 ' ] 0 T ` J ` ] ' ` _ J q ` ` ` ` H J J K ' o.' L 0 0 H P _ K P  .P ,.o.K ' ' K K P H P P ",
"P P P ' ' K ' K P ' P ,.P P J J J L 0 L D 5 1 4 H L ' _ <._ 0 J ` 0 ` ` 5 J 3 J o.<.o._ o.O.o.'  .o.O.<.K K K ' H o.P o.<.H P o.",
"P 0 <.J K o.o.H ' H J K ' ' ` ` H ' J S S ,.[ 5 J ' ' P o.K J +.5 D H J ,.P ' +.' o.`  .K 0 <.o.' o. .<.o.K K K K K ' K ' ' H o.",
"H 2.2.K ' K ' <.H ` ,.H H <.' H ' P P P J P 2 S L <.o.J K K K _ _ ` ` ' 2 0 <.' o. .o.<.<.o.<.'  .' ' o.,. .' o.+._ o.P ' o.' 2.",
"K 2.2.K ' _ J o.H o.o.J H o.' 0 P P P J 0 ' H 5 P <.,.L K ' K K J _ J q 6 L <.o.<.] ' o.O.O.o. .o.P o.o.+.o.o.P <._ <.+.' <.<.<.",
"O.q J 5.K q o.0 <.' o.o.<.<.o.o.P ,.3.P 5 5 2 K J P ' ' K J H K q <.J 3 <.<.' 2.<.o.o.o.' ' ' O.o.o.o.' o.o. .K q 0 _ o.K o.+.o.",
"_ w _ o.<.O.0 2.o._ J  .<.' ' O.P 2.,.' ,.2.<.5 J P o.2.<.K ' 2.+.<.2.<.O. .<. .O. .<. .o.<.' <.,.O.+.' ' o.o.' 2.<.2.O. .o.o.o.",
" .@. .2.<.O.<.2.<.<.o.O.O.o.@.@.o.+. .2.+.6 q J H o.<.o.' _ ' +.<.2.2.2. .o.o.o.O.o.o.' ' 2. .o.+.O.O.o. . .o.+.| o.| _ +.o. .+.",
"@.2.O.O.@.2.<.O. .2.o.o.o.o.o.o.O.2.@.O.o._ O._ o.,.2.O. .O.O.o.O.O.| O.o.@.2. .o.O._ q _ <.O.<.O.o.o.O.o.o.+.2.O.<.O.O.2.,.' o.",
" .@. .2.O. .5.<.,.o.' O.@.o.o.o.o.O.2.+.O.' _ _ | o.<.<.2.2.@.K @.O.o.o.<.<.2.o. .#._ q P o.<.O.@.O.O.O.4.o.o.2.2.O...@.O.o.+. .",
"#.@.@.O.@.O.<.<.<.<.O.<.O. .<.<.+.2.X.| 6.o.+.<.@.2.2.O.@. .@.@.@.O.@.@.<.,.2.<. .q 0 O.<.{ <.<.| Q ] 5.5.o.4.] P 1.$.! 2.<. . .",
"O.@.<.O.@.@.<.<.2.O.+.2._ O.<.' O.o.qXR...I o.| ..| O.O.#.O.@.@.X.#.| o.2.<.2._ K O.T ] [ 2.<.<.O.Q ] ] ,.2.O.5.2...xXT.@.+.<.<.",
"2.<.@.@.@.X.@.2.o...2.X...@.2.+.x ~ vXD.Z M =.xXhXwXcX..O.@.X.M Q >. .@.9 ..o.U 3.3.H H q #.] _ O.<.2.2.@.+.o.+.+.@.X.@.O.O.2.<.",
"1.2.,.+.X.O.<.o.@.4.o.@.Q ..n $.pX<X1XtXpXM / i G.pXN $.@.o.X.cX~ gX0X! fX> 6.3.U J 1.0  . . .@.<.,.U +.2.U =.U @. .#.@.2. .2.2.",
"+.@.,.@.O.O.<.<.O.@.<.o.+.%.X.~ dX=X=XdXjX/ $.W N.pX%.=.6.U ..fXV hXK.h yXt ~ ..2.H 3.K J | O.' <.2.3.6.+.U / $.X.#.Q X.@.7.X.+.",
"2.+.+.@.#.O.5.{ 5.' 3.2.| x Y.yX&X5XeXn.$.Q gXX.Y.vXgXM U =.~ V V gXhXtX<XyXwXY...+.+.w | @.-._  .,.1.....mXgXhX! Q mXT.! ! ../ ",
"1.2.O.@.@.O.5.] <.7.<.,. .X.) ~ aXg Y Y ..mX .@...M pXB qXqXqXhXY Y K.pXjXN 2XyXcX....+.....bXE +.@.@.| =.gXT.! ^ zXh R.fXR ^ pX",
"+.1.@.@.#.O.] ] #. .<.2.nX! Y.yXpXC 1.3.@.Q >.! v B @X<Xk C.tXh Z Z D.iXV ~ yXN.M %.=.gX0XW zXyX~ ! @.@.~ v $.$.E $XhXH.R sX@XuX",
"~ mXX.+.@.X...X.xXT.#.3.U U N.zXs fX2.3.+.%.$X2X&XdX;X;X1Xh.E 2X<X<X1X<XpX~ Q -.@.@.+.+.P.tXuX1XyXY...X.yXtXP.V tXyXV H.sXf -X1X",
"h wX) ......Q ! bXY.....Y ;.C.2XR bX+.1.2.N OX X7X*X;X5X>Xh.f >X=X8X,X1XtX~ -. .X.X.+.$.K.uX&X:X>XG./ ! pXsXP.C uXyXm R.tXf 1X1X",
"iXtX$XsXpXhX! $.v N C C iXeX;X<XR X.<.3.X.N s &X:X*X}.6X*X:X%X1X1X&XtXtXpXh / T.xX) M / G.uX(.8.4X=X1XsXW Q H.iXuX-XC I.pXs h h ",
"a dX1X&XA.Z Y jXpXC.a dXd ;X:XkXwX%.M Q V jX@X;X;X5X6X3X6X*XlX:X1Xk B N s yXxX9X! ~ pXW.#XkX:X(.3X3X=X2XW ) C a ;XaXrXI.h yXvXpX",
"oX<X,X8.C.uXV iX<X,X,X8X*X4X5X:XuX&XdXA.d ;X;X5X].].|.~.3X3X4X:X;XeXV.B aXXXv ..! ~ pX`.]..Xz.}.3X4X|.8Xf @XkX:XrXg ..P.hXs -X-X",
"j @X&X>X1XiXZ iX>X,X X,X=X=X=X5X*X=X|.7X=X:X5X=X,X{.,Xk.*X[.}.!.!.:XeXaXA.B jXP.$.wXh tX>X=X~.=X3X=X=X=X1X=X4X5X1XsXM ! ^ yX1X5X",
"d &X1X-XrXjXZ jX,X.X7X|.=X|.8X}.4X=X7X X=X5X*X4X,X,X<X!.[.[.=X!.!.&X=X&X_.p uXC.g iXg aXtXaXh.7X}.6X=X<X,X,X|.|.3X>XB ( s >X=X3X",
"&X1X;X8.p Z rXj ,X.X.X].[.a.z.|.=X=X=X8X*X=X4X=X].].=X~.!.).{.1X;XdX~.~.^.Z.;X;XuX^.j aXC.p kX=Xz.[.1X,X|.|.,X7X|.=XtXtX2X,X|.3X",
"=X{.{.).;X;X1X/.Q.{.=X%X[.:X[.a.a.Z.p.'.;Xd./.(.%X=X=Xa.1X].z.'.Z.^.d.^.!.d.,X,X,X1X%X:X;X;X=X}.4X*X=X=X|.z.~.7X,X;Xu.oX&X,X,X7X",
"~.*X).8X=X;X1X%Xp.Q./.%X:X1X&X/.d._.-X_.XX^.^.^.oX1X/.].Q./.[.Q.'.:X:X^.^.Q.,X!.a.k.1X:X=X=X).=Xk.%X;XkXk.|.7X,Xi.w.kXoX^.j.>Xl.",
"}.:X(.:X%X;Xi.'.[././.'.%X/./.'.s.9._.F.XX^._.^.!.^.`.g.e.Z.^.^.!.^.oX-Xs.!.p.'.,X8Xi./.!.=X|.|.z.~.!.g.8Xz.].1Xs.s.u.C.!.e.`.A.",
"%X&X!.%X1X1Xg.^.^.XXoX%X'././.oXS.9.L._.^._.Z.V.Z.A.&Xp.Z.V.L._.!.`.^.-XV.^.a./.8X;Xd.^.).[.6X XQ.!.!.~.1Xl.[.1Xu.b.b._.F.w.XX!.",
"<XA.oXe.e.e.<XuX@X&XOX'././.Z.d.c.rX_.b.p _._.^.Z.Z.e.f.XXL.E.G.f.f.A.L.#XZ.:X%X!.:Xi.:X%X=X=X&X;XoX^.^.Z.Q.OX-X_.S.S.c.+XXX_.F.",
"@Xu.C.q.y.e.C.f.f.e.e.g.'.oX'.^.@Xj t p t F.Q.V.s.s.`.`.h r.C.N C.y.C.C.V.p.g.!.=X1X1X;X;X:X=X1XoXeXeX_.^.0.0.C.S.b.b.c.c.s.u.b.",
"y.G.t.#XF.y.r.C.s.s.g.^.'.^.Q.g.8.@XZ.C.V.a ^.#XA.f.s.F.XXV.h oXE.n.n.n.c.tX%X=X8X{.i.8.9.9.s.V.^ B B C ^ F.C.c.C S.M.c.C.k q.E.",
"t.S.t.C.n.G.r.f.V.A.XXoX'.'./.`.oXZ.Z.G.^.XXV.Z.A.XXC.XXs.C.n.W.M.N N u C.y.1X,X=Xk.&X9.y.G.r.F.c.b.( C B +XS.n.Y Z D.c.k C.y.G.",
"x.S.t.n.c.C.u.V.C.A.^.oXoXoX^./.OXA.C.A.G.#XS.S.L.#XC.XXf.G.y.E.M./ v r D.c.;X1X>XQ.<X0.u.S.b.D.m.x.&.C ^ +XD.n.C Z M.n.^ y.V.F.",
"x.u h c.c.t.c.s.XXZ.s.oXw.oX:XoX`.oXq.y.t.I.p t b.+X+XB h r.n.n.D.B.&.Z Z B d q.h.OXE u.t.n.u B.m.( C *.( N x.M.u C C N y.B.n.n.",
"x.M.( t.c.D.c.b.c.b.y.V.s.V.Z._.u.F.c.b.c.P.c H.&.u u v.K.B.D.^ N ) N V c r g n.tXC.y.^ x.M.M.M.t.q.( N ( x.t.^ H.H.Z Z ^ B.m.( ",
"B.x.x.u ( M.t V.c.c.V.V.V.c.V.S.D.v.9Xv.l m l m l l c :.Z ( ( y ~ M.*.V m c ( x.M.qXB.M.H.H.N v h N x.m.^ ^ ^ K.Z v.v.x.u m.c K.",
"v.( m.u &.b.B.m.m.C.S.c.S.S.b.x.> r V 7 7 m :.c $.;.x.m ;.M : &.K.m.&.M ; m l V ( ( y i z ;.H.Z M.n./ *.&.( x.M.v M c &.M.v m.: ",
"v.V v.v ( B.K.x.m.M.M.x.H.B.B.v.; 8 b b 8 I U.x M ;.:.: &.I b =.N.H.:.7 ; m M v ) ! > : v ..J.M M.B.x.( *.v x.M.c / u ~ M.N :.c ",
":.*.v ( :.x./ C u Z x.P.m.v.V : 9 I I 9 9 z , %.*.*.z z b 9 I 7 x V Y b :...-.*.N.N.Y.x x 7 ; ; m V ;.m V C &.( v m.H.M.B.v ( , ",
"y v v : Z :.u u &.( &.y :.v r : 9 K w 8 9 7 z %.) ) y y 9 8 9 ; z m : e I =., ~ ) N.) > ; ; w l H.V > ;.U.r : c > m.M.B.B.B.N y "
};
