/* XPM */
static char *cropped__6_1695397109[] = {
/* columns rows colors chars-per-pixel */
"64 64 256 2 ",
"   c #6E3C37",
".  c #493F35",
"X  c #695506",
"o  c #6B4D17",
"O  c #754B19",
"+  c #6C5416",
"@  c #73551C",
"#  c #6F4F09",
"$  c #594A38",
"%  c #595136",
"&  c #6C4928",
"*  c #734A28",
"=  c #685628",
"-  c #755427",
";  c #6A4836",
":  c #744B34",
">  c #754739",
",  c #685639",
"<  c #795738",
"1  c #786A35",
"2  c #786416",
"3  c #563E5A",
"4  c #543C4E",
"5  c #753D46",
"6  c #693C48",
"7  c #533E63",
"8  c #59484A",
"9  c #5E5446",
"0  c #4E4458",
"q  c #544454",
"w  c #5C4453",
"e  c #5A4B54",
"r  c #54445D",
"t  c #5B455B",
"y  c #5B4C5C",
"u  c #564A57",
"i  c #5D5358",
"p  c #4D4342",
"a  c #664749",
"s  c #744343",
"d  c #7C4C44",
"f  c #7A434C",
"g  c #7A4C4B",
"h  c #754849",
"j  c #665649",
"k  c #7C5344",
"l  c #7C534B",
"z  c #775548",
"x  c #644B53",
"c  c #654757",
"v  c #784A55",
"b  c #64545C",
"n  c #6A5657",
"m  c #745354",
"M  c #7B5354",
"N  c #73535B",
"B  c #7A565A",
"V  c #786648",
"C  c #746B4F",
"Z  c #4C4665",
"A  c #544464",
"S  c #5A4563",
"D  c #5B4B64",
"F  c #564769",
"G  c #5E4E68",
"H  c #654B66",
"J  c #665464",
"K  c #745666",
"L  c #715872",
"P  c #776667",
"I  c #786973",
"U  c #947A16",
"Y  c #A27B18",
"T  c #9C5D36",
"R  c #875731",
"E  c #A65A37",
"W  c #987B2A",
"Q  c #896937",
"!  c #986538",
"~  c #8A7A39",
"^  c #957A38",
"/  c #8C7429",
"(  c #A67130",
")  c #834D48",
"_  c #83534C",
"`  c #835444",
"'  c #854C54",
"]  c #835353",
"[  c #895458",
"{  c #9F5C42",
"}  c #A65942",
"|  c #897B47",
" . c #957A46",
".. c #897A58",
"X. c #957B58",
"o. c #8A664A",
"O. c #A77A47",
"+. c #A87751",
"@. c #8A7A65",
"#. c #90776A",
"$. c #A87C6A",
"%. c #875260",
"&. c #97891D",
"*. c #9B931A",
"=. c #98930A",
"-. c #A49516",
";. c #ACA619",
":. c #ABA90E",
">. c #9A8A2A",
",. c #9C9127",
"<. c #998839",
"1. c #9E9234",
"2. c #8C8236",
"3. c #B68B2A",
"4. c #A69629",
"5. c #A68C38",
"6. c #B78937",
"7. c #A79537",
"8. c #B9963A",
"9. c #AB8D2A",
"0. c #AAA427",
"q. c #BCB82A",
"w. c #B7A939",
"e. c #BCB636",
"r. c #AFA731",
"t. c #C9B819",
"y. c #C99638",
"u. c #C7952C",
"i. c #C8B829",
"p. c #D7B72B",
"a. c #CAA937",
"s. c #D4AB39",
"d. c #C6B93A",
"f. c #DCB532",
"g. c #DBBA34",
"h. c #D7B638",
"j. c #CBAB2E",
"k. c #E1B937",
"l. c #C18F1E",
"z. c #C8C52B",
"x. c #D6C32C",
"c. c #CAC638",
"v. c #D2CD3B",
"b. c #D5CA36",
"n. c #D3D433",
"m. c #D4D43C",
"M. c #DCDC3C",
"N. c #D9D839",
"B. c #D3D332",
"V. c #E8CC2D",
"C. c #E6D52E",
"Z. c #E9CD36",
"A. c #ECD434",
"S. c #E5DE35",
"D. c #ECDC33",
"F. c #ECD43B",
"G. c #E3DD3C",
"H. c #EADD3B",
"J. c #E5D539",
"K. c #F3D739",
"L. c #DDE03B",
"P. c #E4E33D",
"I. c #E8E53A",
"U. c #EFE136",
"Y. c #C4C11E",
"T. c #8B8247",
"R. c #9C8B44",
"E. c #998749",
"W. c #8B8453",
"Q. c #978655",
"!. c #9A924E",
"~. c #A28B4A",
"^. c #A78948",
"/. c #B78946",
"(. c #AB9547",
"). c #B29C4B",
"_. c #B89749",
"`. c #A78A57",
"'. c #B58955",
"]. c #A79456",
"[. c #B69957",
"{. c #B5A54C",
"}. c #BAA947",
"|. c #B9A656",
" X c #B6AC51",
".X c #988C67",
"XX c #918971",
"oX c #A88864",
"OX c #A89669",
"+X c #B99769",
"@X c #A89B78",
"#X c #BA9676",
"$X c #B38972",
"%X c #B8A467",
"&X c #ADA378",
"*X c #B6A572",
"=X c #C79646",
"-X c #C58F51",
";X c #C7AB48",
":X c #C8B947",
">X c #D7B846",
",X c #C4AA58",
"<X c #CAB757",
"1X c #D5B756",
"2X c #D3A943",
"3X c #E5B350",
"4X c #C19978",
"5X c #C59765",
"6X c #C4A668",
"7X c #CBB966",
"8X c #D5B865",
"9X c #D5B47A",
"0X c #C5A975",
"qX c #CDC444",
"wX c #CCC54A",
"eX c #D2CC44",
"rX c #D4CD4B",
"tX c #D4C749",
"yX c #D4D244",
"uX c #DCDA43",
"iX c #D5D34B",
"pX c #DCD749",
"aX c #CCC455",
"sX c #D5CC53",
"dX c #D7C857",
"fX c #DBD354",
"gX c #D9D557",
"hX c #CED041",
"jX c #EACC44",
"kX c #ECD442",
"lX c #E2DD43",
"zX c #E7DA46",
"xX c #F3D647",
"cX c #E4DB56",
"vX c #ECCD50",
"bX c #DEE141",
"nX c #E4E344",
"mX c #EAE444",
"MX c #ECEA44",
"NX c #EAE64C",
"BX c #E9E84A",
"VX c #E9E453",
"CX c #F2EA47",
"ZX c #D7C868",
"AX c #D7C76F",
"SX c #E7D462",
"DX c #F0E765",
"FX c #867C84",
"GX c #AE9B84",
"HX c #B5A788",
"JX c #B2A48E",
"KX c #A39694",
"LX c #C39985",
"PX c #D7B687",
"IX c #CDAE92",
"UX c #E1CA85",
/* pixels */
"Z Z Z Z D q N M ] M 6 B _ d l v B x r Z 7 H r q w a c 6 %.5 > 5X[.).[.o ].5.|.].= '.#X& f f 5 > '.].* $Xs s * 9XO 8Xd.c.7.:XpXuX",
"Z Z Z Z r c n v g ] a M d ) M M B c r r 7 F D t w N c 6 6 a > '.[.).].+ |.~.(.[.o +XOX* d 5 s : '.).o +X>   * 9XO 6X:X:Xr.wXcXuX",
"A A y q 3 J K v M ' d ` ` k M B c c w t H F F 0 4 H K 3 S x ; + ).{.(.{.7.).7.E.+.& `.+.+.* $.* [.(.(./.`.PXPXo '.(.5.9.>X0.pXM.",
"r r t H K c 6 B B B _ d l l m a a N m N S 3 S y c K v a q 8 @XOX+X(.|.(.{.(.[.+X+X* `.O : oX`.'.>.4.<X5.# o o ^.(.5.5.5.7.4.pXlX",
"y G D 3 c 4 v a q e h a h N b x M g a a 8 N x w c a & OXOX@X9 $ OX].[.[.).[.* > #X* $.: > o 5.1XtXd.tXdX1X7.(._.5.(.(.(.7.r.;.jX",
"J q 3 L K 3 K 6 K N B m N e c N M M M m a M v %.m M < OX|.].8 x V - < < O 4Xs 5 * $X>   a #X5.tXd.tX:XtX<X7.>.5.(.).(.(.).7.fX4.",
"N x w N N c L 3 M d h B b r y K m g g M a B ' ' M k < +X`.#X$ 8 z z k R * GXh s ; #X> d & 0X5.1X8X8X1XwXaX4.,.,.7.(.7.7.4.7.cX4.",
"n N 4 a 3 3 3 c M _ l m b S c c B M ] v v c ' ) ] ) R * R k GXM B g g ) > & > : * +X* GX#Xo 8X7.@ o {.4.9.aX:XtXwX7.aX:XsXvXd.4.",
"w c H F 6 3 D w g l m w D y x N K c ' M N m ] _ ' [ ) ) ; s M M ] s s d +X'.+X+X[.# [.6X+Xo 8X7.o o _.X 9.aXwXrXeXeXqXrXc.d.pXeX",
"q 3 7 7 H 3 S t B m m 8 y y x m c 8 g _ m a g d '   '   ] ] M 6 5 ' ' d +X# ).).|.[.|.# o %X'.^.oX`.^.1X4.1XrXc.c.v.v.v.uXv.pXpX",
"r S F 7 7 7 3 S 0 u m m n e w c m l z k m M ' f 5 ' f f ] g g ] 5 %.v s   - {.|.o %X|.|.6X& `.; a > (.dX:X:XeXc.v.c.uXm.m.c.m.m.",
"7 F 7 F 7 F 7 G F r n m m x u q M k z z h M [ 5 5 f 5 5 ' ' g ] f %.v f > & |.).& *X).{.[.* oX; ; & 7.tX:XsXqXwX:Xv.yXM.m.c.M.M.",
"F F 7 A A A r H A t J K a 8 x J B h M M l z g g f ' f 5 ' ' 5 ' f f 5 s PX[.X + & OX|.{._.(.|.+ 8X<X*.:XqX:XaXX X aXtXz.n.n.z.uX",
"A A 3 r A 0 r t t 3 t G J N J x c N w a ; l z l ) 5 5 ) 5 v f 6 5 f 5 > * +XPXPX= - ;Xw.}.w.X 7XwXtXaXtXqXaX<X8X7XX qXc.q.m.n.v.",
"t 0 A 0 0 Z A r D A F F S c S S c L r r $ j $ j R R ' 5 5 5 5 s s   ) f   : > * [.dXvX0.r.}.ZXAXaXwX-.qXwX9.<.+ X dXd.v.pXc.qXeX",
"KXe 0 Z F Z r S S A F 7 S S A r w b F Z JX, $ JX0X4X) f f f _ d LX> 5 5 * PX: * ZXw.rXdXfXdX{.X 1.4.wXsX,.AXUXo <X:XtXd.c.qXtXsX",
"XXp 0 0 D A Z F D D A A S H r q $ z 0 0 JX9 $ HX0X0Xs v 6   [ R #X> h s & UXo X ZXr.dXZXAXAX[.X 7.,.hXsX>.AXPX+ aXwX:Xd.v.v.eXrX",
"% XXe i e y F 7 H J y q q q q e IXHXu y u j $ , = *   s > d   : 4X* ; & @ 9XAXZXr.dX{.X + o # 8XsXiXeXfXX X X ZX0.wXtXv.c.d.qXc.",
"XXXXXX.XXX$ 4 D A q p 8 p JXJX$ JXa y u w J H 6 , PX9X9XPXPX* & ^.^.`.=  .AX7XaXfXr.ZX7X9XUXX DXVXNXVXyXpXeXrXgXqXc.c.c.n.c.qXqX",
"8 % = &XGXn 8 J w e y P j GX@X$ h a w S c H c 3 ; @ R 9Xo * oX`.,X_.R.+ + ~ {.w.rXrX2 + X X DXcXCXMX=.VXB.BXVXc.yXm.yXm.n.c.qXwX",
"J 8 &X% b 4 J 8 n C w w q 8 9 P h a 8 w t K a M < PX- 1 < < oX!.(. X,X,XR.].1.,.rXrX7X+ X AXsXc.uXm.BXn.nXMXMXB.MXnXc.v.NXv.qXw.",
"i 8 JXj b 8 J 8 j n w t y u 8 P a a a n w N h d - PXz z l z `.(.1.<XqX X<. X!.1.fXfX7XX X ZXd.v.m.m.nXm.BXMXBXz.MXMXz.m.mXz.qXe.",
"j JXx n j KXn e P P #.I r S b K %.; , ; N a h ` k R oX< _ l < !. X:Xq.e.aX1.R.<.aX:XwXZXsXiXhXhXyXc.M.BXhXm.m.BXMXnXCXMXMXMXNXc.",
"j 8 b b 9 XXe i u 0 L e y t e x [ , #X#XM v ] ` ' ) < < ] k - ].w.e.e.:XgX}.1.>.*.d.eXc.hXe.iXhXyXiXiXhXVX;.:.BXMX:.I.I.N.MXBXz.",
"&XJXi J b e b b i 0 u u I u 8 9 HX& - & l M ] ) f > ` ` ) ) #X2 :Xw.}.w.sXyXsXsX}.c.hXBXbXiXe.aX1.0.r.wXc.VXBXBXCXL.I.L.I.MXMXB.",
"% % b y e i i b i G D I 8 P P C V %X%X+X: ] ) ) ' [ d d ' R 5X+ }.e.{.5.w.yXpXiX0.e.m.B.n.hX0.0.aXaX(.aXc.;.:.CXI.MXI.I.L.MXbXB.",
"$ e J i i u b i G D y I e I C C ~ %X{.[.* > ) _ ' g ] ] ' ) 6X2 <X}.{.7.w.fXtXrXe.r.rXiXhXhX0.0.hXhX0.aXaX4.r.VXBXMXI.I.L.MXBXn.",
"8 i i G i i J e G D i 9 e 8 % *X1 (.;X|.4X` ) s s > s f   > ,X}.}.7.<Xr.e.w.e.d.aXe.r.iXm.c.gXc.c.hXwX0.0.0.;.VXMXP.CXMXI.nXB.n.",
"&X% 9 y y i e i i i &XGXC C | OX/ {.}.|.+X) [ s > LX  > R O ,X:X}. Xw.:Xd.d.d.e.e.yXyXv.uXhXhXhXyXyX;.DXBXMXBXBXCXmX:.:.I.P.MXB.",
"T.&X9 i b u u FXi p % 1 V | 1 |.).}.r.|.:   d > & & > 4X+X5X}.:Xr.wXd.eXe.d.qXiXd.v.m.uXv.c.hXc.B.z.bX:.MXI.P.N.P.MXBXNXL.MXI.S.",
"= &X&X9 j b J A A 8 ..W.| OX*X+  X{.{.[.> s * +X%X[.> > 6X,XX ZXrXhXeXd.fXq.pXyXm.q.B.BXBXBXn.M.uXbXVXbXS.S.P.MXI.I.MXBX;.VXBXN.",
"1 &XGX, j 9 e y A e ..| T.%X&X= |.{.{.%X> > * +X|.%X: & ,X,X# ZXiXm.yXq.rXe.yXyXm.q.z.BXnXMXB.uXbXbXBXbXM.L.P.MXMXI.BXBX0.DXBXn.",
"$ $ j HX&X| XXq y q C = T., , , = |.%X%X#X: & * * * 4XO w.}.@ %XdX;.q.hXhXyXe.q.n.N.c.m.n.m.m.bXP.I.B.bXuXM.P.L.BXN.n.N.uX0.c.iX",
"KXn P V 1 @XXX8 q 8 XX......@., *X%X+ @ +X& : LXLX> 4Xo ZXdX* = AXgXaXsXiXiXiXiXhXhXq.pXVXuXm.n.L.L.uXuXnXbXL.M.L.P.B.N.bXhXgXhX",
"% 9 x j % ..x i j j $ @.XX....W.2.{.|.5X< ; ; ;   : : 5X=Xw.+ o Q.o + AX:X=.iXhXhXiXc.DXZX,.yXN.b.n.VX=.M.bXL.bXL.nXz.B.bXbXbXY.",
"W.@.j a j @.9 9 @.W.8 #...| | T.{.{.}.[.#X; > #XLX* > * <X}.AX`.oX- o AXZX:XyXhXaX*.aX,.1.,.VXbXlXpXgX-.bXB.B.L.L.L.nXbXbXY.L.L.",
"W.XX8 a 9 ..j 9 W.T.% ..X.| T.2.{.{.}. X#X, & 4X#X* ; & ,Xw.dX5.<.+ X AXZX XhXhXgX&.ZX<.1.1.VXN.M.zXVX=.yXN.B.L.bXbXL.n.uXz.L.L.",
"W.% n #.@.XX#.i P .X....| | T.^ 2. X1.<.X.& : & * +X: *X X}.:XaX1.AXZXgX*.gXiXgXsX&.2.1.!.ZXyXL.nXpXiXiXuXn.L.L.bXN.L.bXbXgXbXN.",
"!.= 9 t b i b b b 9 ..X.z , 1 | ~ 2.{. X[.`.& * O |.|.|.<Xw.e.dXsX}.e.}.aX1.1.2.1.>.1.AXZX*.pXm.uXm.pXv.n.L.nXL.=.iXuXm.e.c.bXz.",
"*XHXe J F G i i i j ..| ..W.o.*X*XT.{. XW %X`.6X+X[.,X}.>.,.}.e.e.qXe.*. X,.7X X<X1.:X*.,.cXiXuXM.yXgXhXbXL.L.z.bXz.bXyXc.pXq.yX",
"9 9 b D y i i XXi j W.T.~ |.6X2.|.T.~ 2.,X:X{.5.^.^.(.9.8.}.>.<X:X}.a.:Xd. X<.R. X,.cXd.q.cX=.fXbXyX*.gXc.z.q.nXbXbXM.M.nXpXiXz.",
"x e i u i 9 9 XXj j ..W.2. X|.2.|.T.| 2.;X}.}.1.<.^.}.>.w.;X7.1X<X;Xw.:Xq.:X<.!.7X,.gXz.q.zX=.cXm.uX*.gXc.c.q.pXuXbXP.M.m.uXgXz.",
"c J 8 XXXX% 9 W..XoX].~ *X2. .%XT.| ].~. X X{.1.^.5.:X}.<X,X X>.1Xe.q.r.i.sX5.5.<.1.fXcXuXm.nXm.n.iXVXrXgXq.z.lXbXuXM.nXlXuXuXz.",
"n 9 XX% % HX% %  .^ ~ `.T. .| T.T.2./ ~ 2. X|.|._._.w.<X5.1.7.;Xw.tXd.jXrXd.dXZX>.<XfXi.z.nXB.M.bXuXgX=.gXi.z.M.z.nXlXM.uXm.nXuX",
"W.XX9 j % , Q.#X .! ^ ^  .| T.~ T.Q 5.^ ^.R.).)._.6./ 7X<.<.}.:X9.w.d.a.w.j.s.a.s.s.a.vXeXpXM.P.nXP.uXVXc.NXM.P.lXlXN.nXlXz.z.cX",
"W..XC j C OXQ +.T T ! ! 6XE.].].| ~._.[.R.^ ~ R.6._.).^ T.~ 5.;X;X>X2XdXh.j.j.f.f.vXh.h.d.i.uXS.L.S.z.m.pXG.G.I.S.N.NXuXM.lXz.q.",
"T..Xj C z oX{ +.E E T T 6X(.!.Q.^ ^._._.^. .~ E.^._.[.2.C T.~.,Xw.>Xa.jXs.j.s.j.f.xXj.j.s.d.M.S.M.G.z.I.N.P.I.I.S.M.zXzXlXP.z.i.",
"W.1 % .XoX! { } E E { +.^ ^ ^  .].).=X_.[.E.T.E.^._._.~ | W.T.~ ;Xa.>Xj.s.vXh.d.j.p.K.p.d.j.zXzXH.G.S.S.S.S.S.C.S.P.q.z.S.nXM.mX",
"T.].].1 Q /.E E E E E O./ ( O.T Q ^ ~.`.~ Q.R.R.^.O.=X>.| C W.| ^ ;X2Xs.Y s.j.j.zXi.F.p.h.d.i.i.zXxXG.S.U.S.S.U.I.P.mXlXt.S.U.U.",
"T.1 ].].`.'.'.E T ! ! R 5X( T T 5X^ Q.Q.!.T./ [._.( 8X7XT.T.T.2.^ ,Xs.s.2X;XSXcXzXJ.x.p.h.h.F.zXp.i.t.I.C.S.U.U.D.S.G.P.P.I.J.I.",
"Q.= Q.Q Q `.~.~.^.~.^.'.T T E } ^.Q.| | ~ ).2._./.1X/.~ C T.8X3.a.a.a.y.W ,X^ / cXc.p.F.xXp.H.zXi.p.xXmXS.D.U.H.G.H.S.mXH.H.H.H.",
"#.< ].Q Q ].!.!.].].`.'.T E } { ^.T.T.2.<./.>.7.w.1X5.2.~ ~ 1X3.s.a.s.2X( ,X~ >.gXp.p.kXkXp.G.H.i.j.zXzXH.MXG.P.J.mXmXS.P.mXH.mX",
"z ..Q E.].!.~.R.X.`.`.{ +.T T ! ~.~.0X7X1Xy.:XaX1X1X8X5.>.2.W 1X6.;X2Xy.s.s.>Xa.b.jXp.p.V.jXH.N.kXkXkXN.lXlXNXi.z.lXz.Y.CXt.C.H.",
"X.V .X].].].~.^ - < { +.'.O.( / ~.~.>.W 3X3.>X1X<XU 6.1X<X<X1X(.^ >.Y s.s.k.p.f.j.K.xXkXA.p.H.C.J.xXG.i.uXi.i.i.zXi.G.P.S.C.CXH.",
"X._ | W.T.!.].Q.O. .Q '.^.).|.5.~.~.1X>X3.3Xy.3.9.1X6.6.^ ^ ^.W 7X/ W W >Xk.j.p.g.g.g.jXxXt.C.x.p.p.lXzXi.VXVXcXi.N.P.mXG.U.V.V.",
"X.> Q.!.!.!.| < ! ! - `.Q.R.<.~.E.5.9.3.3.3.3X3.3.8.6.W (.^.>.,X/ 7X1X1Xh.>Xg.p.p.jXf.xXF.D.A.F.i.p.F.zXi.i.d.zXp.NXS.S.S.V.A.xX",
"X.= T.].R.(...< Q o.> +.oX`.5.R.R.R.5.6.6.6.3X3.6.3.6.Y 6.6.Y 1XU <X>X>Xh.h.h.c.s.vXf.vXxXxXF.J.p.p.jXkXi.i.p.eXi.zXD.D.D.A.Z.K.",
"..OXX.Q Q `., $XoX`.R R - '.[.R.`. .(././.y.1X8.8.=X/.=X=Xu.1X2XY 1X>Xh.d.g.h.p.k.s.k.k.j.p.H.F.Z.Z.x.Z.N.i.h.xXkXU.D.U.D.D.A.A.",
"W..., l < < $.g < : R /./.-X5X^  .X.|  .! ^ ^.7X8X^ ).,X/ ( (.1X>Xh.f.k.h.f.p.p.k.f.K.k.f.g.xXt.F.K.i.t.xXjXk.p.xXkXU.U.K.V.K.K.",
"W...j M l #._ s ` R -X5X-X/./.* O `. . . .].~ / ~ ~ W 6.(.'.^ 6.>X>Xh.h.k.k.p.k.k.k.f.p.g.f.kXp.p.f.Z.kXF.i.p.Z.F.F.H.U.D.V.A.K.",
"W.Q.9 #.X.< X.X.) R R -X-X-X5XR -X( -X/.# 6X`. .X. .=Xy.=XO.'. . X&.>.>X2Xh.f.k.f.f.p.k.k.f.k.f.f.p.F.Z.A.A.Z.V.V.U.D.D.C.K.V.K.",
"C T.j #.#.< X.X.f ) R -X=X=X-X# /.=X( -XR 8X/.^ |  .( y.( =X/.W 7XU U 1Xh.h.h.k.k.f.k.f.p.f.f.k.f.f.Z.Z.A.V.A.K.V.K.K.D.V.K.V.xX",
"% OX@._ d ) < ` ' > './.y.y.u.=Xy.O.O O 2X3X8X/.'.( =X1Xy.u.u.y.9.>X>Xh.g.vXh.f.f.p.f.k.k.k.f.k.f.f.f.Z.K.V.A.V.V.K.K.D.C.A.A.xX",
"Q.OXk k ' $XR [ h > -X( =Xu.u.u.( /.'.'.# 1X3.6./.6.9.Y k.3Xl.>Xu.s.h.g.h.g.h.f.f.xXf.k.f.k.f.f.f.f.Z.K.V.V.A.V.K.V.H.A.C.D.F.A."
};
