/* XPM */
static char *cropped__7_1695397109[] = {
/* columns rows colors chars-per-pixel */
"64 64 253 2 ",
"   c #722D96",
".  c #791DB4",
"X  c #7726A8",
"o  c #7528A7",
"O  c #7E19CF",
"+  c #821DB9",
"@  c #8734B7",
"#  c #862EB5",
"$  c #8B57A9",
"%  c #964CBA",
"&  c #8E54B4",
"*  c #9758B7",
"=  c #9354AC",
"-  c #9468A9",
";  c #9865B7",
":  c #8A64A1",
">  c #A265BB",
",  c #89649A",
"<  c #8A1AC9",
"1  c #8E0CD9",
"2  c #930BDC",
"3  c #8B17D3",
"4  c #9314DB",
"5  c #9517D8",
"6  c #910ECE",
"7  c #8C24C6",
"8  c #972DD4",
"9  c #A63BDA",
"0  c #9407E3",
"q  c #940CE5",
"w  c #9A0DE4",
"e  c #9604EB",
"r  c #9B04EC",
"t  c #950CEB",
"y  c #9B0BEC",
"u  c #9A05E5",
"i  c #9513E3",
"p  c #9C12EC",
"a  c #9818E7",
"s  c #9703F1",
"d  c #9C03F4",
"f  c #9C0AF2",
"g  c #9D02FB",
"h  c #9D0AFC",
"j  c #9606F5",
"k  c #9C15F5",
"l  c #8C0EE4",
"z  c #A409EC",
"x  c #A51BEC",
"c  c #A418E8",
"v  c #A104F5",
"b  c #A20CF4",
"n  c #A302FE",
"m  c #A904FF",
"M  c #A40BFD",
"N  c #AB0BFE",
"B  c #A90CF4",
"V  c #A313F4",
"C  c #AA15F5",
"Z  c #A31BF4",
"A  c #A512FA",
"S  c #AC14FE",
"D  c #AB1BFD",
"F  c #A81BF9",
"G  c #B116FF",
"H  c #B21BFF",
"J  c #B81CFF",
"K  c #9D2EEA",
"L  c #A52BE9",
"P  c #AA3DE5",
"I  c #AC3BEB",
"U  c #A737E9",
"Y  c #B238ED",
"T  c #AE2BFD",
"R  c #AB27F6",
"E  c #B524FF",
"W  c #BB25FF",
"Q  c #B42CFD",
"!  c #BC2DFF",
"~  c #B32CF3",
"^  c #AC35F3",
"/  c #AD33FC",
"(  c #AC3CF3",
")  c #B334F3",
"_  c #B433FE",
"`  c #BB33FE",
"'  c #B43BFC",
"]  c #BB3BFE",
"[  c #B639F4",
"{  c #C325FF",
"}  c #C42BFF",
"|  c #C92FFF",
" . c #C434FF",
".. c #CB35FF",
"X. c #C43DFF",
"o. c #CB3BFF",
"O. c #D23BFF",
"+. c #D335FF",
"@. c #8F49C3",
"#. c #9949C7",
"$. c #9B56C6",
"%. c #9D48D4",
"&. c #9E55D4",
"*. c #A14CCB",
"=. c #A243CB",
"-. c #A35BCD",
";. c #A557C9",
":. c #A344D4",
">. c #A24BD3",
",. c #A243DC",
"<. c #A94BDB",
"1. c #A749DB",
"2. c #A352D2",
"3. c #AC54DB",
"4. c #A959D9",
"5. c #B552DC",
"6. c #9864C4",
"7. c #A462C7",
"8. c #AD65D8",
"9. c #AB43E5",
"0. c #AB4DE3",
"q. c #A945E7",
"w. c #B34CE4",
"e. c #B34DED",
"r. c #B142E7",
"t. c #AD53E2",
"y. c #AD56E6",
"u. c #B354E8",
"i. c #AC46F4",
"p. c #BC4CF3",
"a. c #BD44FE",
"s. c #BD4BFE",
"d. c #B645F6",
"f. c #B852F4",
"g. c #B860E9",
"h. c #C342FF",
"j. c #CA43FF",
"k. c #C34AFE",
"l. c #D44BFF",
"z. c #C55BFE",
"x. c #C959FD",
"c. c #D755FF",
"v. c #C863FD",
"b. c #CE7AFE",
"n. c #DD73FF",
"m. c #D57CFF",
"M. c #DC7BFF",
"N. c #D577FC",
"B. c #D176F7",
"V. c #EA6CFF",
"C. c #F46AFF",
"Z. c #E375FF",
"A. c #EB72FF",
"S. c #E47AFF",
"D. c #EA7DFF",
"F. c #F67AFF",
"G. c #AC91BC",
"H. c #BC98D3",
"J. c #BE9ACB",
"K. c #BEA4D6",
"L. c #C698DB",
"P. c #C492D4",
"I. c #C8ACDA",
"U. c #CBB9D8",
"Y. c #D3BADB",
"T. c #C9BCCE",
"R. c #C993E5",
"E. c #CD85F7",
"W. c #DC83FF",
"Q. c #D487FB",
"!. c #D89BFA",
"~. c #CC90E7",
"^. c #ED8DFF",
"/. c #E386FF",
"(. c #F48CFF",
"). c #FC8DFF",
"_. c #F584FF",
"`. c #E494FF",
"'. c #EB93FF",
"]. c #E39BFF",
"[. c #EC9BFF",
"{. c #F394FF",
"}. c #FD94FF",
"|. c #F39CFF",
" X c #FE9AFF",
".X c #CAA8E5",
"XX c #D5ABE8",
"oX c #D3B5E3",
"OX c #D5BBE5",
"+X c #D2B2EC",
"@X c #DAB9E9",
"#X c #DBA4FC",
"$X c #DCACFA",
"%X c #D6A8F4",
"&X c #DCB6F5",
"*X c #CDB5E5",
"=X c #E3A3FF",
"-X c #ECA4FF",
";X c #E3ACFF",
":X c #EBABFF",
">X c #E5A7F2",
",X c #F2A4FF",
"<X c #FDA3FF",
"1X c #FEACFF",
"2X c #F4ACFF",
"3X c #E2BCF4",
"4X c #E3B2FE",
"5X c #ECB3FF",
"6X c #E4BCFE",
"7X c #EBBCFE",
"8X c #E4B4F5",
"9X c #F4B2FF",
"0X c #FDB3FF",
"qX c #F4BBFF",
"wX c #FDBCFF",
"eX c #E1B9EF",
"rX c #D6C4DB",
"tX c #CEC0D7",
"yX c #DAC5E6",
"uX c #DEC5F8",
"iX c #DED7F9",
"pX c #E5D8ED",
"aX c #E4C4FC",
"sX c #ECC3FE",
"dX c #EBCBFD",
"fX c #E5C9F7",
"gX c #F3C3FF",
"hX c #FFC3FF",
"jX c #F2CBFF",
"kX c #FFCCFF",
"lX c #EDD2FD",
"zX c #EBD8F6",
"xX c #F3D4FE",
"cX c #FED4FF",
"vX c #F5DBFE",
"bX c #FEDCFF",
"nX c #F3D4F6",
"mX c #E0C0E9",
"MX c #ECE3F4",
"NX c #EDE7F9",
"BX c #F3EBF4",
"VX c #F4E3FD",
"CX c #FEE3FF",
"ZX c #F5EBFD",
"AX c #FEECFF",
"SX c #F3E6F5",
"DX c #FDF4F6",
"FX c #FDFBF6",
"GX c #F5F3FC",
"HX c #FEF4FF",
"JX c #FEFBFE",
"KX c #F6F7F8",
"LX c #F0EBEF",
/* pixels */
"ZXBXBXZXJXJXLXKXBXVXkX5.w.cXCXJXJXGXJXJXHXHXJXJXKXJXJXJXHXHXJXJXDXJXJXJXGXHXpXJXHXHXHXBXHXZXSXZXVXU.GXZXVXvX7X;X;X$XaXxXZXZXZXVX",
"HXHXGXBXAXAXBXLXHXAX;.<.w.;.bXZXHXJXGXGXJXLXNXJXJXJXBXMXSXDXHXJXHXJXHXGXzXpXpXHXpXVXAXVXHXHXSXGXVXZXzXNXVXCXsX$X#X$X4XlXCXVXVXVX",
"GXSXAXAXVXAXHXGXZXCXbX3.0.u.CX- DXGXDXDXJXJXGXJXGXJXJXJXBXBXVXVXSXAXHXHXDXHXvXVXnXfXsXI.fXHXHXAXHXNX@XCXbXCXaX$X!.!.%X6XlXVXVXZX",
"ZXNXZXAXVXAXHXHXGXHXCX; 4.&.bX; HXJXFXDXBXJXJXJXJXJXJXJXCXbXCXVXVXVXHXJXJXAXVXbXpXnXjXoXuXHXHXAXHXCXoXbXCXCXdX%X!.!.#X6XxXbXVXVX",
"AXAXHXBXAXSXZXZXGXNXJXHXAX; CX; AXZXDXHXJXHXHXJXDXDXDXAX* $.cXCXCXK.HXbXAXHXSXAXHXOXY.AXHXGXvXCXY.CXY.bXCX+X+X+X&X&X3XdXxXbXnXVX",
"NXJXJXDXJXAXZXSXJXJXKXJXHXHX- CXAXHXHXAXAXHXGXGXAXAXAXAX&.bX$ AXAXCX: vXCXvXvXAXHXCXAXU.HXJXU.oX@XcXbXOX+X+XCXvXlXdXfXnXnXvXvXCX",
"ZXJXJXFXJXDXAXZXAXJXJXJXHXAXAXAXAXHX, ZX%X.XK.*XCX$ AXbX&.&.cXAXCXcXcX4XAXJXcXcXI.HXAXpXJXHXJXHXoXbXCXCXvXCXbXCXlXlXfXzXvXvXvXzX",
"GXJXJXLXFXLXJXJXJXSXJXHXJXDXAX- CXCXAX!.!.#X%XCXbX* * $.%.cXCX; $.4.>.% HXAXR.; AXiXlXOXAXU.JXHXVXCXaXcXcX= jXbXdXlXfXlXxXlXvXvX",
"NXJXJXBXFXLXFXJXHXAXHXJXHXGXAX; bXcXCX!.!.%X!.bXcX* * * <.cXcX-.3.0.q.<.bXCX~.* AXiXdX&XCX%XHXDXSXvXsXkXcX#.qXcXdXlXdXfXcXxXxXxX",
"GXSXSXJXLXJXJXKXJXAXT.U.U.I.+XCX6.6.!.7.>X!.!.7.* CXCXCX3.0.0.y.e.wXr.S.3.2.Q.kXcXAXCX!.-X  sXfXpXfXcX% >.2.* gXsXsXjXaXdXdXaXxX",
"JXKXSXHXGXJXJXKXLXJXT.JXJXU.AXCXbXCX=X].].!.`.2.bXAXAXCX-.cXf.i.e.d.s.i.I 9.W.#.>.<.<.|.|.2X>X&X%XbX& $.#.hXkXgXsXdXlXvXxXmX3XjX",
"JXJXJXvXGXNXKXJXJXJXZXHXHXAXcXoXY.@X=X-.-X[.^.u.%.$.CXCX8.q.d.a.h.k.U Z.e.<.hXQ.M.+ X |.% 2X1X9X#X$XcX0X0X$.* $XsXdXaXlX@XdX@XcX",
"JXGXZXvXzXMXJXJXFXJXHXOXXX8X; bXHXCX; cX`.y.p.[ k.K i.0.U ' h.] Y Y D.#.CXCX&.E.kXcXhXR.7X5X3 3 -X$XbX6X9X@.$.0XqX6XuXaXvXfXlXfX",
"JXBXSXVXMXzXJXJXJXHXHXXX%X%X> CXAXAX; cX`.9.k.[ d.( ( ' d.r.s.Y X.d.M.#.CXAX$.Q.cXcXcXR.sX5XO 3 [.#XcXgX5X$.% wXgXsX&XaXlXfXlXfX",
"JXJXJXJXJXMXNXzXHXU.oXAXCXCX; CX%XXX-X'.'.'./.3.=X-Xe.e.cX;.cX<.9 i.kXf.0.2.cXR.L.L.~.~.  0X9X9X1X>.% = * 5XkXkX7XgX4X7XaXjXsXjX",
"FXJXFXJXJXHXVXCXHXY.AXY.oX&XCX%X=X-X2.3.<.t.3.[.%XbX;.*.cX].!.].(.9.e.9 ,.*.CXL.cX7XqXcX1X  sX7X  1XkX0X9XcX:XqXqX2X& qX7XsXsXgX",
"JXFXFXFXJXJXHXHXHXT.HXJXAXL.CX; 3.e.t.{.u.<.2.-XbX- AXCX;.:.].`./.9 P #.qX7XP.0XaXbXCXaX7XqXsX6XcXqX% *.>.%.%.0X8 8 8 @ qXsXsXsX",
"FXJXJXJXJXVXOXOXJXJXJXJXHX+XH.CXy.e.'.3.^.u.3.cX6.CXCXCX*.(.*.].'.%.'.1XCXAX0X= cXjX&XbXdXvXsXsXsXqX9X0X<X1.9.i./ ' 8 1XqXsXsX7X",
"JXJXKXJXHXNX@X+XJXHXJXJXHXI.L.cX&.t.[.;.|.<.4.cX;.bXCXbX*.'.#./.`.1.!.9XCXCX,X% kX0X0XcXuXAXaX7X7X7XsX7X9X>.q.I ( i.# 0XqX6XsXaX",
"JXLXMXJXMXHX+X@XHXtXGXJXHXHXCX~.:X-X,X[.y.'.'.*.cX-.;.;.cX[.'.1.%.[.[.@.#.#.#.1X9 =.>.@.cXuXqXqXqX* 6XqXwX1Xt.0Xs.f.0X5X7XaXaXdX",
"HXVXMXzXHXHXAXHXHXOXY.P.J.H.#XR.AXAX!.0.{.9.,.(.9 :.9 % %.!.:.(.^.'.'.:.9 U 9 1X0X%.9 #.0X* 1.:.1X9XqX* % % wX3.p.k.9X7XdXuXuXuX",
"MXzXzXHXvXvXU.Y.AX@XXXCXAXAX4X%XJXHX2Xf.e.,.0.,.P (./.Q.kX%.1.=.#.'.#.).] _ 9.<X<X#.,.<X0X<.Y Y $.qX0XqX0X0XkX0Xx.p.-.gX6XxXbXaX",
"JXpXVXlXvXoXJXHXHXOXoXAXAXAXAXJ.HXAX%.d.P <X=X].t.W.B.W.:.(.'.`.'.!.0X`.( _ ' ( 1X+ X wXP Y ] Y wXaXdXdXjXkX0X@ w.u.8.gX7.hXkXI.",
"JXMXzXvXxXOXHXJXHXY.yXAXHXHXHXP.HXAX%.a.9 |.-X=X3.W./.M.9 (.^.'.'.'.2X'.( ' / / <X+ + hXi.I r.:.wX6XjXdXjXgXwX7 s.p.y.0X4.wXkXR.",
"SXpXSXHXJXHXJXHXJXU.tXJXJXHXAX$X;.;.I a.p. X|.:.{.N.-X|.9.I _.U U U 9.(.L ` T l ] Q ` 3 <X>.wXgXwX* %.$.= wX:.( a K 1X1.3.0X0X!.",
"HXHXHXSXpXAXDXJXHXyXHXHXJXJXH.$ -X,X9 d.w.5.<.p.M.3.B.B.n.U U ^ _ _ 3 U ` ~ _ t E f r _ < 1XgXjX0X. 1.1XwX1X1X( Z k ' U e.u.4.0X",
"HXY.yXAXHXJXDXGXT.JXG.HXHXHXHXOX&X;XW.}./.5.t.{.[.E.E.E.b.i.M.< 1 _ _ _  . .w t v n v v 0 F.hXqX$.'.0X=.>.1X1X9.' / T h.L <X<Xy.",
"AXyX@XAXHXtXHXHXJXAXHX@XY.Y.JXHXHXAX#.=.B.|.[.&.=XE.N.M.gX. ( ' ] T ` T ` ! Q ! g m v v n 4 ].#X`.,.wX4.y.9.r.Y ' _ F F 5 a 8 e.",
"ZXyXyXCXAXyXJXJXJXJXJXY.Y.Y.JXHXAXCX*.9 E.>X:X@.[.B.v.M.kX. U ] ' ^ Q ! ` ` [ ` f g d v g i Q.!.'.,.0X8.y.q.I [ ` W C V C R c k.",
"ZXHXAXAXrXJXJXHXJXJXHXHXAXCXOXHXL.Q.{.M.E.=X,Xb.b.u.7 < N.M.5 2 3 0Xi ` _ [ _.~ t W ` w t 4 {.^.< k.0X0X<X( ] _ `  . .V | ! ` h.",
"HXHXHXAXT.HXyXyXHXHXAX, $ 4X8X$X@.%.U 9 M.M.n.9.N.{.N.W.< < V.C.V.5 ] Q / _ F.p 0 ! ( _.,._.4 2 w I <X0X1X( / _ !  .` Q _ _ / ' ",
"mXCXAXrXJXHXAXHXyXHXAXAXbX& CX4XQ.Q. X9.n.9 U U P M.m.N.M.V.[ [ X.` q t Q Q i q  .Q Y _.^.).e m d  .1X+ 3 2 k.x C x Z i _ k.s.s.",
"8XeXyXHXY.CX3XeXyXAXJXHXbX& AX&X4X=X|.=.9 n.S.U ^ Y i.P S.Y 2 ` ! 0 ! q ` _ Q ` t ` ) a.~ i d g g j Z x F u D C C C F k _ ' ' s.",
"eXfX@XAXOXbX@XfXyXHXGXJXCX$ CX8X#X:X,X9 9 D.D.U / Q ' d.Z.i.4 ` ` p Q 2 Q ` ` _ p ` ! ! W r g h g g S S C z C C S A D R ` _ ^ k.",
"yXAXHXHX@XyXHXHXHXHXJXGXAX;X;X~.2X-X#.M.q.K i.U ^ ~ ~ Y 9 D.) ] ` Q E ] Q Q q ` t ! !  .y { M g } S D C c }.j.c Z F ] k Q k.k.h.",
"DXHXHXU.+XHXHXHXY.Y.HXHXCX> $.bXQ.E.E.Q.M.M.A.^ ^ _ ! ~ F.S.A.1 q ! ` 2 Q E k Q y ! } b W b n n v d V V L c <Xa a R a.h.a _ ] k.",
"HXrXrXJXyXOXAXAXAXCX@XCXcX;.5.2.bXbXbX= r.Y R ' Y Y _ _ Z.( ` ` _ Q Q ` ~  .! ! d r v r | } d n { M M A F h.l l a.s.k.k.a ` T Z ",
"HXHXJXHXHXHX3XXX+X8X4X4X,X4.,X-.> ; cXcX9 ` ` L Y V.' / ^ ) ' ~ _ ` Q _ ` Q e d W M g d v v N d v v g v y t k a.k.k.k.k.R R R ` ",
"HXJXHXJXAXHX@X8X4X4X$X&X;X* ;X6.6.6.CXbX9 ~ / / / A._ ] I U ' / _ _ Q ` ` Q f h W g g n v v s n v m n n g h t X.j.h.j.j.Z D S W ",
"yXHXHXtXOX&XCXAX$X; cX4X-X:XbXCXcXbX; % 9.a.a./ 3 U ' ^ V.a.^ / / / ) _ ! Q f d h g n n d v m v v m n n g s o.f t y j.o.y D H D ",
"+XAXHXU.AXCX-X:XoXAXcX-.y.3.[.7.CXCXbXbXW.P U U 9 S.P U ) V.T _ _ 1 6 A.Q Q W d h g n M g d | { { m n n v +.g h g h ..u g S S H ",
"8X.X.XHX%X> * - AXCX5X-.<.t.<X[.-.* CX$ Q.M.M.M.W.M.W.n.4 o.` T T V.4 _ ` !  .W g g h J } g d v m v n n r N n g g d M M h g f D ",
">XXXL.CX:X* CXAX@XCX&XbXcXX -X:Xy.2.4XbX$.|.,XW.M.3.W.S.w d W t a T ` Q ! E Q f g h g n n g g v v g n n n d m n n N M H S A D D ",
",X>XXXCX-X7.CXCX8XbXXXbXcXo 5X=Xu.u.=XbX$.-X-XQ.m.0./.Z.u B ! 1 1 ` Q Q ` ! W d g g g n h n g d n g g n g n g n g d H D D D R F ",
":X>X8X8X-X-X$X4X$.o 9X  o =X$X-X{. X|.o @ -X;X=XW.D.3 2 z 2 6 h.X.t q ! ! E f d g n n g n n g m g g g g g m g n n d J A D D D F ",
":X2X2X-X,X4.5X#X,X'.cXcXcX:X=X,X+ < p.{.,X,X5X;X+ ).0 y C.6 A.V.C.e ..s d d d d f d g v g n n n v n n n n n g g g n S H E D D D ",
"< < < < < |.:X:XX # kX<X|.cX1.r.d.a.}.}.7 W.Q.[.2 u V 4 S.Z.p s e O.M d g h d } W M v v m n n n n m n v n n n n h d d S S v d D ",
"_.x.c.l.i 3 [.-X,X{.< + . v.w.p.k.a.< < 7 M.Q.i.y v o.] S.S.t h v v d g g M g g v { { d n v m n n n n n n n v G G G H M g v g S ",
"_.x.c.l.i 3 }.,X,X|.< 4 3 z.0.e.d.k.4 3 7 /.N.f.f g  .X.Z.V.r v f v g g g M g n g W { v r n m n n n m n n n m S S H S g d d n D ",
"x.< 3 5 3 }.7 X 1X/.a c.x.a.}.}.p.[ 4 ).}.n.D.' t d f 0 i i y s d s g n m d n g n m d r v v n n m n n n g d g h J G d e h v n d ",
"z.c.x.x.v.g.'.'.@ ).p h p c.h.s.a.a.).a i i a j.u +.M k t V.C.t y O.s M n g n n n n g v B v n n n n n n n n M N N G G M n G S G ",
"x.< 7 {.'.'.^.{.).5 f M b o.2 X.a.a.k.i l X.X.z v v g j t 2 z V B ..O.d g n n n g n m n v n n n n n n n n g h m S G g g S G H n ",
"v.v.x.v.[.u.3 t f A M n v B c X.a.a.' Z f A v m m n M b C.x V s f ..d m n v n n n n n n n n n n n n g n n g d g m g m g g m g n ",
"z.z.v.x.^.B.t g M m m N N v C  .a.h.] k h N m m n m M M C.u b b y O.d d v n v m n n n n n n n n n n n n m n n n g g d n n g m g ",
"5 F.F.v.x.L T E E M n N M M b f h.] h.h M g m m n n g d v b s d r f d h n n v n n n n n g g n n n n n n g n g n n g n n n n g n ",
"5 F.F.5 i Q R Q V M A v M A s f o.X.p t g h n n v n n n g n O.t y  .O.g g n m v n n n g n n g g g n n n n n n n v n n n g n n n ",
"l.p y t V V E W E b b A y p o.B w w X.p h n n v v n n n n n o.i 0 j.s g h n n v n v v n n n g n g n n n n n n n n n n n n n n n ",
"b f t c.b z C B W b f X.h.X.y y ..o.o.t f g m v v v n m m d h.] h.0 f h g g s m +.z v n g g n n n n n n n n n m n n n m m n n m ",
"y p a c.z B z z { z M X.X.h.b v o. .X.e f f v n n m n v v z h.h.h.q y s h h M d O.r r b g n g g n n n n n n n n n m n n n n n n ",
"f  .' k b { B z z B s  .h.p m n f j h  .e O.+.v n g m n +.u ] k.h.j.X.o.s d s d ..O...v d m n m n n n n m n n n n n n n n n n n ",
"b A A ` h M d d S v h h s v n m v s g M d r z O.d g m n n y o.] a.1 j.o.f y f o.u q z y d g m g n n n n n m n m n n n n n n n n ",
"| b V j M h E W d ! h g M N m m g M g h S ....u b g n n g d j.h.j.h.j.] X.o.y X.w j. .f v g n m n g n n n n n n n n n n n n g n ",
" .z M M d ..! J z v n n m v n g g n v v v S x X.0 o.g g n m r y 2 a.X.h.h.j.X.t 0 o. .f M n g n n n n g m n n m n n g n n g n g ",
" .c A M u  .E E B v n m n m n h n n m m m r c X.t X.g g n v v d t h.h.k.j.h.X.q i o.o.s g n n n n n n n n n n n n n n n n n n g "
};
