/* XPM */
static char *cropped__5_1695397109[] = {
/* columns rows colors chars-per-pixel */
"64 64 256 2 ",
"   c #144902",
".  c #195308",
"X  c #245D02",
"o  c #255A0A",
"O  c #275B17",
"+  c #305E15",
"@  c #246301",
"#  c #2A6402",
"$  c #2C630B",
"%  c #2D6A0D",
"&  c #2B6906",
"*  c #336D0C",
"=  c #326C06",
"-  c #34730C",
";  c #39740C",
":  c #3C7B0D",
">  c #367508",
",  c #2A6817",
"<  c #336D13",
"1  c #346D1A",
"2  c #356817",
"3  c #347314",
"4  c #3A7414",
"5  c #3C7A14",
"6  c #35721C",
"7  c #39731A",
"8  c #3C7B1C",
"9  c #367A13",
"0  c #2D740C",
"q  c #275B28",
"w  c #295A2E",
"e  c #2D6B25",
"r  c #2A6728",
"t  c #336D23",
"y  c #346D2B",
"u  c #3A6F27",
"i  c #387627",
"p  c #2A6838",
"a  c #336B32",
"s  c #356A3A",
"d  c #3A7738",
"f  c #2E773F",
"g  c #1F5A22",
"h  c #427C1C",
"j  c #417E15",
"k  c #437D23",
"l  c #447D2B",
"z  c #427B37",
"x  c #1E5C51",
"c  c #2B5E4B",
"v  c #2D5F56",
"b  c #296848",
"n  c #346B48",
"m  c #3D7B4C",
"M  c #387847",
"N  c #266558",
"B  c #3C7B54",
"V  c #34735B",
"C  c #3B7B5B",
"Z  c #387757",
"A  c #2D7055",
"S  c #1B5B79",
"D  c #1E5C69",
"F  c #245C7C",
"G  c #295D7D",
"H  c #235978",
"J  c #215C67",
"K  c #1A6579",
"L  c #1C6268",
"P  c #2A6868",
"I  c #326D67",
"U  c #337363",
"Y  c #3B7B63",
"T  c #34736C",
"R  c #3B756B",
"E  c #3D7C6C",
"W  c #367866",
"Q  c #24627D",
"!  c #2B637B",
"~  c #2C6A7B",
"^  c #296675",
"/  c #346C7C",
"(  c #366C79",
")  c #2C7676",
"_  c #357372",
"`  c #397373",
"'  c #34727B",
"]  c #3A737C",
"[  c #3B7B77",
"{  c #28736C",
"}  c #196558",
"|  c #427B4B",
" . c #437945",
".. c #427D5C",
"X. c #447B54",
"o. c #437C64",
"O. c #437C6B",
"+. c #407563",
"@. c #447D72",
"#. c #427D7B",
"$. c #3C821A",
"%. c #3B8808",
"&. c #3D8126",
"*. c #3F823B",
"=. c #44831B",
"-. c #458917",
";. c #4A931A",
":. c #478E0E",
">. c #458322",
",. c #478828",
"<. c #4A9228",
"1. c #458B3B",
"2. c #488938",
"3. c #4E9837",
"4. c #539837",
"5. c #52922C",
"6. c #56A22C",
"7. c #3B8448",
"8. c #3A8357",
"9. c #3D8469",
"0. c #3A8578",
"q. c #4A8C44",
"w. c #42844C",
"e. c #458B4B",
"r. c #4A8B4C",
"t. c #458846",
"y. c #4C934B",
"u. c #4C9745",
"i. c #539548",
"p. c #458454",
"a. c #44845B",
"s. c #498A57",
"d. c #4C9458",
"f. c #539557",
"g. c #518A49",
"h. c #438463",
"j. c #42836B",
"k. c #4A8A68",
"l. c #4B9367",
"z. c #539665",
"x. c #478876",
"c. c #49947A",
"v. c #559578",
"b. c #518C6A",
"n. c #55A14F",
"m. c #1C5D84",
"M. c #245B83",
"N. c #2C5C85",
"B. c #275889",
"V. c #2D5C8E",
"C. c #1A6586",
"Z. c #1D768C",
"A. c #1F7A92",
"S. c #186A90",
"D. c #236484",
"F. c #2C6483",
"G. c #2D6A84",
"H. c #24648C",
"J. c #2D638B",
"K. c #256C8B",
"L. c #2B6C8B",
"P. c #246C86",
"I. c #346C84",
"U. c #396D84",
"Y. c #336C8B",
"T. c #3A6D8B",
"R. c #326689",
"E. c #24738C",
"W. c #2A738C",
"Q. c #247A8C",
"!. c #2C7B8C",
"~. c #287684",
"^. c #3B7283",
"/. c #34738B",
"(. c #3B728C",
"). c #3C7C8B",
"_. c #367886",
"`. c #2A6994",
"'. c #346C93",
"]. c #3A6C94",
"[. c #376D9A",
"{. c #247492",
"}. c #2C7493",
"|. c #247C93",
" X c #2C7C94",
".X c #2C7D9B",
"XX c #287999",
"oX c #327393",
"OX c #327C95",
"+X c #33759B",
"@X c #337C9B",
"#X c #3A7C9C",
"$X c #3C7795",
"%X c #397CA3",
"&X c #297FA0",
"*X c #42778A",
"=X c #427A94",
"-X c #427CA4",
";X c #1D8298",
":X c #27838C",
">X c #3B8488",
",X c #248295",
"<X c #2B8295",
"1X c #25849B",
"2X c #2C849B",
"3X c #24899D",
"4X c #2C8A9D",
"5X c #2C8991",
"6X c #308296",
"7X c #32839B",
"8X c #338B9D",
"9X c #3C899A",
"0X c #36929A",
"qX c #2D919C",
"wX c #1C8AA2",
"eX c #2B85A2",
"rX c #248AA2",
"tX c #2C8CA2",
"yX c #2989A6",
"uX c #3485A3",
"iX c #3B83A3",
"pX c #338CA3",
"aX c #3A8CA3",
"sX c #338EAA",
"dX c #3B8CAA",
"fX c #3787A8",
"gX c #2D92A6",
"hX c #2D94AB",
"jX c #2D99AE",
"kX c #2694A8",
"lX c #3391A5",
"zX c #3A92A4",
"xX c #3394AB",
"cX c #3B93AC",
"vX c #3499AD",
"bX c #3B99AD",
"nX c #3899A2",
"mX c #2D9BB2",
"MX c #2C99B3",
"NX c #339BB2",
"BX c #3A9CB2",
"VX c #3699B5",
"CX c #35A2B8",
"ZX c #2DA2BA",
"AX c #478788",
"SX c #47938A",
"DX c #468798",
"FX c #479295",
"GX c #538E87",
"HX c #4289A8",
"JX c #4492AC",
"KX c #4599B6",
"LX c #4887B3",
"PX c #44A6BE",
"IX c #49A5C5",
"UX c #4D8AC1",
/* pixels */
"jXNXNXhXhXyXsXhXsXpXuX2X2X2X0X8X8X8X<X4X8X7X8XpXtXgX3X3X4XgXrXhXjXqX4X2XNXmXmXZXVXCXmXZXMXZXyXBX2X!.Z.5X4X8X8X3X2X4X4XlXkX3X3XtX",
"NXhXhXhXhXsXsXpX2XeX4X2X8X2X2X XpX0X4X5X8X2XpX4X4XrXgXBXCXCXCXvXNXkXtX4XjXjXjXmXNXMXZXZXZXZXMXBXtX8XzX<X<X<X0XzX8XbX4XxXxXgXvXvX",
"BXhXtXtXpXxXxXyXvXxXxXuXtX8XzXJX6X6X2X2X2X5XpXtXCXCXNXCX3XA.2X3XqX3XlXlXxXvXZXCXCXjXjXjXZXMXjXrXQ.:XQ.Q.E.zX8X8XlX<XlX,X;XBX3XCX",
"NXxXhXsXpXsXdXpXyXpXtXtXpX8X8X8X6X7X6X6X2X<X2X4XzXlXgXnX1X4X1X4X,X4XvXvXgXkXhXmXmXMXMXmXMXmXjX1X<X<XQ. XQ.zX<X4XlX8XlX4X,XbX3XbX",
"xXlXpXlXdXdXcXpXxXtXrXyXtXpXtX2X2X8X9X8X6X<X X<X8XqX4X,X,X3XA.4X2X4XvXxX3XrXgXkXjXmXCXNXjXjXNXgXcXQ.Q.<X X8X<XZ.0X4XlX8X3XxX,XlX",
"gXtXuXpXuXuXuXeX1XtXxXxXpX2X|.E.|.<X6X6X6X7X6X7X X7XbX4XbXgXtXvX4XqXgXlXgXgXjXmXmXkXvXrXjXkXNX4XbX<XQ.<XZ.<X8XaXpXlXpXbXxXqXqXlX",
"gXqXpX8XuX7XeX.XeXhXhXxX1XeX.X%X<X<X7X<X X6X X!.2X:X<X,XbXxXnXvXvXnXxXvXhXvXkXmXmXrXjX;XZXZXCXxX4X2X|.pX4XpX<XQ.2X|.lX4X8X4X,XgX",
"gXgXlXpX8X2XuX2X2XhXgXsXsXdXiX2X7X2X6X X7X9X6X6X<X2XQ.bXbXtXtX4X4XhXxXNXhXjXwXjXNXhXNXwXjXjXNXBXhXbXvXlXbXtX4X3X4X4X8X8XxX2X0XlX",
"tXlXxXcX.XpX8X1X1XhXsXcXsX&X+X+X7X8X6X<X6X7X:X<X4X,X4X4X4X4X2XxXgXxXrXpXhXMXMXMXCXyXMXMXjXNXNXNXvXkXgXvXgXxX,X2X3X2X4XlXzX2X8XlX",
"gXrXtXlXpXpXeX2XeXxXcXyXsX+X{.}.7XpXE.aX8X7X<X<XQ.<XxX3X,X,X<XpXNXVX;X1XyXZXNXZXVXyXMXVXNXxXkXNXjX3X3XvX1XvX3X3X4X<XzXpX8X8X<XzX",
"gXrXrXxXVXcXxXcXdXeX.XZ.}.{.`.W.cXzXaX|.<X X X<X<X,X4X5X4XqX4XxX|.BXjXVXMXwXhXPXVXVXrXrX1X1XmXkXCXgXkXBXCXbXxXlX1XpX4XpX8X<X2X2X",
"gXhXhXxXxXvXxXcXxX1XtXJXJXdXiX#X{.{.pXE. X9XOX X9X8X8X4X4XpX4XrXyXrXNXMXCXMXyXhXVXMXhXrXpX8XNXkXkX3X3XxXvX3XtXxX,XpX4XlXlX4X2X<X",
"xXsXyXvXhXxXhXxXBXzXuX7XK.{.K.{.cXdX|. X!.@XOX#X!.<X<X<X4XbXBXgX1XeXNXNXjXhXBXyX&XA.vX2XuX2XZ.3XgX3X3XbXrXlXlXxX2XpXlXpXlXxX8XzX",
"cXyX&XVXxXNXhXVX|.pXfX@X@XiXXX2XpXeX.X.X}.@X/.!.OX X!. X<XxXxX,X|.dXNXhXjXgXrXXX;XhXpXuX7X8X4X3XgX4XlX2XA.cX2XeXtXlXpXtX<XlX8XCX",
"KXfX&XMXNXvXhXxX|.2X.X7X#XJX@X.XuXuXfXK.W.OX@X6X!.!.<X<X|.2XuX.X.XbXxXjXNX|.1X1XA.KX2XiX9XaXlX<X2XaXcXZ.2XpX1X2XlXuXlXeX3XxX1XnX",
"dX&XyXhXhXNXNXxXdX2X7XJXE.JXuXuX7X@X X@X@XE.7XW. X X X X8XKXKX.X1X,XcXBXxXbXxX1XyXdX7X@X2X2X<X8XE.pXpXuXpX2XzXuXtXbX|.pXcXlXlX3X",
"sXsXsXMXVXsXyXyXcX2X<X!.}.aX+X7X@X}.}.@XeX}.OXOX X}.OXOXaX{..X&XXX2X|.<X X2XzX2X<X.X7X2XXX2X.X2X2XZ.Z.eXtXvX4XlXtXxXdXeX2XuXlX<X",
"rXhXhXcXyXeXXXeXJX6X6XHXK.LX+X}.}. XJX.X{.8X XOXXX7X}.S OXPXVX|.KX7X2X X.X X2X X X XXX.XeX.X2X.X.X.XZ.PXtXrXtXlXhX.X|.<X.X8X4XZ.",
"hXjXgXNX4X4X,X2X2XuX7X XK.iX}.W.W.OXpX8X8X7XOX@X X X@X{.C.dXuXdXuX{.@X X X7X@X7X7X2XXX.XuXXXuXuXXX&XeXKXyXyXVXMXeXQ.,X5XQ.0XzX!.",
"NXxXgXvX0XnX8XeXXX@X7XE.}.+XL.W.L.@XJXlXzXJX+X@X|.Q.XX@XC..X1XcX2XQ.<X}. X X X.X@X@XK @XXXiXdXdXS.sXsXtXeXhXCXIXcX X:X5X5X0XzX|.",
"hXhXxXlXqX0X8X4XfXXX+X#XW.+X`.oXOXOX:X<X<X{.m.m.zXzXdXaXJX.X|.VXdX X XOX@X!.OX7XXX#XC.uXC.C.%X.XiX|.Z.IXyXsXPXCX4X:X~.0X0X8X:X2X",
"xXvXvXtX5X5X8X6XuXuX@X}.oXOX#X@XoX7X X7X@XC.%XJXzX0XE.7X XKXBX|.7X X}.@X7XOX@X#X9X+XOXC.iXHXC.LX#XXXuXuXyXIX&X&X;X:X:X5X8X<X XpX",
"vXsXyXpX2X6X<X#X@XiX%XC.W.oX%X%X%X+XOXS C.}.+XE.9X0XZ.S .X{.2XKXE. X7X X|.@XW.}.@XL.L.+X}.}.%XK.}.%XXXyX&XS.S.S.tXqX:X:X6XaX.X2X",
"fXeX.XfX7X2X+X@X#X+X+X`.L.`.+X@X+X%X%Xm.C.K.#XW. X>XK !.|..X|.iX2X}. X X}.9XK.+X}.C.H.@XH.K.+XK.`.XX{.%X`.fXXX&X<X,X!.6X:X6X X X",
"fX{.&X%X%XiXH.+X%X`.+X%XC.'.OX#X`.+X%XM.M.K =X/.W.E.K FX}..XOX!.}. X7X XK.iXP.P.D.K.D.oXJ.}.H.D.%Xm.K.+XH.KXfXpXK ~.:X~.<X:X>X) ",
"%X`.`.%X'.oXD.-X=X[.[.[.`.}.!.I.Y.Q B.M.S F T.F C.K ~./.!.!.!.6XJX7XOX@XZ.OX@X#X#X@XoX+XL.L.L.@XD.M.m.H.H.H.dXuX6X) ~. X!.DX0.0.",
"`.H.H.D.$X-X].].$X[.%X%X#X!.>X0.J AX$XF H M.B.[.fXHXK DXDXSXFX5XzXaXiXaXK.K.P.OX$XoXJ.L.K.L.S H.'.H.F F.M.m.C.m.iXW.#X@X#XS ).L ",
"UXLXG.=XU.I.=XT.R.'.[.'.>X0.c.SXY c.[ ^ M.B.V.B.m.C.C.D SXW { 0X0XaXZ.W.K.HXL.oXoXL.K.oX#X#XD./.F H ^ AX! G.+X`.+X}.K.OX@X$XD 9X",
"fXLXK.I.] [ ( U.].[.*XR.j.h.9.9.a.C c.P Q S B.B.%XXXK.OXSXW 9.>XDX8XE.K.P.HXD.G.L.K.R.L.Y./.Q _._ I A j.I ~ F.D. X!._.!.oXG.D ).",
"JXG.P.G.[ @.#.*XV.=XV.@.d.d.9.9.c.b 9.W _ ^ F F iXuXJXDXFX) 0.0X9XP.E.L.W.HX/.Y.Y.Y./.I.G.G.D._.[ C 8.C E ' ! F.P.!.>XQ I.! S =X",
"P.9XQ [ 9.E *XI.=XU.! O.y.i.l.0.E c.c.9.9.c.x.L 9XJX9XK E.!.0.SX!.}.HXHXoXW.D.J.F.G.R.R.I.Y.Y./ N Y B B W P H.B.D.#X>X>X)./.'.H ",
"FX[ >X_ Y h._ U.*X*X*X*Xz.y.M M A 9.A c.l.8.c.} !.Q.Q.Q.{.aX>X{ _.W.L./.L.Y.G.Y.L.R.I.G.I.G.L.^ ) E Y h.b #.C.H.J.oX>XL L =XS F ",
"9.W )._ E j.x.#.R.=XR.T.I A d.n.d.9.0.8.8.l.8.0.0XlXzXpX{.E.~.~.P.L./.'.P.Y.G.G.L.G.F.(.R.G.$XF.~ ~ ^ { 9.j.^ V.H.%X).' >X>X' ) ",
"9.0.] ).] @.Y R U.[.[.[.I.{ n.3.7.8.8.9.7.l.8.0.>XzX0XqX2X8XOX6X~.' W./.~ ~ G.L.J.I.Y.I.F ! G.G.~ P.`.F.0.U ! H.V.`.~ >X)._.~ ^ ",
"!._.G.DX=X*X` R ] *X=X].I.N i.n.7.8.7.7.3.u.Z 0.FX9XcXaXcXdX0XDX) ' G.I.` ^ G.J.G.Y.F.! P / F J.! Q `.M.^._ '.V.V.m.F )._.).K m.",
"$XoX).(././.*XDX( F.T.].HXx.f.y.8.l.d.n.3.*.M W ) ) >X~.9XP.K >XA x.' ^ 0.T ~ / ~ AX^ _ [ #.! '.J.J.J.M.F M.M.B.B.B.D P ' ^ ^ Q ",
">X( ' I.*X*X=XJ.U.*X=X].]./ x.z.d.l.7.7.1.<.a.U _.~.c.0.FX^ { l.8.8.x.[ T U x.V T P Z k.N ^ T.M.M.V.V.N.N.].R.R.[.J.T N P } V l.",
"T T _ T I _ Y.].T.T.V.].[.(.R V 7.8.8.7.,.2.s.R I./.9.9.x.{ { 9.e.7.Z W O.W 8.h.j.Z a.h.P ~ G J.B.B.B.N.N.N.M.M.B.! AXx.x.P d.u.",
"/ T j.s.X.b.#.T.R.U.R.*X].T.^.R C v.9.9.m e.a.j.9X).{ x.x.` ( @.e.7.*.7.s.a.8.k.k...h.Y ( R.G N.N.B.N.N.N.R.V.V.M.S AXE Y h.w.i.",
"^._ l.z.s.b.( ( U.*XU.R.U.^.U.( ] GX_ { m a.a.x.DXHX' AXx.` ( ] m e.e.e.e.e.M a.h.x.j.` T.].N.R.N.R.V.G G N.N.V.R.G.^.} b s.M d.",
"' ` V C R ` ( U.U.T.T.*X( ^.Y.].T.*XR b.s.a.C ` /.oX^.' ^.^.( @.s.t.1.q.t.e.y.s.x.{ ^ U.F F.F.N.N.N.N.H F.^.G F.(.G.J N b b.k.Z ",
"] I ` GX( ( ( *X] ( T.R.GX( U.T.].U.R b.b.Y j.x.T ] *X' ] ] _ E t.3.1.*.u.e.7.f b [ / R.N.G H T.N.N.G G ! ! (./.F /.*XAXc.A p M ",
"^.( *X( ( *XU.( R +.( U.].U.^.] T @.j.Y ] ` h.8.k.k.Z O.@.R @.j.y.1.3.q.1.7.*.8.j.[ ^ G M.M.G ! U.G ! F.N.$XG N.[.M.S P } z.n.$.",
"I.U.U.! *X( R.*X@.Z V x.U.I.*XO.Y h.h.W (.U.Y y.q.r.m b.C 8.Z s.*.*.u.q.1.e.7.l.x.T / I.B.B.! ^ H G ! H N.! I.! R.S ^.P b 7.3.$.",
"R.*XV.*X/ R.*XR.` V m z._ ^.GXv.h.8.k.Y ^.^.O.s.r.y.m p.M d.y.7., e.e.d.r.q.7.h.j._ ~ F.B.B.G ( P G R.H G H R @.J ^ x.N } M 3.6.",
"( ( *X#.( ( *X( R z.y.f.U T V Z d.M z.Y ] ^.x.B w.d.w.d.e.*.3., 1.q.M p q.e.l.8.E ^.^.^.[.$X! ^ #.H H *XJ x.Z Z +.A n B B d <.%.",
"#.I I O.( @.I GXB 7.q.w.v.Y B M z.| k.@.0.0.d.p.B M s.d.e.q.3.<., 1.t.r.r 7.b A P ~ P P N } I.F.~ ^.] x j.b B B z 2.d d *.0 6.;.",
"*XI v.Z +.@.+.V s.y.i.*.d w.d.f.2.f.B Y U k.e.y.s.a.| w.M q.2.% 3.1.7.M M p b { ' _.J A p p ' ^.I O.@.C r M s a % 4.,.i &.3.6.> ",
"X.o.@.O.n Z @.+.X.i.i.,.d 1.4.6.1.3.1.7.C o.p.g.q.y.n o.d t k % 8 d M B W A b V ' / P A r r b R b w.w.M , e d i 0 ,.7 &.&.2.<.$.",
"g.z.X.O.r p j.+.| f.i.,.<.<.3.6.<.3.,.1.s.B s.g.1.q.n C e , , 1 < t M ..N U b Y ~ ).I b e y p M r t.u.2., , i &.8 $.>.k i &.$.3.",
"2.g.s.X.r p | b s. . .y 3.6.3.3.u.,.& ,.2.M X.s.y y p M t 8 u g.q.d X.Z 8.Y b U ' / I n f M M p | t.z 2.&.i i l 1 8 8 8 &.&.&.0 ",
"i.i.f.| | X. .r.z t r e i &.<.<.,.<.<.@ o O n | r . d y 2.1 y z g.d X.| M M b V I N U Z p a d r e , , % i % >.8 8 8 k =.>.9 &.&.",
"a 7.C O.o...r t 3 % 1 ,.@ 0 $.;.<.-.<.@ , $ O O |  .y z d u y g.M  .q O z  .e a M b c p d y y , o , $ < % * * & = ; k * 0 8 =.<.",
"m a.o.O.+...| i % = % ,.$.0 ;.;.:.;.-.# X X O O | X.y d d a s X. .z r O l i 4 < t a s a t 6 t , X 4 4 4 * - - & 4 4 k h k >.=.$.",
"..B a.X.s.p.o...1 % % < 2.6 <.;.;.;.;.# @ X $ ,  .| y y y a f | y d O o l 2 * 2 a r u 7 - 8 i o $ >.h k # % = 4 2 l k k 8 8 ,.3 ",
"p.z.z.z.f.b...X.1.7 3 7 ,.<.<.;.;.-.<.,.,.5.$ O a a y y  .| m  .O t o $ 7 7 7 2 q u 2 7 % 0 1 t X h l 4 * - =.h h , 2 h =.; 9 8 ",
"y.f.w.X.o...g.e 2.1 * 5 4 ,.5.:.;.<.$.,.<.,.t u t u y.z w  . .z 2.z t 7 7 7 7 ; 7 2 t u s d 1 % 7 4 $ k = =.=.8 + $ * h =.=.j $.",
"1.*.s.o.O.+.d i u 2 $ - = 5 :.;.-.9 3 6 4 h t o 2.4.t.t z a s w z , o $ $ * 7 4 ; 4 u p v n t 3 2     2 3 =.5 =.# =.; h h j j 6.",
"| p.b...@.o.X.u 7 3 4 4 = ; -.:.<.0 6 3 3 ; 6 o z l 2.i u r w w s q o X X ; 4 4 > 4 s c I v 1 2 u q g d 6 >.-.: = @ X 4 5 ; 5 j ",
"..a.o.O.@.O...a 1 5 5 ; # > > # <.0 9 3 5 - 9 $ t u i.t d q w s w O + X # 4 7 * ; 7 s c v c s z s w r z l 8 =.-.9     $ 4 # = * ",
"X.X.@.@.O.b.O.X.e * * > = : 8 9 : - 5 5 - * - - 3 < e u.X.X. .w X.w + + ; j 2 * % 2 a s l w v v  . .z l h ,.$.$.X h h j $ ; = = ",
"p.a.o.o.X.p.X.| z 2 > : = ; 3 : %.: > - j ;.: @ - 8 7 t X.w w w  .w o X $ X # * < 2 y u 2 h c v w .   2 >.4 * 7 h h + + $   h = ",
"d r r 2.4.<.5.4.< $ # ; 3 4 5 -.- 5 j ; ; : : - 9 3 9 7  .n w w w + + X X = ; ; ; 4 + 2 * j 2 l 2 + * h h # l h l l   + 2 + j h ",
",.< z 7 :.:.:.: = 3 * - 4 4 ; : ; ; ; j j : 5 ; h ,.- ,.s  . .+ + + X + X = j = = * * h = = X X * = # h X 2 + h l 2   O +   X j "
};
