/* XPM */
static char *_b250f53ffac4b13d73a4c56e1b32f2aa11MWJtpaOfoHQPE[] = {
/* columns rows colors chars-per-pixel */
"64 64 256 2 ",
"   c #030201",
".  c #0C0100",
"X  c #050506",
"o  c #130100",
"O  c #1B0100",
"+  c #1B0B00",
"@  c #140B00",
"#  c #1C1502",
"$  c #121413",
"%  c #230100",
"&  c #2B0100",
"*  c #230C00",
"=  c #2B0B00",
"-  c #320C00",
";  c #380401",
":  c #231201",
">  c #2C1400",
",  c #2A1A00",
"<  c #341400",
"1  c #3C1300",
"2  c #3B1A00",
"3  c #351C01",
"4  c #3A2501",
"5  c #28230D",
"6  c #362F2C",
"7  c #450A00",
"8  c #461A00",
"9  c #5A1F0C",
"0  c #6A0D04",
"q  c #4B2500",
"w  c #4C2B00",
"e  c #442901",
"r  c #5C2D00",
"t  c #532800",
"y  c #4A3705",
"u  c #533302",
"i  c #5A3702",
"p  c #493B18",
"a  c #513818",
"s  c #672B00",
"d  c #643B00",
"f  c #683600",
"g  c #763D00",
"h  c #532F2B",
"j  c #621122",
"k  c #5B4503",
"l  c #554619",
"z  c #6A4603",
"x  c #764802",
"c  c #7C5405",
"v  c #684A16",
"b  c #765518",
"n  c #6C5013",
"m  c #756610",
"M  c #5A4D2B",
"N  c #6B572A",
"B  c #775928",
"V  c #6D5432",
"C  c #7B6832",
"Z  c #72554B",
"A  c #766642",
"S  c #8D1925",
"D  c #AE2E33",
"F  c #9C1F0E",
"G  c #D52B34",
"H  c #D91933",
"J  c #844901",
"K  c #8A5701",
"L  c #985B01",
"P  c #845919",
"I  c #976507",
"U  c #966615",
"Y  c #8C6716",
"T  c #B97405",
"R  c #AD6F0E",
"E  c #946A28",
"W  c #9A7527",
"Q  c #987738",
"!  c #8C6C2E",
"~  c #A97827",
"^  c #A87A35",
"/  c #B27B29",
"(  c #A6581B",
")  c #D3781A",
"_  c #AE384D",
"`  c #922E41",
"'  c #D72946",
"]  c #CC3044",
"[  c #E42844",
"{  c #887649",
"}  c #8F764C",
"|  c #A57C48",
" . c #956C6C",
".. c #9A494B",
"X. c #9A8838",
"o. c #B88628",
"O. c #AB8337",
"+. c #B48836",
"@. c #BA9436",
"#. c #A69133",
"$. c #B38412",
"%. c #C98918",
"&. c #DA9419",
"*. c #D2890C",
"=. c #E89C14",
"-. c #EEA41B",
";. c #F5A619",
":. c #F9A60F",
">. c #C38B25",
",. c #D79828",
"<. c #C28B37",
"1. c #C6963A",
"2. c #D89D36",
"3. c #CD9127",
"4. c #E29D2F",
"5. c #D9A43B",
"6. c #D1AB30",
"7. c #ECA52D",
"8. c #EAA629",
"9. c #F4AB25",
"0. c #F5A828",
"q. c #F8B129",
"w. c #EDAA33",
"e. c #E7A638",
"r. c #F4A937",
"t. c #EBB23A",
"y. c #FAB337",
"u. c #EEB22F",
"i. c #988549",
"p. c #9A8553",
"a. c #A98847",
"s. c #B58C49",
"d. c #BA9448",
"f. c #A78958",
"g. c #B99557",
"h. c #B08C55",
"j. c #B9A65C",
"k. c #A89665",
"l. c #B1986D",
"z. c #BAAA71",
"x. c #C69847",
"c. c #D79C48",
"v. c #C79C5B",
"b. c #C8944D",
"n. c #C8A447",
"m. c #D8A549",
"M. c #CBA658",
"N. c #D7A858",
"B. c #DBB25B",
"V. c #D2B250",
"C. c #E3AB45",
"Z. c #E5A947",
"A. c #EAB247",
"S. c #F9B747",
"D. c #E3AC56",
"F. c #E9B65A",
"G. c #F4BB5B",
"H. c #F8BA55",
"J. c #F6AD44",
"K. c #C59C68",
"L. c #C8A768",
"P. c #D7AC67",
"I. c #D9B467",
"U. c #C7AC76",
"Y. c #D3AC76",
"T. c #CBB47A",
"R. c #DAB879",
"E. c #C6B666",
"W. c #E8B867",
"Q. c #F6BD67",
"!. c #E6BC75",
"~. c #F1BC73",
"^. c #DBC35B",
"/. c #EBC65D",
"(. c #FDC45A",
"). c #FAC24E",
"_. c #D8C672",
"`. c #E9C767",
"'. c #FDC564",
"]. c #FDC46C",
"[. c #FDCB6C",
"{. c #F6C668",
"}. c #E8D266",
"|. c #ECC273",
" X c #EBC47A",
".X c #E6CA77",
"XX c #FCCB74",
"oX c #F5C57C",
"OX c #F4CB7C",
"+X c #FDCC7C",
"@X c #F7C775",
"#X c #FCD27D",
"$X c #FAD378",
"%X c #EED478",
"&X c #D7B785",
"*X c #D0BC8E",
"=X c #EABD84",
"-X c #E9ACB4",
";X c #DDC489",
":X c #E9C786",
">X c #F4CB82",
",X c #FCCD83",
"<X c #FDCD8B",
"1X c #F4C787",
"2X c #FDD384",
"3X c #FED48C",
"4X c #FDDA8B",
"5X c #F8D687",
"6X c #F7CC92",
"7X c #FED493",
"8X c #FDDA93",
"9X c #FED69A",
"0X c #FEDB9C",
"qX c #F7D895",
"wX c #EAC794",
"eX c #FDE19B",
"rX c #FDE38F",
"tX c #FEDDA3",
"yX c #FEDDAB",
"uX c #FAD7A3",
"iX c #FEDEB2",
"pX c #F7DFB9",
"aX c #E8CFA8",
"sX c #FEE3A5",
"dX c #FEE2AC",
"fX c #FCE6AC",
"gX c #FEE4B3",
"hX c #FFE5BC",
"jX c #FEEABC",
"kX c #FBE9B5",
"lX c #DEC6A4",
"zX c #FFE5C2",
"xX c #FEEBC4",
"cX c #FEECCB",
"vX c #FBE6CA",
"bX c #FDF2CC",
"nX c #FBF7CD",
"mX c #FEEDD3",
"MX c #FEEEDB",
"NX c #F7EFDA",
"BX c #FEF2D4",
"VX c #FEF3DB",
"CX c #FCF7DB",
"ZX c #FEF4E3",
"AX c #FEF9E5",
"SX c #FFF5EB",
"DX c #FEFAEC",
"FX c #FFF6F3",
"GX c #FFFCF4",
"HX c #FEFEFA",
"JX c #FFFEFE",
"KX c #FEFDFB",
"LX c #FFF7FB",
"PX c #FFECEC",
"IX c #F1CBC7",
"UX c #9D878A",
/* pixels */
"HXHXJXJXJXJXHXHXKXKXKXGXFXFXFXFXSXZXVXcXzXgXdXsXsXtXtX7X4X2X7X9X7X8X9X0X0X0XsXyXiXhXzXxXzXBXMXZXZXAXAXDXGXHXKXKXKXJXHXHXHXJXJXKX",
"HXJXJXJXJXJXHXHXGXGXGXDXDXSXSXSXZXmXvXjXiXdX0X0X0XR.:X7X>X>X7X1X<X,X2X,X3X3X9X0XyXyXgXyXhXzXcXMXVXZXAXDXDXHXKXKXKXJXHXHXHXJXJXJX",
"JXJXJXJXJXJXHXHXGXGXDXAXCXVXBXmXcXxXkXdX9X7X7X<X1X<XP O O k.:X:X|.@X[.].+X+X$X#X5X5X7XtXgXgXkXcXmXMXVXAXDXFXGXKXHXHXHXHXHXJXJXJX",
"JXJXHXHXJXJXHXGXDXDXAXZXBXbXxXxXhXkXeX5X3X,X,X,X^ oX XL.o . o j.e |.G.G.m.@X{.`.$X#X2X3X6XtXkXkXzXcXMXVXAXDXFXGXHXHXHXHXHXJXJXJX",
"JXJXGXGXJXKXKXGXDXAXZXVXmXxXhXgXtX9X5X2X[.[.,X8  Xz W R.{ . . . V e W.m.D.8 M.P.M.|.@X+X<X7X5X0XgXhXcXBXVXZXDXDXFXGXHXHXHXJXJXJX",
"JXHXGXGXKXKXKXFXAXZXZXMXcXhXyXtX8X,X+X[.{.B.z L.&X% d.u o . . . . C - s.z I.1 i g.e :XoX+X+X,X7X0XyXhXxXmXVXZXDXDXDXGXHXHXHXHXJX",
"JXHXGXGXKXKXFXSXZXVXMXcXhXyX9X7X+X[.'.G.O.j.O *XZ O = P.e o . . . . o B z r L.O . o + j.F.'.Q.,X3X9XtXgXxXmXVXZXDXDXFXHXHXHXHXHX",
"JXHXGXGXGXFXSXZXBXcXcXhXtX0X3X+X[.(.S.H.Y o o l o o O a.f.4 .     . . o Y.% b l.. . . O @.H.Q.Q.+X2X0XdXhXxXBXVXAXDXFXGXHXHXHXHX",
"JXHXHXFXFXSXVXBXcXjXgXtX8X2X@X].H.S.S.m.= e z o . . o > Y.i .       . o Y.8 . . o #.n.m O c G.G.1.OX3X0XuXjXBXmXZXSXGXGXGXHXHXHX",
"HXHXKXFXSXAXBXxXgXkXtX8X2XXX+XW.G.F.C.x %X.X.X_.    . o P.< .       . o K.e o + .X}.6.}.V.O c I.M.B.>X5XtXdXhXBXVXSXFXGXGXHXHXHX",
"HXHXKXFXAXVXcXjXgXtX0X8X2X XL.i o o b .X.X%X}..XM . o U.M.% .       . . T.* o ;X}.}.* .X}.@.O p.R.-  X>X8XtXyXcXMXZXSXFXFXHXHXHX",
"GXGXGXFXZXBXxXgXtX0X3X1X:Xh.} o . l i.@ o o o n z.@ o a.M.8 .       . { { O 4 B _.4 o : /.}.4 o T.< d.2XoX0XdXhXmXMXAXSXDXGXHXHX",
"DXFXFXSXVXcXjXdX9X0X<X1X&X% o . o ;X_.o o o . .   # . + d.g.o . . . { V . . . . . . . o V.}.E.o , > 2  X+X2XtXyXxXMXVXAXDXDXHXHX",
"DXDXFXSXBXxXgXtX0X,X,XE O . . . O %X}._.. . + C + o o Q 8 ^ > . O z.= o . . . .       . m W }.> . o O  XXXXX3XtXhXcXBXVXAXDXHXHX",
"DXSXSXZXcXjXgXtX,X+XO.R.> .     m ^.n.i.. . } q m.1.% O.R <.b O O.f ~ t O % f.: .     .   C `.z . . O !.W.$X2X0XgXxXbXBXVXDXGXKX",
"DXSXZXVXcXkXyX9X2XD.@Xa.o .     X.^.y .   . 1 C.8.8.e.7 e.) F.& C.%.C.; <.B.c.% k # .     . `.M.. . o R.W.{.+X8XdXkXcXBXVXAXGXGX",
"SXDXVXBXjXsX0X3XXX{.c = a.C . . ^.d.. . . O 1.0.:.;.0.8.;.0.w.R L w.,.7.-.;.*.7.C.= o . . k.W _.. . + T.z XXXX2XeXdXzXmXBXAXDXDX",
"FXMXVXcXkXsX0X,XW.M.&XN 3 Q Y.O X.i.  . o Y w.;.:.;.7.%.y.q.y.8.y.r.t.T -.;.:.;.9.e.v o o . y j.. . + O z Q.].+X8XsXhXcXBXCXAXDX",
"ZXZXVXhXkXtX<X<X=Xu . . o O M.x.= .   . a.Z.q.:.;.r.W.g / H.t.S.y.J.x v.B.A.0.;.:.-.c.i . . . . . . . O >.H.Q.XX5XqXgXxXMXZXSXDX",
"AXVXcXhXtX0X7X~.8 l.@   . O ~ c.o . . O t 7.-.q.0.r.g - % ~.S.S.S.H.& % 1 x 8.;.:.;.e.U O o M } # : 4 v.J.S.H.XX#X4XtXhXcXMXZXDX",
"xXxXxXjXdX<X~.~.~.&X. . o O P.w . # +.e.7.8.9.q.y.J.H.+.% M.'.H.{.U & W.H.y.q.q.-.-.0.e.c.& O o @ M U.M.A.J.2.Q.+X3X0XsXjXcXVXZX",
"nXbXxXyX0X8X@X|.W.= . . B v.b O o > c.&.T q.t.t.A.H.H.G.O.s.{.`.|.w N.Q.H.S.A.6.q.J T r.e.Z.~ 2 o o o 2 U x.W.W.{.#X3X0XfXxXMXZX",
"cXxXiXtX0XoX#X|.* , p.f.I D.| % e M.r 5.0.y.z W d.!./.'.@Xx.@XU oXf {.`.s.a.m y 8.=.e.s e.w.7.e.f O o . O O o C I.{.2X7XyXjXmXVX",
"BXxXgX0X<X+X XO k.l o & C.I O 3 U o.% 1.y.T @.E.# k V.XXQ.+X:X% oX+X{.|.v , z.#.u.=.A.& J e.8.w.N.l.o   . . . o M.{.#X3XtXhXcXBX",
"xXiXsX8X+X@Xb l.. . 1 m.s Y o * 5.>.t & J.%.A.n.k X.* 1XoX!.4 o O.OX:Xk n u x.F.&.8.I o.t 5.>.@.= z..       p y u c {.2XtXiXzXcX",
"gXdX0X3X2X|.u . . o c.5.P.- o a.e.%.P.& 5.t.Z.I j.T.i.i ^ 1Xa o M.OX3 4 E.N.<.T u.u.r x.I m.d e o p #       # U.I.F.1.$X7XgXhXjX",
"gXfX8X>X@XW &X> o f.+.O.O O p.x.r.8.d.% A.S.S.Q.C ;X:X|.x 6X&X8 1Xx :XwXR.W A.r.y.w.f 1 m.1.% . . . . X     . O N.H.H.'.3XtXuXkX",
"dXqX7X<X1Xf.O o v d 1.w M . o - 7.r.K % 1.H.H.m.= > d XX@X,X1Xv.oX+X,X1 O.z m.H.A.o.& v.D.- o X             . o J e.H.'.+X7XtXsX",
"tXtX7X6Xe . . o = <.~ ! . . O P t 5.C.& % < r x.N.{.N.m.].Q.+XXX[.[.~ ].D.K x.& % O J P.= o . . . X X       X o b f V.{.XX,XtXyX",
"0X7X,X=Xo . . o M.m.N.% . . o U.O ~ e.C.% u P Q.H.C.'.'.H.'.[.'.(.A.'.H.)././ h.O e N.8 M $ . . .         X X . Q z < I.{.+X<XtX",
"8X3X[.|.= . . : n.C.z B . . o f.% c.0.8.q ! J H.S.(.(.H.(.(.).(.(.H.(.H.).S.3.G.+.O.J M.:         X         . O N.8 O o I.OX,X0X",
"8X2X[.`.&Xo . y c C.f C . . . V % / 0.-.t B.A.e.S.S.(.{.(.H.).).H.].H.(.S.y.7.t.g A.U Q .                   o n N.N.w O Q R.,X3X",
"4X#X'.Q.T..   . 1.x I.O . . . o b c.9.-.J I r.r.4.3.@.B.W.G.H.S.W.!.~.F.,.8.y.w.g m.M.O .           .     . u P.u = v.^ % Y.2X2X",
"3X+X{.|.= . X . x.2.Y O O o . . O x.7.9.w.7.*.y.r.A.x % % U W.Q.P & & 7 r.y.&.7.J m.W O o > .   . . . A . y M.g.. . = P.w v OX#X",
",X+X|.< 4 .   . 1.Z.Q O O.b . . o a.C.8.7.T r.7.T &.S.I % O o o O - L y.0.*.9.8.%.2.w - N.v..   . O h.& x N.| o . . . + R.= OX@X",
"2X+Xi { : .   . r D.b = 5.1..   . e P.; e.&.s 7.7.0.-.w.W.u . o g.Z.7.*.8.8.w.,.; A.% N.Z.L o o O v.O.x.N.E o .     . . v d.B.#X",
"#X!.i.V . . X . O P.u n.8.5..     . M O L J.K Z.4.r.;.;.e.N.O % D.r.9.9.5.m.U ; T e.8 N.m.7 % Y D.R N.v.* . .   . . . . . U.E ,X",
"2X XU.. o . . . . C O I.e.1..       . O & N.<.& U c.r.r.) J 7 9 ( ) r.2.~ 2 } - >.y.g C.J s N.M.m.n.w o .         .   6 . B g.+X",
"2X:X, . o Z + . . . . o z d..     . o o % v.v.% a BX0 F F F ; ; D G ^ bXA @ p % 2.8.L 7.,.Z.a.k B O o .               . k.O m.XX",
"2X Xo a *X* . . . .   . O U.. . . * } } = a.I.% O PXS ] ] ] 0 _ ' ' _ SXO p y 1 m.T e.e.C.z o . . . .     X           . p.e F.[.",
"5XP.i ;Xk.o o o @     . O U.. . Q P.! ! x.Z.C.& O  .S ] G [ H ' [ ' _ ..% a.c x.P.8 N.^ O o . .   . . .         X   X . B +.[.[.",
"eXR.Y.:X, o > L.#   X . o p.p o v.& o o z <.e.x.o  .S ] ' [ H [ [ ] ` 9 & D.K I.< o O o . . .         . .   X       X O P Q.{.$X",
"7X8X XR.+ o 5.D.+     . . = U.% s.* . . o v <.B.. UX-X_ ] ' G G G D PXO c.3.Z.r o . . . .             X           X   . Q Q.+X2X",
"sX6X<Xs.O d.w.e.o       . o w M.x.& o o . o & ^ o  .LXj ` S D D D IXSXo c.L Z.r . . o o . .     X     X           . . o P.{.+X2X",
"tXtX=Xb.W.G.y.Z.o   X   . . % 8 e.2.d o . o & K.O o IXh Z ; h  .-XMX5 . M.& x L.o o q V.I.> .       $   X X     . o . * ~.].#X4X",
"gXtX9X<XXXH.S.m.% .     . o u b.w.=.5.Y o o % Y.s.% O o o o O o o o o N L.% & P.= i t.u.5.q .     # 6 X X     . e Y.o } @X+X4XeX",
"jXdX0X3XXX{.F.+.% { . . < L.L.x 7 7.8.m.< O k @.5.%.,.r.w.t.3.>.>.R ,.n.* o % N.; 5.;.9.5.8 . . # { . X   . . o N.C.< !.+X,X0XdX",
"xXkXsX5X#X{.1.1 x.E o : Y.b O % 2.7.L 5.h.O o M.$.8.0.-.;.;.-.8.e.e.2.M.o o x f C.&.;.;.D.% o # z.o . . . . . 2 A.e.m.OX#X8XdXhX",
"mXxXgX0X4X{.(.H.D.x % Y.3 . . % r.-.L D.N.O o a E N.N.Z.T 7.&.e.B.a.O O o 2 o.e.t.&.:.0.f % u U..     . . o O I.W.o.{.$X2X0XgXcX",
"MXcXgXdXqX2X(.(.~.; t L.o . . = e.0.7 N.I.o . . O u = 1 b.r <.x O o . o l L.D.,.s 9.;.&.; v.L.@       . o O b W.U XX$X#X8XdXxXmX",
"BXcXxXyXsX3X{.].&X% U x..     o P.~ & P.! o . .   . . o o o o o . . O k f.e < ; 7.:.=.*.Z.c.o   . . . 4 M 2 !.n.{.XX,XeXtXjXcXMX",
"BXBXcXxXuX0X4X,X1 % W.E .     . O % t P.% O .       . o o o + V . @ f.g.o . . N e.9.,.e.>.& . . . o C U.% R.|.{.+X3XtXyXxXcXMXAX",
"VXVXMXvXhXuX6XQ % R.R.O } .     . % N.; K d..     . o w o.5.I.- 2 L.} o . . . + u q I.z O o o . O Y.R.% |.OXXX2X0XyXuXzXvXmXZXVX",
"AXVXMXmXzXiXL.=X1XR.4 T.o .   . * L.f 2.e.D.o . o i M.m.8.7.t d.L.4 o . . . . . C z.= o O o * } :X!.r oX@X#X,X0XuXhXxXcXmXAXAXAX",
"AXZXVXVXhXyXsXqX5X.X:Xa . . . o x.>.Z.Z.R x O O ^ D.3.%.t.m.M.B o . . . . o O z.M . O O 2 K. XoXoXU 2X>X3X3XdXyXjXzXcXMXAXNXAXAX",
"SXDXVXcXxXgXdX8X5X>X:Xo o . . o x.m.<.; N.r q P.N.s o.m.d.- O o . o A . . M U.O + y &X:X6X>XXX+XOX3X3X7XtXtXiXhXxXcXMXAXAXAXDXDX",
"FXDXVXBXmXvXgXtX9X9X&XO o 3 *Xf.o o O O P.I.B.M.* o + . . . . . o U.o 4 &Xz | !.:XOX>X>X>X2X3X3X7X0XyXyXdXgXzXcXbXBXCXAXDXFXGXGX",
"GXDXCXVXMXcXhXgXtX6X*Xo v wX;XO o o 3 2 1 d < O o .     . . o l f.i L.>XW.|.>X>X,X,X2X3X4X8X0XtXtXgXzXzXjXjXMXVXVXVXCXAXFXGXHXHX",
"HXFXAXVXBXcXxXjXdXyXlXO 6X1Xh.k  X|.@X|.|.P o . . o . . O i I.M.OX|.@XoX2XOX#X5X7X9X0XtXtXyXgXgXgXjXmXmXbXbXVXAXSXDXDXFXHXHXHXHX",
"JXHXDXZXVXBXcXxXhXiXzXO 7X3XQ :X@X[.'.{.|.w o : > V A lXwX1XXX`.@XXX+X,X2X4XrX5XtXyXyXdXgXhXzXxXxXnXVXVXBXVXAXDXFXGXKXHXHXHXHXHX",
"JXJXLXFXVXBXMXMXmXvXpXk.tX8X0X8X2X4X#X.X!.1X6X6X1X1X:XqX>X2XOX4X3X5X8X8X0XsXtXdXgXgXkXjXxXcXcXBXBXVXVXVXAXDXGXKXKXHXJXJXJXHXHXHX",
"JXJXKXFXAXVXZXZXMXmXxXjXT.sXtXtX0X8XqXqX0X9X<X7X<X8X4X5X8X9X0X9XqXsXtXdXdXgXhXhXxXxXxXbXBXVXVXVXZXAXAXAXDXDXKXKXHXHXJXJXJXJXHXHX",
"HXHXKXKXDXAXSXSXMXVXnXkXaXhXiXgXyXgXdXyXtXtXtXyXtX9X8X8XdXgXdXyXgXgXhXxXxXxXcXMXMXVXVXZXZXAXAXAXDXSXFXFXFXFXGXHXHXHXHXHXHXJXJXJX",
"GXHXKXGXDXAXSXSXZXVXnXnXcXcXzXhXzXhXhXgXgXgXgXiXyXdXeXsXhXhXhXjXhXhXcXcXxXBXMXZXZXZXSXSXSXDXDXDXFXGXLXKXHXHXGXGXHXHXHXHXHXJXJXJX"
};
