/* XPM */
static char *cropped1695734966[] = {
/* columns rows colors chars-per-pixel */
"64 64 256 2 ",
"   c #170A36",
".  c #1C1738",
"X  c #11132F",
"o  c #251638",
"O  c #2A122D",
"+  c #16223C",
"@  c #27253A",
"#  c #22202D",
"$  c #191746",
"%  c #141850",
"&  c #251946",
"*  c #281A58",
"=  c #301D55",
"-  c #192552",
";  c #292648",
":  c #362849",
">  c #282957",
",  c #352A56",
"<  c #3A3659",
"1  c #2E3554",
"2  c #1D1A68",
"3  c #251C67",
"4  c #221F74",
"5  c #26246A",
"6  c #352967",
"7  c #3A3865",
"8  c #252272",
"9  c #2A2473",
"0  c #2B267A",
"q  c #2D2A7C",
"w  c #292978",
"e  c #312D7D",
"r  c #352974",
"t  c #36337A",
"y  c #2C346E",
"u  c #453758",
"i  c #432D4D",
"p  c #453B64",
"a  c #563E65",
"s  c #443979",
"d  c #513D7C",
"f  c #354772",
"g  c #4E4658",
"h  c #474669",
"j  c #574867",
"k  c #494777",
"l  c #584976",
"z  c #5B5977",
"x  c #4E5570",
"c  c #675579",
"v  c #67536E",
"b  c #57677B",
"n  c #6D667C",
"m  c #63475E",
"M  c #322D82",
"N  c #382A84",
"B  c #343383",
"V  c #393483",
"C  c #3C3B8B",
"Z  c #373789",
"A  c #3C3E93",
"S  c #363B93",
"D  c #2E3085",
"F  c #443C8B",
"G  c #4C3C8C",
"H  c #473787",
"J  c #523C8C",
"K  c #543A85",
"L  c #4C3D92",
"P  c #443C94",
"I  c #533D92",
"U  c #583C95",
"Y  c #653D96",
"T  c #3A458B",
"R  c #3C4394",
"E  c #3B4698",
"W  c #3C599D",
"Q  c #395584",
"!  c #3B53A3",
"~  c #3C67A9",
"^  c #3F70B5",
"/  c #44428C",
"(  c #4B438D",
")  c #4C4A8E",
"_  c #494484",
"`  c #56458A",
"'  c #4B5887",
"]  c #585887",
"[  c #434394",
"{  c #4C4494",
"}  c #4B4B94",
"|  c #434B9B",
" . c #4C4C9B",
".. c #464698",
"X. c #534394",
"o. c #524A94",
"O. c #544B9B",
"+. c #5B4C9C",
"@. c #594597",
"#. c #47569B",
"$. c #5C529B",
"%. c #555499",
"&. c #63478D",
"*. c #655987",
"=. c #654B99",
"-. c #64549C",
";. c #675899",
":. c #74589A",
">. c #745796",
",. c #586699",
"<. c #556A90",
"1. c #686587",
"2. c #776887",
"3. c #656998",
"4. c #746798",
"5. c #67739C",
"6. c #76769A",
"7. c #6C7588",
"8. c #454BA1",
"9. c #5B4DA1",
"0. c #4A59A5",
"q. c #5C53A3",
"w. c #5758A6",
"e. c #6354A4",
"r. c #645AA2",
"t. c #6C5BA3",
"y. c #6858A8",
"u. c #755BA6",
"i. c #6A54A9",
"p. c #4867A9",
"a. c #5765A9",
"s. c #5873AB",
"d. c #566BB3",
"f. c #4B76B5",
"g. c #5876B7",
"h. c #4B70B0",
"j. c #6C62AA",
"k. c #6867A8",
"l. c #7364AB",
"z. c #7868A8",
"x. c #6978A7",
"c. c #7976A5",
"v. c #6A68B4",
"b. c #776BB3",
"n. c #667AB9",
"m. c #7877B5",
"M. c #5879C4",
"N. c #6679C2",
"B. c #855A98",
"V. c #86768B",
"C. c #8A7596",
"Z. c #865EA3",
"A. c #8569A9",
"S. c #8777A8",
"D. c #8866B3",
"F. c #8778B7",
"G. c #9679B7",
"H. c #976FAD",
"J. c #A479B5",
"K. c #AA72AF",
"L. c #8E7BC3",
"P. c #AD7EC3",
"I. c #C07DC0",
"U. c #5985B9",
"Y. c #7786A6",
"T. c #6C84B8",
"R. c #7889B8",
"E. c #7891B0",
"W. c #7B8197",
"Q. c #5787C9",
"!. c #6885C5",
"~. c #758AC5",
"^. c #7B94CA",
"/. c #7194D3",
"(. c #78A2D9",
"). c #79A8E2",
"_. c #8F8897",
"`. c #9789A8",
"'. c #8687B8",
"]. c #9786B7",
"[. c #8698B8",
"{. c #9B97B7",
"}. c #8A8DAC",
"|. c #A89AAA",
" X c #A787B7",
".X c #A899B7",
"XX c #B291B1",
"oX c #94A6B9",
"OX c #A8A6BB",
"+X c #B8A7B9",
"@X c #B6ABB3",
"#X c #C6B1BE",
"$X c #C491B9",
"%X c #8888C3",
"&X c #9588C7",
"*X c #8898C8",
"=X c #8F97D0",
"-X c #AC90C7",
";X c #98A6C8",
":X c #8BA4D8",
">X c #97AAD7",
",X c #92A9CF",
"<X c #A6A8C6",
"1X c #B5A8C6",
"2X c #B8B5C9",
"3X c #A8A7D8",
"4X c #B7B6D4",
"5X c #AAB4D1",
"6X c #92B2EA",
"7X c #A6BBEA",
"8X c #AEB3ED",
"9X c #9698E6",
"0X c #C892CD",
"qX c #C7BBC8",
"wX c #C7BCD7",
"eX c #CCB1CF",
"rX c #CFB3E7",
"tX c #E4ADD6",
"yX c #B5C1D1",
"uX c #9AC3F4",
"iX c #B0C6EF",
"pX c #CAC6D9",
"aX c #D6C7D9",
"sX c #DBD4DD",
"dX c #CEC6CE",
"fX c #E5D7DD",
"gX c #C8C6E7",
"hX c #D5CAE4",
"jX c #C9D3E6",
"kX c #D7D5E7",
"lX c #CAD9F7",
"zX c #DBDBF8",
"xX c #D1CBF8",
"cX c #E8DAE7",
"vX c #E6D9F7",
"bX c #F3D6ED",
"nX c #DBE5FB",
"mX c #D8E7F2",
"MX c #EAE3EC",
"NX c #E7E5E9",
"BX c #F4E6E8",
"VX c #ECECF3",
"CX c #E4EBFE",
"ZX c #EBEDFD",
"AX c #E6E5F8",
"SX c #F5EAF8",
"DX c #ECF4FE",
"FX c #ECFBFF",
"GX c #E9F2F9",
"HX c #F3F4FE",
"JX c #FBF5FE",
"KX c #F4FBFF",
"LX c #FCFCFF",
"PX c #F3F4F5",
"IX c #EDF1EE",
"UX c #D9E2DF",
/* pixels */
"w.%. . .0. . ...R P R Z S Z Z N H K s H &.k K p i i 7 d 9. .P L { O.e.i.+.9.X.@.X.I @.J H U N Y 9.8.U U U Y i.U U 8.R A R S R S ",
"%.%.}  .%. . . ...[ P Z Z N N Z N s K * $     $     & = ( 9.O...P O.O.u.e.u.y.@.+.+.I K U J H P 9.w.8.U U =.Y i.U L P A S S S ..",
"%.%.} ( } / [ [ ..P A B D 0 N N r r $ $             . 6 ( O.{ o.{ +.l.q.b.+.+.e.+.=.@.U U U U L 8.9.U U I I I 9.9.P P A S S S A ",
"%.%.) ) / / / F C C Z B M 0 M q 9 * * & , u u i c j : & H { O...v.o.+.@.i.y.u.i.+.I =.=.H H H H U 9.9XU L L I X.9.U P P A P S ! ",
"o.%.) ) / / T t B V V e q 0 0 9 3 6   < _.dX2XqXqXqXsXvX7 G { 9.O.b.-.r.e.u.u.U Y U ` @.L H G J H 9.y.q.F / L H U U P P P S P E ",
"%.o.) ) _ T V t e t V q e q q 9 r *   cXMXfXaXfXcXfXfXSX> s { L O.-.j.+.-.;.L.=.i.b.=.J H &XI X.G 9.O.r. .O.{ { P U P U 8.8.8.E ",
") ) ) ) _ ( ) F t t B e M q q 5 s & ; sXMXfXMXcXcXbXsXSXvX` ) { 9.e.F.r.j.u.u.Z.=.D.&.@.L H H J I G O.q.%.b.w.F U P P P U 8.E 8.",
") ) ) _ t V T V B D V e M q 0 5 s < c aXfXfX|.2._.@Xv n 1X;.o.( X.-.b.j.j.u.l.D.Z.t.=.-.G L H G H H F w.w.} ..L P U U U P 8.8.8.",
"/ ) / / _ V C [ t V M B B Z N 9 = 4.`.dXfX_.: i j bXi c n S._ X.( $.l.m.j.t.A.D.A.u.=.-.( G G G H F F L q.w.{ ..U 9.L L X.9.[ w.",
"} ( / F t e t V / e M q C v.B 9 = 1.`.qX#X|.+X+XhXaXaX|.vXvXt X.G +.;.b.b.l.l.D.G.z.&.` K @.K G F F G P { 9.X.O.U 9.{ 9.9.P O.{ ",
"} { F F B B e t ..9 M M B P Z 9 SX1X_.aXfXfXcXfXaXcXSXfXcXvXs ) o.{ r.j.&Xl.z.D.F.z.;.&.` ` K +.G H G H L { X.9.8.9.U e.X.$.b.{ ",
"[ / T C V e e q V Z 9 0 0 q q 3 -Xn dXdXaXdXfXtXo O O +XpX4X_ H / ( } -.F.F.z.S.A.&X4.&.=.K ` K G H G G H G X.X.i.8.9...y.I e.9.",
"[ R A C C B e q 9 4 e 8 9 4 2 3 vXj SX_.|.@X|.XXJ.a n eXqX1XxXk H %.} j.t.F.'.&Xz.S.A.&X;.=.=.K ( J J J G G I L X.O.9.9.O.X.L y.",
"R [ R [ / C B B j.9 M 8 8 2 4 2 , C.qXV.V.C.+Xc m v v n +X|.zXH F [ +.%.r.m.'.&XS.z.G.z.>.=.:.:.` J K X.J J X.L P ..q.9.X.+.e.=.",
"C R C C C Z B q 0 w 3 9 2 4 4 * * rX`.B.C.V.XXi eXeX0X+Xv {.d X./ { O.+.r.b.m.'.F.F.F.H.:.>.&.` ` K K ` J J I L G O.L e.9.9.I @.",
"R A A C Z B e q M 8 q e 3 4 5 4 3 = = a V.2.a u `.m c C.p }.H F [ ..{  .$.4.m.&X%X'.xX].H.:.&.&.d K K @.X.G X.G H L X.@.9.U 9.X.",
"[ S A C V V M D M 4 0 4 4 9 8 5 2 5 6 -X>.a c = l 1XXXC.u ].t F  .[ | } $.&.6.F.%X%XF.S.`.B.>.&.Y K K K @.@.X.G J J K @.r.+.X.G ",
"R C C C C Z D Z M M M 0 9 9 8 5 8 5 3 s 4.& : , , i c a : vXt t T C T ) ` ;.4.c.>X%X3XF.H.B.>.=.&.d d Y U J o.J K H H X.q.e.9.O.",
"8.[ [ M C Z Z e D D M N 0 9 0 B 5 2 y > ].p & o   o o o C.wX& % > 7 t _ ] ] 1.5.~.=X%XD.H.J.Z.>.>.&.Y Y U =.J U U G X.}  .w.8.O.",
"8.S ..F [ C Z B M D M D r 0 4 9 q w 3 6 -Xz = o o & O a `.1Xo u . h {.; SX*.u LXc.&X=XF.C.H.H.B.>.&.&.` U =.U I G H ( / | 9.w.w.",
"0.E R %.F F C Z S Z D D M q 8 4 D 8 3 3 d ].1Xo O o = 4.`.V.. X # DXzXz LXhXh KX;X].3X%XG.]. XH.B.;.;.-.X.@.9.H L G / F / [ w.$.",
"0.| T ..{ [ [ Z Z S D Z q 0 M 0 M A V 5 * ].<X2.i = : 2.2.X ZXJXJXJXLXLXLX: _.x JX<.3X3X].G. X XH.z.m.;.$.o.U J G G F C / F q.q.",
"! 0.T  .v.o.} C A D D S M q e 9 4 4 9 * = ]. Xi i i c c nXJX2XjXHXAXLXLXKXKXPXg HXOXc.DX5X.X-X-X].F.m.k.;.$.y.9.L { F F H H I +.",
"! /.#.#.%.a.} [ N.| D Z B q e 9 0 q 6 * . o  Xm i u 2.1XJXKX<X5XY.gXPXLXPXPXDXKXg DX7.<XLX5X-X-X-XG.c.%Xx.r.8X9.X.L L X.H X.G e.",
"p.p.M.0.,.m.%.| R R C B Z B y 6 5 > X - X O .Xj i fXO JXsX@XkX<X] ;XPXLXPXPXIXLXLXg LXKXmXFX1X-X0X XF.].m.l.y.r.9.{ L O.X.I X.O.",
"6XM.M.p.a.a.k. .[ 0.T Z Z 9 t SX. KXKXZXHXJXu a m XXSXeXbXfXj < R.;XFXPXPXIXLXPXJXPXx oXyXGX;X;X-X0X].S.&Xb.m.r.q.w.+.O.9.+.} O.",
"M.Q.M.9Xd.v.m.%.) T T S V _ JXKXHXKXLXDXLXLX: o bXdXeXbX#Xm aX].3.iXKXKXIXIXPXLXsXpXnX5XE.lXnXoX-XtXJ.G.].z.z.;.r.e.q.9.q.O.O.%.",
"f.6XM.M.g.s.a.m.%./ } T T t JXLX6.[.b LXPXKXAXZXqXBXaXXXK.bXC.& [.iXFXFXNXNXHXSXW.mXnXnXE.E.5X;X X-XeX XG.S.rXz.t.+.e.y.9.O.9.%.",
"f./.Q.Q.).g.s.R.k.' %.} _ iXLXKXY.5.[.LXLXLX@XZXcXdX+XtXeXm j ].yXiXFXmXVXZXKXOXOXmXCXb b E.FXmX X`.eX-XJ. XA.z.t.+.i.u.e.9.+.O.",
").~ 6XU.f.Q.m.x.%Xk.$.) k < KXKXT.<.KXKXJXLXBXfX@XdXaXB.O bXV.oX6X[.jXDXNXkXHX_.yXyXx b W.7.E.FXOX4X XbX XK.S.>.:.i.=.i.e.9.{ X.",
"~ ^ /.).f.T.s.k.m.j.$.%.}.KXKXFX[.>XFXLXLXJXfX#X#X#X@XcX.Xu pXmX,XR.W.AXNXsXpX{.oXx b 7.mXFXoXoX5X<XrX0X0XK.J.A.:.u.=.9.e.@.L L ",
"~ /.^ f.f.h./.a.k.8Xk.] KXKXIXKX' 5.FXDXLXfXaXaXV.V.#XXXo SXFXoX^.R.Y.CXUXPX{.}.E.x x mXb oXE.[.;X7.V.eXbX$X XJ.z.u.i.=.9.+.@.G ",
"f.h.f.f.).f.g.a.k.m.'.4.LXLXPXKX> 7XKXJXBXdXfX|.+X|.V.< NXIXFX[.R.R.x.zXpXIXZXh x f h GXb <.Y.E.b _.HXJX$XtX$XK.C.u.u.i.i.U Y Y ",
"uX~ h.g.f.g.p./.w.b.xXS.kXx LXKXf *XKXdXdX#XXXeX2.2.j HXPXyXY.*X*X^.T.lXjXpXpX6.n ] 7.f x b Y.x b sXcXBXSXbX$XXXH.D.=.i.=.=.i.Y ",
"Q.Q.f./.h.).h.~ p.a.].vX@XV.LXLXY.1 hXn #XqX+Xv a i JXHXKXOX;X^.^.x.,.lXjXsXnXh < b }.k x b f h j kXSXBXBXJXbXXXJ.H.D.i.i.=.Y Y ",
"^ uXg.h.h.f.M.h./.x.S.SXdXLXLXKX5XFXpX1XOX`., ; X @ mXFXKXOXR./.T.T.s.nXCXGXz z < <.4X4.f h u h 6.1XcXBXBXSXJX$XK.J.D.D.D.=.=.U ",
"~ Q.).^ ).^ Q.g.#.k.S.1XJXLXKXZXyXOXOX7.x ; $   ; JXKXKXKX[.^.~.T.p.Y.CXyXn CX1 < 3XrX'.6.S.4.:.4.6.cXBXBXBXSXbXK.K.K.H.B.Y Y u.",
"! Q.).Q.^ f.g.a.} ,.JX{.LXJXHXZXHX{.2.< $ + $ - k JX@ KXDXjX^.!.T.:XY.7.pXFXjX@ 1.gX'.&XA.A.z.A.S.<XBXfXBXBXBXBXI.K.K.P.H.i.Y Y ",
"~ W Q.uXQ.Q.h.T ' %.j 2.LXLXcXhX4Xc k < ; + % y 7 ZX@ VXKXKX^.:X~.% nXGXDXpXmX: wX4XF.F.-Xz.A.l.c.c.cXBXNXBXBXBXtXI.K.B.Z.u.u.Y ",
"W W ^ ).).Q.!.Q x.] u p pXdXMX+X1Xh < f $ X y x.% DX. LXHXDX*Xf T.7XlXPXjXsXZX@ ZX{.z.&X&XG.l.b.z.6.cXcXBXBXBXBXI.I.K.H.B.Z.u.i.",
"uXQ p.Q.uX(.Q.Q 5 , pXhXwX1XpXn `.p 7 7 + + f R.- 3X@ JXHXnX' T.T >XFXyXPXMXwX@ kXxX3.l.&X-XN.b.m.6.bXBXBXfXBXbXI.tXI.Z.Z.i.u.i.",
"U.^.0.g.6X:X/.p.$ vXwXvX2..X@X|.].p k < 1.}.> x.- 5.# JXAXY.,.^.7Xx.jXKXsXMXSX@ 4XhX;.l.%X=XL.m.m.4.cXcXNXfXBXbXK.0XI.K.Z.Z.i.i.",
"x uXs.Q.).uX(.U.8XeX2.v 1.1XV.OXv v p , 2XzX- n.- ; JX2XZX[.:X7XQ >XKXLXHXJXAX@ nXz ;.k.m.%X>X%Xm.A.MXcXBXNXSXcXH.P.0XK.A.l.u.v.",
"U.lXh.p.Q.).uXoX{.v z p 2.2.j 2.C.l 7 < pXjX> R.x.FXpXGXFX,X7X#.% Y.KXNXdX+X2XkXnX1.$.y.j.m.=X9X&X6.cXBXBXNXvXwXD.J.0XP.H.l.j.i.",
"nXGXW iXQ.(.uX:Xh u pX5Xh 1.l l C.l *.l mX; 1 x.'.GXGXKXFX7X~.:XT s.FXPXNXcX# mXjX3.v.j.v.k.%X7X3X}.SXcXcXSXhX2.:.D.K.-XG.u.u.r.",
"=X>Xp.~ ~ f.6XuXiX{.}.< g u , p z c.$.k AXZX=XR.*XoXKXGXDXs.n././.Y.DXNXVXZXX lXlXx ;.y.j.c.m.>XFX5XVXMXBXcXaX1.u.Z.D.J.-XA.D.b.",
"lX' p.p.f.h.T.6X3X< *.; 1 ; , p 3.'.k.' CXCX4XR.' FXKXKXX E.7X:X:XR.CXPXPXMX+ <XzX' ;.v.y.j.L.%XlXjXNXNXBXBX1X4.:.;.z.D.P.A.z.-.",
"#.' #.f.~ Q.f.E.7Xh 1 7 ; $ ,.,.%.x.m.3.CXZXxXR.1.FXLXyX[.*X6X^.:Xs.mXHXPXmXX lXlX' %.j.L.e.k.m.*XDXPXBXbXSX_.4.j.u.l.u.H.-XZ.:.",
"E.uX7XQ p.d.p.f.6Xx.> ; > k.s.p.,.s.m.3.ZXDXnXf [.JXKXkXE.:X~.^.~.x.AXPXPXNXX mXnX5.x.$.y.j.j.k.c.ZXSXMXBXVX4.c.r.L.j.l.D.P.D.Z.",
"lXuX>XU.p.h.p.h.s.6Xy ) R.a.d.p.#.a.v.m.mXDXx.% R.DX_.DXE.R.7X^.T.' mXIXVXSX# AXnXk.m.%.d.m.a.c.6.SXSXPXNXMX3.b.v.k.l.;.u.H.P.B.",
":X(.,XmXiXg.p.p.g.N.:X~.m.x.n.d.a.,.%.'.zXAXx.s.x.CXmXDX[.R.:X7X=XR.DXIXNXLXX ZXCX5.m.} 9.a.k.c.rXAXMXMXPXzX3.m.m.j.;.u.i.Z.H.H.",
"p.~ <.p.iX7Xs.h.d.d.=X=X,.a.p.#.p.0.%.v.}.nX> x.6.W.VXKX[.7X!.^.:Xx.mXIXHXHX+ CXnX5.m.) O.y.b.;.SXBXcXMXMX<X] r.j.j.;.=.u.u.l.P.",
"~ ~.~.^.^.d.d.d.0.p.n.N.a.a.0.#.0.#.%.] 1.CX,.5.E.DXDXHXCXE.7X:X6XY.HXNXpXpX+ DXFXx.3._ o.( ;.S.vXcXfXsXNXkX] e.;.t.u.=.u.u.u.F.",
"#.U.x.N.!.a.a.v.a.#.~.n.g.T 0.0.8.| | o.x.nXCX,.x FXGXJXKX*X>X6X:Xx.GXIXVXHX. {.GXx.k K o.` &.kXbXfXfXsXNXzXz.e.$.;.u.;.=.u.u.D.",
"Q s.p.N.w.0.d.d.p.*Xn.g./.E | | | E } } ` nXnX<.X GXDXDXFX>X*X6X7X5.jXUXIXKX; 3.KXY.t _ @.` s vXBXfXcXBXkXvXb.r.-.@.t.=.t.e.r.b.",
"p.#.0.d.N.w.w.d.a.n.g.p.0.0. .R 8.| [ / ` 8XCXY.f CXDXLXFX<XE.^.>X>XFXKXKXHX; 6.ZX6.) G H H l cX#XfX|.aXdXvXc.l.t.;.-.t.+.b.l.j.",
"0.0.d.g.a.a.a.a.w.d.d.! E 9XE S A E S 9.( y CXY.Y.DXZXKXFX4X;Xn.!.iXFXGXNXVX; <XCX;Xs I N ( d cXv #X|.#XV.wX4.b.z.t.r.q.j.-.j.3.",
"0.| w.#.%.w.a.w.0.8.p.! ! E a.E E ....C X.s GX- '.DXKXLXDXoX>X6X7X,XDXDXIXVX4X1 zXgX` H U ` a aX_.aXg qX#XvX>.b.l.r.y.q.q.y.z.l.",
"8.w.0.} #.#.} | 8.0.! 0.R R 9XP A S R P { K FX+ E.DXLXIXKXiXiXiX^.>XGXUXIXPXAX< nXZXs G L X.p vXv sXj qX.XvX>.u.b.j.y.w.q.+.4.;.",
"8.w.0.| #.R #.} ..8.E E E ..T w...[ 8.P ..) ZXX Y.7XDXHXHXyX*XQ f s.DXJXIXPXJX: HXnXl K L H 3Xj z 2.c  Xm *.&.;.t.j.k.y.y.r.;.l.",
"o.8X8.E E | T T T ..E R E S R a.[ A R P X.%.GXy x.[.ZXLXZXY.>X:X=XE.5XsXLXJXJXg {.AXZXk H H s 6.2.1.c 6.p *.-.-.$.b.l.y.y.e.%.;.",
"_ k.a.8.! E | T [ T A A E E [ ..v. .[ 8.P } nXb x.*XFXIXZX[.iXiX:X,XFXLXPXJXJXj <XHXvXk s s t 6 ].>.:.A.&.] e.e.;.e.j.y.q.+.;.o.",
",.%.v.8.E E E T T C ..R A | T T 8.q.P A O.F xX] n.E.KXGXLX;XE.^.uX;XKXNXLXLXSX2.<XHXKX].k [ F H H.6 , ` ] -.e.y.j.-.t.y.e.9.-.$.",
"%._ %...| E E R ..T C Z [ Z R R ..8XP 8.F { iXnXT.x.LXLXKXiXiXE.,X,XDXJXPXsXSXz .XZXHXAXk } F F d l K ( -.$.y.y.e.] -.e.i.q.+.@."
};
