/* XPM */
static char *c32c656af6504cc4c317259a4b219a4cH1F638EZoj64AdFV[] = {
/* columns rows colors chars-per-pixel */
"64 64 243 2 ",
"   c #1C1D1C",
".  c #171B1B",
"X  c #1D221D",
"o  c #15221B",
"O  c #22221D",
"+  c #3B2E1E",
"@  c #0D1D2C",
"#  c #0A1D27",
"$  c #131C23",
"%  c #1C1E23",
"&  c #191C2B",
"*  c #061D36",
"=  c #111F37",
"-  c #162324",
";  c #1C2424",
":  c #1D2A24",
">  c #14232D",
",  c #1B252C",
"<  c #1D2A2D",
"1  c #152A2C",
"2  c #0C2334",
"3  c #05243C",
"4  c #0C263C",
"5  c #052A3E",
"6  c #0D2A3D",
"7  c #0B2830",
"8  c #132534",
"9  c #1B2533",
"0  c #152935",
"q  c #1B2A34",
"w  c #12253B",
"e  c #1B2639",
"r  c #132B3C",
"t  c #1A2C3C",
"y  c #1D313E",
"u  c #193139",
"i  c #092229",
"p  c #222424",
"a  c #292523",
"s  c #232A25",
"d  c #292A25",
"f  c #23252C",
"g  c #222B2B",
"h  c #2A2B2A",
"j  c #29242A",
"k  c #362F24",
"l  c #34322C",
"z  c #3B372D",
"x  c #232C33",
"c  c #272C36",
"v  c #2B3435",
"b  c #24333B",
"n  c #2B343B",
"m  c #2D393B",
"M  c #253336",
"N  c #3B3A34",
"B  c #333A3D",
"V  c #3B3C3A",
"C  c #333536",
"Z  c #433B2F",
"A  c #483F3A",
"S  c #3B413B",
"D  c #34403C",
"F  c #4B473B",
"G  c #062644",
"H  c #0B2643",
"J  c #062B43",
"K  c #0D2B44",
"L  c #052C4A",
"P  c #0C2C4A",
"I  c #0B274A",
"U  c #132643",
"Y  c #122B44",
"T  c #1A2D43",
"R  c #122C4A",
"E  c #162744",
"W  c #0C3145",
"Q  c #0E314C",
"!  c #063245",
"~  c #153045",
"^  c #1B3244",
"/  c #13324B",
"(  c #1A3249",
")  c #1E394C",
"_  c #0D2B51",
"`  c #102E50",
"'  c #0D3252",
"]  c #143350",
"[  c #223342",
"{  c #2C3C44",
"}  c #2C3C49",
"|  c #273749",
" . c #343D43",
".. c #373D46",
"X. c #323F50",
"o. c #2F414B",
"O. c #3B4242",
"+. c #33434D",
"@. c #3B434A",
"#. c #374341",
"$. c #394957",
"%. c #3F505A",
"&. c #3E556B",
"*. c #374B66",
"=. c #434444",
"-. c #444B4B",
";. c #494B4B",
":. c #4A4A45",
">. c #4F514D",
",. c #45504C",
"<. c #444C55",
"1. c #484C56",
"2. c #495355",
"3. c #45545C",
"4. c #49555A",
"5. c #4B595C",
"6. c #465455",
"7. c #535B5D",
"8. c #565857",
"9. c #545252",
"0. c #5A605E",
"q. c #445665",
"w. c #545F66",
"e. c #4E5D70",
"r. c #54616C",
"t. c #496070",
"y. c #676B6B",
"u. c #7B776E",
"i. c #9FAAB0",
"p. c #9CACAC",
"a. c #AAB6B2",
"s. c #BBBCB6",
"d. c #C2BFBA",
"f. c #BCC3B2",
"g. c #C6C5BC",
"h. c #B0B8C1",
"j. c #BECACE",
"k. c #B9C4C7",
"l. c #BBC7D3",
"z. c #BFD1E7",
"x. c #C3C5C4",
"c. c #C3CAC4",
"v. c #C2CCCB",
"b. c #CDCECD",
"n. c #CCC9C2",
"m. c #C2D3CD",
"M. c #D1D2CD",
"N. c #DAD5CC",
"B. c #D4D1C2",
"V. c #C5CAD4",
"C. c #CCD4D4",
"Z. c #C4D1DB",
"A. c #CCD4DB",
"S. c #C9D6D7",
"D. c #D2D4D4",
"F. c #D5D9D5",
"G. c #DADAD5",
"H. c #D4D5DB",
"J. c #D3DADA",
"K. c #DADDDB",
"L. c #DAD6D6",
"P. c #D2CEC5",
"I. c #E5DECD",
"U. c #E4DFDB",
"Y. c #DCE0DC",
"T. c #FCE6CD",
"R. c #F5EBCD",
"E. c #FEEACE",
"W. c #F7E7CC",
"Q. c #E9E3D4",
"!. c #EDE9D7",
"~. c #E4E4DB",
"^. c #EBE5DB",
"/. c #EEEBDD",
"(. c #E7E0D0",
"). c #F5E6D4",
"_. c #FBE6D2",
"`. c #F5EBD4",
"'. c #FEEAD5",
"]. c #FFEDD6",
"[. c #FEECD4",
"{. c #F3E6DB",
"}. c #F4ECDC",
"|. c #FFEDD9",
" X c #FDECDA",
".X c #FCE6D8",
"XX c #FEF1D5",
"oX c #F5F1DD",
"OX c #FEF1DC",
"+X c #E9E7CE",
"@X c #C6D7E4",
"#X c #CBD6E3",
"$X c #CBDAE9",
"%X c #D5DDE3",
"&X c #D7DBE6",
"*X c #C7CEE1",
"=X c #E5DFE9",
"-X c #CEE0EC",
";X c #D5E3E2",
":X c #DBE3E4",
">X c #DDE5EB",
",X c #DDEAED",
"<X c #D5E4EC",
"1X c #DDEAF3",
"2X c #DAEEFC",
"3X c #DEF1F2",
"4X c #E3E5E1",
"5X c #E4EAE5",
"6X c #ECECE4",
"7X c #E4ECEC",
"8X c #ECEDEB",
"9X c #E8E6E5",
"0X c #F4EDE3",
"qX c #FBEDE2",
"wX c #F2EEEA",
"eX c #FAEEEA",
"rX c #F0E6E7",
"tX c #EEF1E5",
"yX c #E4F3EC",
"uX c #EDF2EC",
"iX c #E6F1E0",
"pX c #F4F1E5",
"aX c #FCF3E3",
"sX c #F4F2EB",
"dX c #FBF5EB",
"fX c #FCFBE9",
"gX c #FBF9E8",
"hX c #E4EDF2",
"jX c #EBEDF2",
"kX c #E5EEF9",
"lX c #EBEFF8",
"zX c #E4F2F5",
"xX c #EDF3F4",
"cX c #E1F3FD",
"vX c #EBF5FA",
"bX c #ECF8FD",
"nX c #E9F8F1",
"mX c #F2F3F1",
"MX c #F2FAF5",
"NX c #FBFAF3",
"BX c #F3F6FC",
"VX c #F3F9FD",
"CX c #FCF9F3",
/* pixels */
"Y Y P P P P P P K H / 5 W 3 Y Y H 6 H Y R H R U R P P P P L L L P P K P P P P K P P P P R H R H w Y Y H K / J P K K K K K K P P ",
"Y K K P P P P R / H 5 P 5 / H H ~ 6 4 r 2 t t t t t t t r r r r r t t 0 0 r r 6 4 6 Y Y H P P K Y Y Y K H K P K K K K K K K P P ",
"P K K K K K Y Y K H / P P P R P H Y r 8 # zXuXtXpX0X0X0X0X0X0X0XpXpXpXpXsXuXY.v.g b i 7 Y 5 J Q R H K K K / H K H H H H K K K K ",
"P K K 6 6 6 Y Y R R 3 K K G P H Y t Z.1X:X6XoX`.XX[.[.[.].'.|.|.'.].]._.`. XaXaX~.5X: 0 r Y K J G R P P H K 5 / H H H H K K K K ",
"P K K 6 6 6 K K H R R H Y Y r t 1.9.9XwXeXqX X].[.[.[.[.'.'.|.|.'.'.].].[.[.'.|.aXpX9.<.%.w r 4 K / H P K H Y 4 K K K K K H K H ",
"P P K 6 6 6 K P / H Y t e 8 > M 6X}.}.aX|._.|. X].].].].]. X X X X_._.[.].].'.'.|.}.sX8X%Xq > t ~ 3 Y H H H ( H Y Y K K H H H H ",
"P P Y r 6 K P P G Y 0 , g Y.5XtX}.OXOXW.OX|. X_.|.|.|. X].]. X X X}.OX X'.'.[.].'.|.}.0XsX8X8XB q 0 4 Y Y R H P P K Y Y K K H H ",
"R R Y Y K P P P K r , mX/.}.aXoXXXW.[.].[.]. X|.|.|. X].].[.[. X X}. X[.[.]. X].'.].[.OX{.aXaXwX8Xj.t 8 H H P P P P Y Y Y Y H K ",
"K K Y R K R P K r { G.{. X_.]._.].[.[.[.[.[.[.[.[.[.[.[.[.[.[.[.].].].].].].].].].].].]. X X X XpX6X:Xe 4 R P L P P K 4 Y / 5 K ",
"P / G R H K ( 2 b S dX XOX[.[.OX].].'.[.[.[.[.[.[.[.[.[.[.].].].[.[.[.].].]. X X X X].].].].[.].].}.^., 8 Y K P H K K ( 4 H K P ",
"P 5 K P Y 4 0 q G.}.).].]._.'._.|.|.'.'.'.[.[.[.[.].]. X|.|.|. X'.'.'.|.|. X X X X|.|.'.'.'.[.[.E.].{.mX$ 8 Y K P / H H H K P K ",
"5 W K K 4 T q uXpX X[.[._.OX|.OX|.|.'.'.'.[.'.'.[.]. X X|.|.|. X|.'.|.|.|. X X X X X|.'.'.[.[.[.[.].`.0XmXb t r 4 4 Y H / K K K ",
"W 5 Q K 4 e g ^.OXE.]._. X'. X_. X X X X X].].].].].].].].].].].]. X]. X|.|.|.|.|.'.'.'.[.[.E.E.E.].OX{.0XNX:Xq ^ 4 H P P H Y H ",
"5 W J P Y e K.gXW.XX'. X X X_.OX].]. X X X X X X].].].].[.[.[.].]. X X X].].'.'.'.'.'.[.[.[.[.[.]._.].'.OX}.NX:X8 ~ 5 K P K Y Y ",
"Y K P K 4 0 5X}.OX[._.|.'._.XXW.[.].'.'.|.|.|.|. X].'.[.].[.'.].]. X].].].].[.[.[.].].]. X X X}.}.}.].].XXT.}.6X4.6 ~ P P H 4 Y ",
"Y Y P K r - sX}.[.OX[.[.|.[.W.E.[.'.'.'.|.|.|.|.|.}.}.}.}.}.qX}.}. X X].[.[.[.[.].].]. X X}.}.}.}. X X[.E.XX[.aXxXq ~ P P H T w ",
"H K R Y , . }. X|.|.|. X|. X].[.].[.'.'.aX XqX{.sX9XmX7X8X7XjXuXwX}. X X[.T.OX[.|. X]. X]. X}. X[.[.'.'.].]. X X}.sX| H K 5 Y w ",
"/ K P 4 4.pX}.'.|.|.|. X X|. X].T. X].[.).aX{.N p p ; , > , , $ p P.}.OX].]._.|.|. X].]. X].|.'.[.[.|.|. X X X|.'.0X+.H W / 4 Y ",
"H K K 6 4.sX}. X|.|. X X X|.].].OXT.'.OX X|.k g.~.4Xp >XB x ,X, 4X9.8.}. X[.OX[. X].'.'. X X'.[.[.].|.|. X X X|. XpXo.H 3 J R K ",
"/ 5 / r <.sX}.[. X X X X|.|.].].'.'.OX_.[.|.+ N.0XCXl :XC 7.A.O.Y.>.>.6X{.).).OX].].'.'. X].[.[.[.].|.|. X X|.|._.dX} H Q P K R ",
"3 Y K r 2.6X|.[.]. X X X|.'.].].'.[.OXOX X X).).aXdX6XO 8XC.. 7X- J.C.% sXeX}.).].].'.'.|.'.E.E.'.|.|.|.].].'.'.OXpX{ 6 P _ G K ",
"Y Y P 4 5.6X X].].].].].].'.].]. X X'.'.'.[.[. X|.{.0XsXO =.MXg 7Xm  .hXa wX^. X].].'.'.|.'.[.[.|.|.|. X].].[.[.E.aXm t P G R K ",
"H H K r -.sXOX[.].].].].].'.].]._.OX[.OX X'.]. X_.aX X}.dXN.  :X- j.%X, jXp /.}.].].'.'.|.'.]. X}.}. X].].[.[.[.].oXV q H R Y 4 ",
"Y Y H r 2./. X].].].].].'.'.[.].]. X X X'. X[.[. X'. X XaXQ.N.S J.4.7.H...p wX{. X]. X X'. X}.0X0X0X0X}. X].[.[.].oXF.i.U R H r ",
"H Y K r 2.pX X].'.].].].|.'.].].]. X X X].'.'.[.].T.].[.}.{.^.>.j.w.y.c.@.; wX}. X[.OX X]. X0Xc.v.x.g.n.pXOX'._.|./.6Xk.Y R 4 Y ",
"H Y K r 2.pX X].'.].].].|.'.].].]. X X X].].'.[.T.].].].[.aXQ.4X$ Z.b.h :X. sX{.|.[.{.}. X}.7X, x e M p 9XaX|.|.{.NX6Xk.Y H Y 6 ",
"H Y K r 2.pX X].'.].].].|.|.].].].].].]. X].].[.OXT.[.]. X}.pXd lX@.V 9X; ; sX}.|.OX}.}.oX~., w Y 4 w q , G.}.qX8Xg K.k.U P K Y ",
"H Y K r 2.pX X].'.].].].|.|.].[.].'.].].].].].[.E.T.[.]. X{.pX9Xg S.D.s 7X; dX X'.[. X}.^.X t Y P H Y 2 q :X0XsXx b C.j.Y P P H ",
"H Y K r 2.pX X].'.].].].|.|.].[.[.].].]. X X].[.].XX[.E. X}.^.  7X .2.7X; 8X0X{.'.'. X}.Y.x 4 H P / P r 8 J.dXpX> 0 C.v.4 P J Q ",
"H Y K r 2.pX X].|.|.].].|.|.].[.[.].]. X}.}. X].E.[.E.XX[.aX}.:.v.7.4.S.; dXpX}.[.OX[.}.K.> Y K K H H Y e :X}.6Xe 0 C.k.r / K K ",
"H Y K r 2.pX X].|.|.].].|.'.'.[.[.[.]. X}.}. X X].[.XX[. X}.0X6XO C.@X>   sXpX XE.[.]. X>Xr 4 K H Y R Y > Y.oXdXe 8 K.c.r H H K ",
"H Y K Y 2.sX X].'.|. X X|.'.].].'.'.].].}.}. X X[.]._.]. X0XwXd 5X@.e > 8X0X X].].[._.eX<Xr ~ 5 Y Y Y w xX0XXX}.q t F.c.8 K P K ",
"K R H R 3.uX`.XX[.|. X X|. X[.]. X X].R.OXoX`.XXE.].'..XdXn.. jX. A.Z.< 6XOXE.E.[.|.wX@.r 6 Y Y 4 Y K 7 sX XE.].>X> J.k.T P J ! ",
"H K R H t O.gX[.]. X|.|. X].[.[. X|.XXW.}.Z gX}. X X XqXz 8.H.<.A.5.w.C.pX[.E.T. XqXjX} w ~ 4 4 Y H 5 r pX[.[._.8Xg F.v.4 H J ! ",
"H K P / w > sX X].[.'. X].].].].|. XE.E.).A b.C.F.^.0XN.:.8.A.> #X..O.8XqX].[.E._.aX8X@.8 6 K W H K P 8 wX|. X{.6X=.a.p.r Y R H ",
"( 4 K R w 9 4X0X X[.[.].[.]. X X).'.E.T.|.qX% g ;.MXmX  tXc.: < b 9 V 0X X[.T.]. XaXwX .8 r K J Q 5 Y 9 dXqX XgX^.dXB > w H R R ",
"4 H K K Y T , sX}.].[.E.[.]. X|. XaX].[.T.'.aX}.g.a p p p s : yXq x F  X[.[.OX[. X`.dXV 9 T K P K Y = jX|.[. X}.dX8X{ r r Y E E ",
"H Y / K P U 0 jX/.].[.E.[.].|.|.|. XT.T.OX XaXpX8XjXvXkXkX,XnX- q S.pX`.[.E._.|.OX}.{.0X%X9 r 6 r T x wX|.[.OX}.~.g 2 ( Y Y E E ",
"R K 5 K K Y T 9 G.{.[.E.].].|.|.}.oXR.+XdX; # 8 w w w 4 2 @ 9 kX| Z.8XqX X]. X XOX X X XCX8XzXq , 7.^.{. X[.[.(.p u ( G H 4 K R ",
"R K K K P K Y 0 D.0XOX[. X X[.}.pXf.fXiXv.3.T &.*.E *.~ &.q.$.l.e #X8X0X|._.OX[.[.].].T. X0X6X;.>.u. X[. X`.aXg.,.q 6 K K K P K ",
"P P K K K K R T &XK.pXaX}.}.qX^.NX; 7X%X- cX8 $XV.& 1X> 3XzXvX, , A.mX0XaX]._.[.[.].E.[.]._.}.0XpX{.[.].aX6XU.p hX0 Y K P P J L ",
"P P K 6 K K P E 0 m wX0XaX0XdX6X  BXc n zXq <X@.=.4Xg , 1 - - 7Xg x =.8XpX}.`. X X_.[.W. XaX{.pX{.aX[.]./.xX&X& hX8 Y P P P P W ",
"_ P K 6 K K K Y r 0 , 8Xa G.s.d 8Xj =XH.- ,X- m.c.; hX, e @.xX: hX .x < g uXpXpXdXsXp d X X p p k F [.OX8Xn E w vX9 Y I G / H 6 ",
"P P H H 6 K K K H T 0 ..H.-.7.F.=.D.;.9.K.D m.5.7.C.B &Xe 9  .C.O.k.h.> m.#.S N N V F.F.D.F.K.M.N.(.[.}.8X} U * kXx 4 ` P H Y Y ",
"P P H Y Y Y K P P H Y 0 $Xr.5.,Xx :X-.;.C.B :X7.7.A.v ;X$.t , >XC D.h.n hXp C l z Z Q.pXfXoX}.fX!.}.aXqXH.$.E E kXq Y H P R H E ",
"P P Y Y Y Y H P P P / 4 8 -Xl.> cX, ,XJ.; vXx A.V.> 3Xu 2 $.bX; 8X..B 7Xx BX8XsX{.0XqX}. X`.OX`.OXoX XqXa , e @ cX0 6 K K R H U ",
"K K Y E E Y H P L L J K Y w r w 8 2Xy o.3X- :X@.<.1Xr * 4 $.vX5X; C.C.x hXzXxX8XwX0XqX X|. XE.[. X X]. X{.l z yXw ] K H / 3 Y Y ",
"J K Y Y E Y H P L ' G P Y 6 6 Y 4 Y ~ 2 1 <X> #Xl.[ 6 / K 4 $ MXxXO.S MX< < p h O wXdX0XeXqX[. X XOX].`.aXoX/.MX6 P P P H Y H 6 ",
"K K K K Y K K K P P K K H H H K P P W 6 u r Y ) t r 6 K H 6 t vXsXQ.I.oX: Y.I.(.4Xg n v c C eX X}. X[.].}.F h | Y P P P P K 6 6 ",
"K K K K K K K K K K K K K K K K P L P K 6 ~ K 4 y %.y 4 4 ~ 4 l.sX X[. Xo yXaX}.7Xq 6.4.<.;.x.d.s.n.aX0XwXB e w K P P P P K 6 6 ",
"K K K K K K K K K K K K K K K K P H K 4 Y Y Y 0 -.mXf q [ w 4 t 6X X[.aXg vXwXwXbX< uXuXCX6Xs - q q.zXxXkX[ Y / P P P P K K Y r ",
"K K K K K K K K K K K K K K K K H Y Y Y Y 4 4 $XBX9XxXkXt 4 Y t sX X[.|.xX$ p a p ; 8X8X^.NX, cX( r > q 8 0 4 G P P P K K K Y H ",
"K K K K K K K K K K K K K K K H Y 4 Y r r Y H 4 @.VX@ 8 Y ( H 2 5X}.XX`.xXf dX|.qXeXf 9 , $ e cX[ e.vX: 7Xm y Y K P K K K Y K K ",
"K K K K K K K K K K K K K K K K Y Y 4 Y Y 6 K Y <.>X9 t 2 4 Y 2 v B.`.oX8Xp dX0XeXrX& *X:X:Xq [ 8 q.hX; 7Xn 8 Y K K H H Y P K K ",
"K K K K K K K K K K K K K K K K K R K K R H ( | ;.CXN C  .t Y 0 , P.{.dX0Xl :X>X&X>Xx J.0XaXp b 8 t.1X> cX| 6 K 6 6 K H R P P K ",
"K K K K K K K K K K K K K K K K P H P P J P K $XwX0XdX8XVX@Xr r q b.0X}.qXeX% , ; - g G.fX}.g zXr y 8 @ 8 Y Y K K K K K P P K K ",
"K K K K K K K K K K K K K K K K K P P P J P H 8 =.0XwX; q w / 5 9 b.0X X X XaX}. X!.d g p g q 2X[ 3.vXg zXy R P P P K K K K K K ",
"K K K K K K K K K K K K K K K K R K G J / H H t ;.sX8X; < 0 2 r q H.wXeX X'. X X[.XX^.5X8XxXx b 9 4.7X. bX} H P P P P K K H K K ",
"K K K K K K K K K K K K K K K K H H ~ Y 4 r r 8 :.sX~.M.G.D.F.J.A.<...B !.OXoX}.].T.OX X X{.N.D.C.a.v < X.w R P P P K K K K K K ",
"K K K K K K K K K K K K K K K K Y Y 4 Y w r r %.y.dX8XmXs.x.x.x.V.r.q.0 v.f.g.n.{.aX[.'. XqXqX0X6Xc.:.2.3.= H P P P K Y K K K K ",
"K K K K K K K K K K K K K K K K Y 4 Y 4 Y Y 6 @X7X6XjX>X- 8 0 w 8 $Xz.T r t ^ $.7XpX/.oX[._. X[.|. X`.aXsXn T H K P K K K K P K ",
"K K K K K K K K K K K K K K K K Y 3 K Y Y Y H r , f , t 0 Y H Y r T ( 4 H R H r q , X M.6X0XqX X X|. X}.pXv 8 Y K K H H Y K K P ",
"K K K K K K K K K K K K K K K K K / K K Y H Q K r 2 Y Y 6 Y Y 4 Y 4 H Q R Y Y 4 w r ( 2 2 0 ; 8XwX0XdXsX7X+.Y K K K K H Y Y K K ",
"K K K K K K K K K K K K K K K K P P K R H P ' L Y Y K K P H Y Y H K P G K Y 4 Y Y K P P K 2 0 x c h h g q # K L J J K H Y Y Y K "
};
