/* XPM */
static char *_5a0c6357f3449f49dcea922d3711002RRurduQuoJG8ImFE[] = {
/* columns rows colors chars-per-pixel */
"64 64 240 2 ",
"   c #020202",
".  c #0B0200",
"X  c #080705",
"o  c #130400",
"O  c #170C04",
"+  c #160F09",
"@  c #27251E",
"#  c #382B1A",
"$  c #352F18",
"%  c #1C2629",
"&  c #2C2B25",
"*  c #2B2C2C",
"=  c #242827",
"-  c #322C23",
";  c #322D2C",
":  c #382C25",
">  c #2D312C",
",  c #2D3027",
"<  c #32322C",
"1  c #3A3629",
"2  c #2D2E32",
"3  c #252B35",
"4  c #322F34",
"5  c #352836",
"6  c #2E3132",
"7  c #2B3136",
"8  c #333333",
"9  c #3C3B35",
"0  c #3C3C3B",
"q  c #363637",
"w  c #443A2A",
"e  c #413D3A",
"r  c #413D35",
"t  c #3D403B",
"y  c #3E412E",
"u  c #46412D",
"i  c #444335",
"p  c #44433D",
"a  c #4A463C",
"s  c #4C4B3D",
"d  c #4A4837",
"f  c #544A3C",
"g  c #564836",
"h  c #5C523A",
"j  c #5A4B2E",
"k  c #684C2C",
"l  c #6C512E",
"z  c #684E33",
"x  c #645234",
"c  c #6B5334",
"v  c #62533A",
"b  c #6C5439",
"n  c #715532",
"m  c #3C3C42",
"M  c #3E3E48",
"N  c #2B3843",
"B  c #463F41",
"V  c #3E4649",
"C  c #3D4D58",
"Z  c #3E545B",
"A  c #3D5464",
"S  c #3D596B",
"D  c #3C5667",
"F  c #3B5069",
"G  c #454544",
"H  c #4A4644",
"J  c #464944",
"K  c #4B4A45",
"L  c #464649",
"P  c #49464A",
"I  c #464A4B",
"U  c #4B4B4B",
"Y  c #524C44",
"T  c #514D4B",
"R  c #504644",
"E  c #4C5249",
"W  c #53524B",
"Q  c #585547",
"!  c #4B4C51",
"~  c #424B55",
"^  c #514E52",
"/  c #455455",
"(  c #4B5454",
")  c #44545C",
"_  c #4B555C",
"`  c #47595B",
"'  c #545656",
"]  c #645946",
"[  c #615D54",
"{  c #7B6A4B",
"}  c #656254",
"|  c #696555",
" . c #666259",
".. c #69655B",
"X. c #6B695A",
"o. c #7A6C58",
"O. c #7C7259",
"+. c #746E4B",
"@. c #435564",
"#. c #435964",
"$. c #4B5964",
"%. c #42566B",
"&. c #435A6C",
"*. c #4A5766",
"=. c #445A74",
"-. c #485462",
";. c #6C6964",
":. c #7B7564",
">. c #75777A",
",. c #6E7374",
"<. c #536565",
"1. c #82643E",
"2. c #8C6D4B",
"3. c #876C48",
"4. c #86754B",
"5. c #846E54",
"6. c #847354",
"7. c #84735B",
"8. c #897757",
"9. c #927551",
"0. c #91714B",
"q. c #847462",
"w. c #837E71",
"e. c #94865C",
"r. c #A69A55",
"t. c #8B876E",
"y. c #9B876B",
"u. c #868375",
"i. c #8C8473",
"p. c #8D8973",
"a. c #8C857A",
"s. c #8D897C",
"d. c #85827A",
"f. c #918674",
"g. c #928A7B",
"h. c #948A76",
"j. c #9F9478",
"k. c #A08E72",
"l. c #B49C7C",
"z. c #A89578",
"x. c #B7A679",
"c. c #B7A759",
"v. c #7E8484",
"b. c #898682",
"n. c #8C8A83",
"m. c #868586",
"M. c #918E84",
"N. c #918F88",
"B. c #A59E8B",
"V. c #A79E88",
"C. c #A49E93",
"Z. c #AA9F92",
"A. c #A5A38C",
"S. c #ABA38D",
"D. c #A9A488",
"F. c #A6A293",
"G. c #ACA493",
"H. c #ADA895",
"J. c #AAA49A",
"K. c #A9A69B",
"L. c #B1A594",
"P. c #B2A995",
"I. c #B2AA9B",
"U. c #BBB89B",
"Y. c #B5A688",
"T. c #9CA4A4",
"R. c #A8A9A4",
"E. c #BDBAA1",
"W. c #BBBAA9",
"Q. c #BFBDB4",
"!. c #C2BC9D",
"~. c #C2BCA5",
"^. c #C3BEAA",
"/. c #CBBEA6",
"(. c #C2BFB2",
"). c #BEC1AA",
"_. c #BDC1B7",
"`. c #CDC899",
"'. c #E7DB99",
"]. c #C4C1A5",
"[. c #CBC3A6",
"{. c #C5C2AC",
"}. c #CAC5AD",
"|. c #CCC9AE",
" X c #D3C5AB",
".X c #C5C4B2",
"XX c #CBC6B1",
"oX c #CCC9B3",
"OX c #C3C4BA",
"+X c #C9C8B7",
"@X c #D2CCB5",
"#X c #D9D5BB",
"$X c #E4DCBB",
"%X c #EADDBD",
"&X c #E6D9B6",
"*X c #ECDDB4",
"=X c #E6E2BE",
"-X c #EBE2BE",
";X c #EAE3B4",
":X c #F3E3BD",
">X c #BDC5C3",
",X c #C6C9C3",
"<X c #D5D4C2",
"1X c #DAD6C4",
"2X c #DDDAC5",
"3X c #DDDACB",
"4X c #D8D6CA",
"5X c #DBDAD4",
"6X c #D0CCC3",
"7X c #E3DDC3",
"8X c #E3DCCC",
"9X c #E9DEC4",
"0X c #E9DFCE",
"qX c #DDE4D5",
"wX c #DCE6DD",
"eX c #E5E2C3",
"rX c #EAE4C4",
"tX c #ECE8C5",
"yX c #E5E3CC",
"uX c #EBE5CB",
"iX c #ECE9CB",
"pX c #E7E8C6",
"aX c #F2E5C4",
"sX c #F3E4CA",
"dX c #F2ECCC",
"fX c #F4EBC5",
"gX c #E5E3D3",
"hX c #EBE5D3",
"jX c #E8E8D9",
"kX c #F4EDD5",
"lX c #F5F2DC",
"zX c #FBF4DB",
"xX c #F9F4D7",
"cX c #F3F0CD",
"vX c #DBE7E1",
"bX c #F6F2E4",
"nX c #FBF4EC",
"mX c #FAF7E8",
"MX c #F9F7F6",
"NX c #F0EFE8",
/* pixels */
"S A -.U H d yXyXiXkXyXhXhXu s a wX/ ) ) *.-.@._ _ / ( ( ( _ _ _ _ _ ( ( _ $.) $._ _ _ ! ^ W gXd 2XyXNXU G K G K d yXT ! @.*.#.Z ",
"A &.~ L ..gXyXgXd ] hXmXgXyX#Xi J vXI / / ) _ >X>XT.R.J >X>X,XI T.R.T.R.>XT.~ V _ _ ( wXjXgXs yXyXhXmXp K K ^ J d hXH L ~ A A D ",
"&.#.vXK | jXgXs Y s s i mXnXlXhXs i jX5XE ,X,X_._.p K K K.F.p ,XOXp W _.J J ,X>X>X_.qXY i d iXE.lXbXNXW p p V   K d 5X5XV *.#.A ",
"A ` wXs | 8XW K     . K K bXlXyXyXs s Y gX_.Q.K K K K p K s s .Xa E a K p K J W OXK Y yXyXpXU.uXmXbXqXK K   X   U p 8X<XV ) #.%.",
"&.) qX| :.yXK L       0 G NXbXyXyX| d Q @X+XW.p p H U W H p K R.a K p K W G K E R.a a 2XiX#X!.iXzXbX+XK 0       ! K yX@X<.` %.F ",
"A ` jXpXeXhXK U         U Q.W.mXuXuXu s u jXs K U U H H ; & < & & * 8 L G U U K K < s 2XyXuX].eXzXlXs G         G K 7XeXjX/ @.=.",
"&.C NXuXiXyXp U         U 9 Q lXyXyXhX#Xs a G U P ! ! 4 2 8 * 8 8 * 4 2 U L G T L K K hX8XE.!.zXuX#XK     X     K s #XyXqX` *.A ",
"%.) MXlXxXiX9 K       X   K Q {.zXeXyX<Xs K * I U ! L ! 2 * 2 2 2 2 4 P ! U U G 4 H K 8X8X^.eXzXeX2XK           d E.iXeXqX/ ) *.",
"%.@.MXmXzX7X).s           J [ E.|.pXyX#XK K U 2 8 L U U * 6 2 2 2 2 2 U G 8 G K K K K 8XyX~.!.zXrX#X0         y E.].uXyXqX( _ @.",
"&.*.MXnXbXuX].Q     X     U W ^.|.eXiX1XH G U 2 6 U p K 8 6 2 2 4 8 8 G U < p K K p a <XoX~.].iX#X#X8         1 U.U.uXyXjXI $.) ",
"%.@.MXnXbXiXeX).  X       K ' W.U.pXyX4XK ; ^ G G K W K J K 2 * 2 G U G G p < > K p W r f W.{.E.].G.      . X u D.].uXyXjX/ ) #.",
"A *.MXnXbXxXtXU.p.;.  X   U K 9 ^.^.$ & T G P 4 < G G K G G * 8 * U I U 8 = & & K * K < & 9 W.W.E.H.      w.u.u.D.U.uXyXqX/ $.#.",
"&.C 5XmXzXuXuXG.p.:.r       + K K 9 K U P ^ L P P * U p T U ^ * U L U * * U U G G 6 G U K p K Q..     K u.a.M.F.].!.eXyXwX/ #.A ",
"A ) jXmXxXuXiXi.i.g.u.K U I 0   K < K G U U * 4 2 ! 2 U U G L 4 U L U U > G * 6 ! L 8 * * U G * K K G E s.i.s.H.U.eXuX1X( C &.S ",
"D Z qXxXxXuXhXi.g.i.g.Y K I P + G 6 U U G G 8 2 8 I 8 G G K K < U U U K < U * 2 L U 2 2 8 U U ; P U E p M.i.g.S.].rXuX<X/ #.S S ",
"D ` qXyXiX8XjXa.a.g.g.d.U U G U U I * * I U J I I I I G > > J & G U U J U * 2 * U 0 U 2 2 G L * ! P J K C.F.H.E.E.yXhX4X_ &.D S ",
"#.` ( qXqXjXC.n.@ & @ @ < U U U K & * 8 U I J J I ! I 6 * 8 * & K p J I L 7 = & p p ! m 0 U * = U U 0 J K u.i.].E.).( / A D A &.",
"#.Z / vX>X> & 8 ; * < 8 p < * * K K ^ G U K U & 6 U U G ^ G U U G 8 < J q 3 G K p 8 G 2 * 8 G U L G 0 > & W.{.U.{.W.` Z S &.%.%.",
"A #.$.` I > 8 * H U U G U U G J K J L U U K G K J U U 2 L U G G U L J I M M K s a K U L U 9 0 U 0 m q I < & - 1 @ * _ *.F S %.&.",
"D %.Z *.~ 6 * & L U G U L U G U G U L P U U K L K G P 8 U L U U U U G U m m p K K K G U K 0 0 G 0 0 m U * 8 ; & = 6 ) #.&.D %.%.",
"S S %.*.~ 2 8 K K U P 2 q G U G U U U U U P L T H T 8 4 G U K G p < * q P P T p e B ^ J K K 8 = U J G I 0 L P 8 8 2 -.*.A %.D A ",
"F =.%.*.-.I G K K G P ! ! U K K I L G K K H MXnXjXf H H U U K K K a K K R Y d Q nXnXe H a p I m 0 0 = = U 0 G H * 7 3 N &.%.#.#.",
"=.%.F *.-.! 6 J K U P ! L ! K G L ! U [ bXlXhXuXrXeXyXY K G * K & s d f yXiX-X-XuX{.nXnXNXU L m U J U 0 q & = U G * 3 3 ) #.A D ",
"%.%.*.C ~ I 6 J K G U U U L U U ! 2 * < # kX+.+.4.aXuXhXK P U J K K Y uX=X+.4.+.O.uX: : 4 3 I I 0 9 K 0 U > * 0 G > = % $.@.#.D ",
"%.A *.~ I I > I G U I U G U P U U 4 4 8 - #X4.4.4.-X9XgXK P G U U L W uX&X4.4.8.4.#X: 5 5 4 I J 0 0 K 0 K > * 9 K * % 3 ) @.A &.",
"*.*.) ,.;.> U I U U G J U G ^ P * ; ; - : # aX4.4.{ uXhXH ^ G * I ! Y 0X6.:XrX$X-X$ : ; 5 4 > t U G U 9 G 0 9 0 K < & = % @.%.D ",
"@.) >.I t J J U U L U W G K G * ; :.:.O.o.# # sX%XsXsXhX; * K J U * r 8X7.sX8X8X# w O.:.q.o.@ = U P G 0 ^ G G J > J * = 3 *.F =.",
"$.>.>.,.,.J U U ! U U G G MXjX; ;     . . o q.# w %XO.uX- * K & p * : hXsXsXw - :.. . . o   1 > L U 0 0 G U L ( J 8 8 8 % *.%.S ",
"_ >.>.J K U G U L U U G MX& & - < . &X'.x.. . q.6.:X;XfX$ < < * K < # 7.9X9X6.O.  . '.c.r.. - * 8 9 ,Xe 9 L ( V L U * * 3 ~ %.=.",
"_ >.,.U U G T G U P U U NX9 i 9 @ . '.`.x.. O o.6.&X;XrX- & * * J & # 8.aX$Xo.| . . '.r.r.. - 9 1 p 6Xp 9 U U ! ! P 4 ; = -.&.F ",
">.>.,.>.,.T L U U ' m.m.n.nXlX.X: ] . O e.o 7.o o h uXyX- 8 ! ! ! 8 1 9XaXj . . t.. e.O o v : .X.X.X.XnXH G I L L ^ H p = % ) D ",
">.>.P >.,.P U U n.b.m.N.OX+X.X{.XX/.v j . . o . o h h # - ; U P U ; - # x x .   . o . x ]  X{..X.X.XXXbXs K U I ! L Y Y K = Z &.",
">.P ! ,.,.U L K b.n.n.4X.XXX}.}.{.|. X/.h v v . o v # g g g f g g g g g # v . . h h v /. X/.}.}.XX}.^.XXXXs K K K T H U G % #.S ",
",.^ L U U K G n.5X4X4X+XXX~.oX].@X#X{.[./. X7.x ] o.g g 7.7.o.7.7.7.o.g g q.h v 7.[./.D.D.@X{.}.{.XXXX}.}.XX)._.K G T U K % #.S ",
",.U ! U P G K N.4X3X3X{.XX}.}.oX{.7X|.[. X/.7.x h q.h j 7.5.5.6.5.7.5.j j 7.v v 7.[.[.D.D.].}.{.|.~.XXXX{.{.+XOXW K p H U % &.D ",
">.G P G K U n.4X5X4X3X{.oX}.].|.XX].}.[.[.[. X6.8.sX%XsX8.5.b c b 3.6.aXsXsXO.7. X[.[.[.[.oX{.{.2X2X2XB.XXXX{..XOXY K K K % Z %.",
"U U U U L U b.5X4X8X3XXX~.}.}.{.{.oX{.}.[.tXaXfXdXaXaX6.l.l.k 2.3.9.9.6.%X-XrX$XrXrX].[.}.{.{.XX~.}.XX^.XX.X.X.X(.+XY i K % *.&.",
"L U U K K H 5X4X4X1X.XXXoXyX#X{.}.{.uXeXuXdXdXrX$XaX-X%XY.l.x.2.0.1.9.:X:X-XrXtX-X=XdXuX7X|.A.{.|.}.V.oXXX{.{..XoX{.{.W.K % ) *.",
"8 G G U W N.4X5X3X1X2X{.}.~.oX}.{.}.yXeXuXtXxX=XtXeXrXaXl.x.l.l 3.9.2.:X:XaX$X=XfX=X=XuX#XD.A.XX}.].}.XXA.1X2X{.{.{.}..XOX= N ) ",
"* U K K W d.5X4X1X3X2XXX}.|.{.}.{.|.eXuXiXdXfX=XeXrX%XsXl.Y.z.l 0.3.2.:X:X$XfX=X=XtXuXeXuXD.S.}.}.}.}.XXF.<X1X{.{.|.}.{.OX= 3 $.",
"* ^ G K K K s.3X3X2X7X{.}.XX{.|.{.eXuXuXeXeXcX=XuXuXtXrXy.y.c z 0.l n :XaX-XrXtXrX=XrXuXeXuXS.B.|.~.@X{..X{.XX].}.{.{.+XOX> 7 _ ",
"8 J K J H s (.3X1X2X2XoX1XXXoX{.7XxXkXiXtXrXdXrXuXuXuXxXk.y.b z k b b :XaX=XrXtX=XrXrXtXuX7XS.S.{.|.~.@XXX}.XX}.D.|.{.I.& * * _ ",
"* U U U K K F.4X8X2X<X{.oX{.oX}.#XuXkXdXtXeXuXrXiX$XuXxXj.y.b z z c b aX%XtXiX=XrXrX=XeX$X!.S./.{.XX}.^.XX}.}.B.S.D.- 1 > * 8 ' ",
"* U G K W F.I.F.^.oX8X1X}.XX{.}.}.@XdXdXtXuXrXuXuXuXeXj.k.k.z c z b x x rX%XuXrX=XrXrXtX9XY.V.@XXX}.}.oX}.XX}.S.D.H.W G U * K  .",
"2 J U W ' K.F.G.XX{.1X7X^.oXXXXX}.{.iXkXuXuXrX=XeXdXaXy.y.y.k c l k x x aXaX$XiXeXuXrXeX7XD.V.{.}.XX^.{.{.~./.L.S.G.s G U 8 H ..",
"2 2 U G K Y J.G.G.H.XX7XoX^..X{.{.{.kXkXiXeXeXeX$X$XaXk.c c l l n l c x %XaXrXrXrX=XeXeXuXD.S.oXXXXXXXp.i.p.f.G.S.I.K U ! * ..| ",
"6 2 U 9 W K.F.I.G.S.G.}.1X8X1XoX{..XuXuXkXiXrXtXtXaXaXc k l 9.3.3.l k c fX-XaX-XrX=XiXpXeXA.A.{.B.G.t.D.H.G.G.P.L.J.L U I 4 [ | ",
"2 * U 0 9 9 i s F.P.G.G.G.XX{.1X.X{.XX|.kXdX=X-X-XaXcX4.2.3.2.2.0.3.2.2.:X:X-X-X-XtXeX].].A.A.G.i.i.p.G.A.G.G.Z.G.J.U U ! U  .| ",
"2 * U 0 0 9 9 i G.G.G.A.G.G.G.XX.X+X.X{.kXdX-XaX:X:X3.3.9.2.2.2.0.3.2.2.3.:XaX-XrX=XuXA.D.A.A.p.G.P.S.G.G.P.S.G.G.s U L L ;. .} ",
"8 * G 0 0 0 9 9 F.G.G.G.G.G.L.^.{.{.XXoXuXkXeX-X-X-X8.8.{ 5.5.3.{ 5.{ { 8.aX$XaX%XrXeXD.S.A.F.i.H.L.G.S.G.A.A.H.F.a K T K  . .| ",
"U * = 0 q p e 9 I.G.G.G.G.G.G.G.P.}.{.}.oXiXxXeXuXuXO.u g g f f f g g u O.sXuXeXuXuXD.D.B.G.i.i.G.G.L.S.G.G.G.J.a K K K  ... . .",
"U 8 * G U 8 e e K.C.I.H.G.G.L.S.V.S.{.|.|.kXuXhXgX{.s K K K G L L H Y Y d {.yXiXuX!.S.V.G.i.a.g.G.G.S.G.G.I.F.C.K K .. . .X.[ ..",
"U G 8 L U ! 0 9 r Y B.G.G.S.S.V.P.S.P.S.}.lXlX<X4XOXn.m.m.v.! ! ! m.b.K Y .XXX{.eX~.V.h.i.w.a.G.L.G.S.G.G.Z.K.R.T K } X.[  .....",
"G U U * 4 L 0 p 9 K I.G.G.S.L.P.V.S.i.h.G.G.hX3X4X_.K     X m.I m.  X   K .XXX{.].t.p.p.i.M.J.J.G.S.P.G.Z.Q K L p a. .} X.} ;.[ ",
"J K G 8 4 ! 0 q e K J.J.G.S.S.S.L.S.h.i.B.G.lX1X1XOXQ X     >.G >.    . Q +X{.].U.t.t.t.p.a.C.H.G.S.G.J.J.H U T K n...} } |  .;.",
"U J U U P G G 0 0 T F.H.G.G.G.G.G.S.h.i.g.i.hX2X2X+X.Xa               s .X+X{.}.E.t.p.p.p.i.I.G.S.P.G.J.R.T T L K s.[ | | .. ...",
"U G G U U U P 0 0 e 9 F.G.G.G.G.G.G.G.G.g.i.i.8X1X8X+X(..           . .X+X{.oXXXh.p.i.p.i.G.H.G.G.S.I.a H P T b.a.s.Q Y } .. . .",
"[ K U U L U ! m q 0 9 p G.G.G.G.G.G.G.G.i.g.h.w i d 4X+XOXQ.      .X6XOX(.s w w i.i.g.S.I.G.B.G.S.G.J.Y U P T d.g.Y s [  .[ ..} ",
"..K U P U U L 0 0 0 9 9 a J.I.Z.G.G.G.G.i.i.g.w.w.i i e               W W r a.a.s.g.G.L.V.S.P.S.D.B.Y K U H T n.u.s Q Y ;... .| ",
" .H K K U U L 0 G 9 0 9 K K.Z.J.B.I.Z.P.g.i.g.s.u.i 9 0           X + G T p a.a.a.i.Z.L.L.L.V.L.B.M.a T T K W d.M.a Q Y .. . .| ",
"..T K G U U U L 8 t 9 q 9 K.K.J.H.L.G.G.i.g.i.a.s.M.n.p 9 t       G U p a.M.a.a.s.i.I.Z.L.G.G.Z.f a K s.s.a.n.s.w.r Y W  . ...} ",
";.' K K P U U U U K K p 9 p 9 H Z.G.H.G.G.G.i.g.i.u.s.n.n.d.0 t G n.b.d.a.u.g.i.s.G.G.H.J.J.a Y a T s u.g.a.a.a.Y W Q W  ... . .",
".. .K U U U J U U G J p p 9 9 p Y F.G.G.G.G.I.i.h.i.f.i.u.g.s.a.g.u.a.g.i.h.i.p.t.G.S.F.F.H K U U K a.s.t.i.u.s a W  . . . .....",
" .;.H K P U U U U G U K G 0 B p w G.G.P.G.G.S.f.i.h.f.f.f.f.i.i.a.i.g.i.f.L.t.t.D.G.H.s K J I U v.b.s.i.p.p.u.s Y W  ..... ... ."
};
